{
.appVersion = "1264";
copyright = "Copyright 2019 Google Inc. All Rights Reserved.";
customParameters = (
{
name = glyphOrder;
value = (
.notdef,
NULL,
CR,
space,
uni00A0,
one_siyaq,
two_siyaq,
three_siyaq,
four_siyaq,
five_siyaq,
six_siyaq,
seven_siyaq,
eight_siyaq,
nine_siyaq,
ten_siyaq,
twenty_siyaq,
thirty_siyaq,
forty_siyaq,
fifty_siyaq,
sixty_siyaq,
seventy_siyaq,
eighty_siyaq,
ninety_siyaq,
one_hundred_siyaq,
two_hundred_siyaq,
three_hundred_siyaq,
four_hundred_siyaq,
five_hundred_siyaq,
six_hundred_siyaq,
seven_hundred_siyaq,
eight_hundred_siyaq,
nine_hundred_siyaq,
one_thousand_siyaq,
two_thousand_siyaq,
three_thousand_siyaq,
four_thousand_siyaq,
five_thousand_siyaq,
six_thousand_siyaq,
seven_thousand_siyaq,
eight_thousand_siyaq,
nine_thousand_siyaq,
ten_thousand_siyaq,
twenty_thousand_siyaq,
thirty_thousand_siyaq,
forty_thousand_siyaq,
fifty_thousand_siyaq,
sixty_thousand_siyaq,
seventy_thousand_siyaq,
eighty_thousand_siyaq,
ninety_thousand_siyaq,
lakh_siyaq,
lakhan_siyaq,
lakh_mark_siyaq,
karor_siyaq,
karoran_siyaq,
prefixed_one_siyaq,
prefixed_two_siyaq,
prefixed_three_siyaq,
prefixed_four_siyaq,
prefixed_five_siyaq,
prefixed_six_siyaq,
prefixed_seven_siyaq,
prefixed_eight_siyaq,
prefixed_nine_siyaq,
placeholder_siyaq,
onequarter_siyaq,
onehalf_siyaq,
threequarters_siyaq,
rupee_siyaq,
one.alt_siyaq,
two.alt_siyaq,
ten.alt_siyaq,
lakh_mark.alt_siyaq,
placeholder_siyaq.alt,
ZeroArabic,
OneArabic,
TwoArabic,
ThreeArabic,
FourArabic,
FiveArabic,
SixArabic,
SevenArabic,
EightArabic,
NineArabic,
ZeroUrdu,
OneUrdu,
TwoUrdu,
ThreeUrdu,
FourUrdu,
FiveUrdu,
SixUrdu,
SevenUrdu,
EightUrdu,
NineUrdu,
Alef
);
},
{
name = "Don't use Production Names";
value = 1;
},
{
name = description;
value = "Designed by Monotype design team.";
},
{
name = license;

glyphs = (
{
glyphname = .notdef;
lastChange = "2019-09-12 18:16:57 +0000";
layers = (
{
layerId = UUID0;
paths = (
{
closed = 1;
nodes = (
"505 0 LINE",
"505 714 LINE",
"94 714 LINE",
"94 0 LINE"
);
},
{
closed = 1;
nodes = (
"145 663 LINE",
"454 663 LINE",
"454 51 LINE",
"145 51 LINE"
);
}
);
width = 600;
}
);
category = Letter;
},
{
glyphname = one_siyaq;
lastChange = "2019-09-12 13:59:03 +0000";
layers = (
{
layerId = UUID0;
paths = (
{
closed = 1;
nodes = (
"122 233 OFFCURVE",
"95 169 OFFCURVE",
"91 130 CURVE SMOOTH",
"89 107 OFFCURVE",
"89 91 OFFCURVE",
"89 76 CURVE SMOOTH",
"89 61 OFFCURVE",
"89 45 OFFCURVE",
"89 31 CURVE SMOOTH",
"89 -156 OFFCURVE",
"66 -248 OFFCURVE",
"60 -288 CURVE",
"80 -294 LINE",
"117 -197 OFFCURVE",
"125 -134 OFFCURVE",
"130 -51 CURVE SMOOTH",
"133 -5 OFFCURVE",
"134 33 OFFCURVE",
"134 68 CURVE",
"162 19 OFFCURVE",
"204 0 OFFCURVE",
"250 0 CURVE SMOOTH",
"318 0 OFFCURVE",
"397 43 OFFCURVE",
"454 97 CURVE",
"460 97 LINE SMOOTH",
"572 97 OFFCURVE",
"652 146 OFFCURVE",
"681 243 CURVE",
"696 198 OFFCURVE",
"747 167 OFFCURVE",
"812 167 CURVE SMOOTH",
"974 167 OFFCURVE",
"1065 267 OFFCURVE",
"1114 380 CURVE",
"1097 389 LINE",
"1063 341 OFFCURVE",
"1029 315 OFFCURVE",
"979 308 CURVE",
"938 308 OFFCURVE",
"896 339 OFFCURVE",
"896 386 CURVE SMOOTH",
"896 405 OFFCURVE",
"906 426 OFFCURVE",
"923 440 CURVE SMOOTH",
"945 458 OFFCURVE",
"974 469 OFFCURVE",
"1003 469 CURVE SMOOTH",
"1024 469 OFFCURVE",
"1047 462 OFFCURVE",
"1064 447 CURVE",
"1072 446 LINE",
"1093 456 OFFCURVE",
"1100 482 OFFCURVE",
"1100 498 CURVE SMOOTH",
"1100 536 OFFCURVE",
"1065 553 OFFCURVE",
"1034 553 CURVE SMOOTH",
"970 553 OFFCURVE",
"921 504 OFFCURVE",
"868 444 CURVE SMOOTH",
"840 412 OFFCURVE",
"794 341 OFFCURVE",
"791 290 CURVE",
"755 294 OFFCURVE",
"718 328 OFFCURVE",
"718 409 CURVE SMOOTH",
"718 431 OFFCURVE",
"723 451 OFFCURVE",
"727 464 CURVE",
"707 469 LINE",
"682 422 OFFCURVE",
"666 354 OFFCURVE",
"666 305 CURVE SMOOTH",
"666 293 LINE",
"652 212 OFFCURVE",
"572 183 OFFCURVE",
"543 183 CURVE SMOOTH",
"539 183 LINE",
"563 223 OFFCURVE",
"574 264 OFFCURVE",
"574 310 CURVE SMOOTH",
"574 368 OFFCURVE",
"542 426 OFFCURVE",
"475 426 CURVE SMOOTH",
"374 426 OFFCURVE",
"315 295 OFFCURVE",
"315 215 CURVE SMOOTH",
"315 173 OFFCURVE",
"332 144 OFFCURVE",
"359 126 CURVE",
"340 118 OFFCURVE",
"321 114 OFFCURVE",
"301 114 CURVE SMOOTH",
"243 114 OFFCURVE",
"186 150 OFFCURVE",
"161 218 CURVE SMOOTH",
"157 228 OFFCURVE",
"151 233 OFFCURVE",
"142 233 CURVE SMOOTH"
);
},
{
closed = 1;
nodes = (
"491 321 OFFCURVE",
"518 285 OFFCURVE",
"518 251 CURVE SMOOTH",
"518 224 OFFCURVE",
"496 202 OFFCURVE",
"461 183 CURVE",
"420 183 OFFCURVE",
"366 201 OFFCURVE",
"366 254 CURVE SMOOTH",
"366 295 OFFCURVE",
"410 321 OFFCURVE",
"448 321 CURVE SMOOTH"
);
}
);
width = 1224;
}
);
unicode = 1EC71;
script = "";
category = Letter;
},
{
glyphname = two_siyaq;
lastChange = "2019-09-12 13:59:03 +0000";
layers = (
{
layerId = UUID0;
paths = (
{
closed = 1;
nodes = (
"913 166 OFFCURVE",
"1004 266 OFFCURVE",
"1053 379 CURVE",
"1036 388 LINE",
"1002 340 OFFCURVE",
"968 314 OFFCURVE",
"918 307 CURVE",
"877 307 OFFCURVE",
"835 338 OFFCURVE",
"835 385 CURVE SMOOTH",
"835 404 OFFCURVE",
"845 425 OFFCURVE",
"862 439 CURVE SMOOTH",
"884 457 OFFCURVE",
"913 468 OFFCURVE",
"942 468 CURVE SMOOTH",
"963 468 OFFCURVE",
"986 461 OFFCURVE",
"1003 446 CURVE",
"1011 445 LINE",
"1032 455 OFFCURVE",
"1039 481 OFFCURVE",
"1039 497 CURVE SMOOTH",
"1039 535 OFFCURVE",
"1004 552 OFFCURVE",
"973 552 CURVE SMOOTH",
"909 552 OFFCURVE",
"860 503 OFFCURVE",
"807 443 CURVE SMOOTH",
"779 411 OFFCURVE",
"733 340 OFFCURVE",
"730 289 CURVE",
"694 293 OFFCURVE",
"657 327 OFFCURVE",
"657 408 CURVE SMOOTH",
"657 430 OFFCURVE",
"662 450 OFFCURVE",
"666 463 CURVE",
"646 468 LINE",
"622 421 OFFCURVE",
"605 357 OFFCURVE",
"605 304 CURVE SMOOTH",
"605 292 LINE",
"591 211 OFFCURVE",
"511 182 OFFCURVE",
"482 182 CURVE SMOOTH",
"478 182 LINE",
"502 222 OFFCURVE",
"513 263 OFFCURVE",
"513 309 CURVE SMOOTH",
"513 367 OFFCURVE",
"481 425 OFFCURVE",
"414 425 CURVE SMOOTH",
"313 425 OFFCURVE",
"254 294 OFFCURVE",
"254 215 CURVE SMOOTH",
"254 192 OFFCURVE",
"259 173 OFFCURVE",
"268 158 CURVE",
"256 158 LINE SMOOTH",
"135 158 OFFCURVE",
"132 288 OFFCURVE",
"132 390 CURVE SMOOTH",
"132 470 OFFCURVE",
"140 589 OFFCURVE",
"149 683 CURVE SMOOTH",
"156 756 OFFCURVE",
"163 794 OFFCURVE",
"168 818 CURVE",
"148 826 LINE",
"106 731 OFFCURVE",
"95 668 OFFCURVE",
"85 586 CURVE SMOOTH",
"65 416 OFFCURVE",
"60 333 OFFCURVE",
"60 215 CURVE SMOOTH",
"60 85 OFFCURVE",
"98 0 OFFCURVE",
"203 0 CURVE SMOOTH",
"262 0 OFFCURVE",
"310 22 OFFCURVE",
"391 96 CURVE",
"399 96 LINE SMOOTH",
"511 96 OFFCURVE",
"591 145 OFFCURVE",
"620 242 CURVE",
"635 197 OFFCURVE",
"686 166 OFFCURVE",
"751 166 CURVE SMOOTH"
);
},
{
closed = 1;
nodes = (
"457 223 OFFCURVE",
"435 201 OFFCURVE",
"400 182 CURVE",
"359 182 OFFCURVE",
"305 200 OFFCURVE",
"305 253 CURVE SMOOTH",
"305 294 OFFCURVE",
"349 320 OFFCURVE",
"387 320 CURVE SMOOTH",
"430 320 OFFCURVE",
"457 284 OFFCURVE",
"457 250 CURVE SMOOTH"
);
}
);
width = 1163;
}
);
unicode = 1EC72;
script = "";
category = Letter;
},
{
glyphname = three_siyaq;
lastChange = "2019-09-12 13:59:03 +0000";
layers = (
{
layerId = UUID0;
paths = (
{
closed = 1;
nodes = (
"75 186 OFFCURVE",
"60 142 OFFCURVE",
"60 110 CURVE SMOOTH",
"60 57 OFFCURVE",
"86 30 OFFCURVE",
"155 12 CURVE SMOOTH",
"221 -5 OFFCURVE",
"303 -9 OFFCURVE",
"432 -9 CURVE SMOOTH",
"864 -9 OFFCURVE",
"962 -2 OFFCURVE",
"1068 15 CURVE",
"1122 24 OFFCURVE",
"1312 117 OFFCURVE",
"1336 152 CURVE",
"1326 159 LINE",
"1133 139 OFFCURVE",
"911 131 OFFCURVE",
"521 131 CURVE SMOOTH",
"378 131 OFFCURVE",
"255 138 OFFCURVE",
"207 148 CURVE SMOOTH",
"159 158 OFFCURVE",
"132 165 OFFCURVE",
"132 193 CURVE SMOOTH",
"132 227 OFFCURVE",
"178 249 OFFCURVE",
"282 298 CURVE SMOOTH",
"348 329 OFFCURVE",
"390 360 OFFCURVE",
"434 435 CURVE SMOOTH",
"451 464 OFFCURVE",
"460 474 OFFCURVE",
"472 474 CURVE SMOOTH",
"480 474 OFFCURVE",
"487 470 OFFCURVE",
"505 459 CURVE SMOOTH",
"528 445 OFFCURVE",
"554 436 OFFCURVE",
"581 436 CURVE SMOOTH",
"636 436 OFFCURVE",
"684 485 OFFCURVE",
"708 587 CURVE",
"687 591 LINE",
"668 553 OFFCURVE",
"643 542 OFFCURVE",
"608 542 CURVE SMOOTH",
"586 542 OFFCURVE",
"569 548 OFFCURVE",
"554 558 CURVE SMOOTH",
"532 572 OFFCURVE",
"522 578 OFFCURVE",
"512 578 CURVE SMOOTH",
"496 578 OFFCURVE",
"488 571 OFFCURVE",
"474 554 CURVE SMOOTH",
"466 544 OFFCURVE",
"457 531 OFFCURVE",
"442 509 CURVE SMOOTH",
"403 449 OFFCURVE",
"381 432 OFFCURVE",
"285 378 CURVE SMOOTH",
"265 367 OFFCURVE",
"225 341 OFFCURVE",
"184 310 CURVE SMOOTH",
"141 278 OFFCURVE",
"111 252 OFFCURVE",
"91 215 CURVE SMOOTH"
);
}
);
width = 1396;
}
);
unicode = 1EC73;
script = "";
category = Letter;
},
{
glyphname = four_siyaq;
lastChange = "2019-09-12 13:59:03 +0000";
layers = (
{
layerId = UUID0;
paths = (
{
closed = 1;
nodes = (
"609 325 OFFCURVE",
"648 367 OFFCURVE",
"665 416 CURVE",
"674 318 OFFCURVE",
"714 265 OFFCURVE",
"784 265 CURVE SMOOTH",
"872 265 OFFCURVE",
"922 381 OFFCURVE",
"945 464 CURVE SMOOTH",
"969 550 OFFCURVE",
"979 654 OFFCURVE",
"983 730 CURVE SMOOTH",
"989 852 LINE SMOOTH",
"991 898 OFFCURVE",
"993 935 OFFCURVE",
"999 959 CURVE",
"976 964 LINE",
"942 893 OFFCURVE",
"935 864 OFFCURVE",
"929 829 CURVE SMOOTH",
"924 797 OFFCURVE",
"921 765 OFFCURVE",
"920 725 CURVE SMOOTH",
"918 626 LINE SMOOTH",
"917 556 OFFCURVE",
"915 533 OFFCURVE",
"910 512 CURVE SMOOTH",
"896 448 OFFCURVE",
"859 423 OFFCURVE",
"821 423 CURVE SMOOTH",
"739 423 OFFCURVE",
"731 502 OFFCURVE",
"731 606 CURVE SMOOTH",
"731 790 OFFCURVE",
"741 843 OFFCURVE",
"750 889 CURVE",
"727 893 LINE",
"692 817 OFFCURVE",
"685 766 OFFCURVE",
"678 700 CURVE SMOOTH",
"676 683 OFFCURVE",
"672 635 OFFCURVE",
"669 587 CURVE SMOOTH",
"664 512 OFFCURVE",
"634 411 OFFCURVE",
"567 375 CURVE",
"557 432 OFFCURVE",
"528 485 OFFCURVE",
"467 485 CURVE SMOOTH",
"439 485 OFFCURVE",
"419 470 OFFCURVE",
"405 441 CURVE SMOOTH",
"375 381 LINE SMOOTH",
"362 354 OFFCURVE",
"357 330 OFFCURVE",
"357 313 CURVE SMOOTH",
"357 267 OFFCURVE",
"398 243 OFFCURVE",
"437 243 CURVE SMOOTH",
"462 243 OFFCURVE",
"486 249 OFFCURVE",
"512 261 CURVE",
"514 256 OFFCURVE",
"515 251 OFFCURVE",
"515 244 CURVE SMOOTH",
"515 217 OFFCURVE",
"499 192 OFFCURVE",
"467 175 CURVE SMOOTH",
"438 160 OFFCURVE",
"402 159 OFFCURVE",
"365 159 CURVE SMOOTH",
"328 159 OFFCURVE",
"302 169 OFFCURVE",
"265 169 CURVE SMOOTH",
"187 169 OFFCURVE",
"112 109 OFFCURVE",
"50 -48 CURVE",
"70 -57 LINE",
"112 1 OFFCURVE",
"141 18 OFFCURVE",
"185 18 CURVE SMOOTH",
"199 18 OFFCURVE",
"222 13 OFFCURVE",
"237 9 CURVE SMOOTH",
"253 5 OFFCURVE",
"275 0 OFFCURVE",
"304 0 CURVE SMOOTH",
"338 0 OFFCURVE",
"383 10 OFFCURVE",
"416 27 CURVE SMOOTH",
"524 82 OFFCURVE",
"564 193 OFFCURVE",
"571 294 CURVE"
);
}
);
width = 1059;
}
);
unicode = 1EC74;
script = "";
category = Letter;
},
{
glyphname = five_siyaq;
lastChange = "2019-09-12 13:59:03 +0000";
layers = (
{
layerId = UUID0;
paths = (
{
closed = 1;
nodes = (
"440 282 OFFCURVE",
"411 216 OFFCURVE",
"401 159 CURVE",
"363 163 OFFCURVE",
"331 181 OFFCURVE",
"277 181 CURVE SMOOTH",
"202 181 OFFCURVE",
"114 113 OFFCURVE",
"50 -36 CURVE",
"70 -46 LINE",
"111 15 OFFCURVE",
"144 32 OFFCURVE",
"187 32 CURVE SMOOTH",
"247 32 OFFCURVE",
"308 0 OFFCURVE",
"394 0 CURVE SMOOTH",
"540 0 OFFCURVE",
"637 84 OFFCURVE",
"723 194 CURVE SMOOTH",
"762 244 OFFCURVE",
"798 297 OFFCURVE",
"830 347 CURVE",
"827 360 LINE",
"808 364 OFFCURVE",
"776 374 OFFCURVE",
"729 391 CURVE SMOOTH",
"679 409 OFFCURVE",
"642 418 OFFCURVE",
"601 418 CURVE SMOOTH",
"546 418 OFFCURVE",
"507 391 OFFCURVE",
"471 332 CURVE SMOOTH"
);
},
{
closed = 1;
nodes = (
"449 221 OFFCURVE",
"475 267 OFFCURVE",
"510 295 CURVE SMOOTH",
"529 311 OFFCURVE",
"558 316 OFFCURVE",
"583 316 CURVE SMOOTH",
"619 316 OFFCURVE",
"654 306 OFFCURVE",
"689 295 CURVE SMOOTH",
"736 280 LINE",
"685 210 OFFCURVE",
"565 156 OFFCURVE",
"461 156 CURVE SMOOTH",
"452 156 OFFCURVE",
"443 156 OFFCURVE",
"435 157 CURVE"
);
}
);
width = 890;
}
);
unicode = 1EC75;
script = "";
category = Letter;
},
{
glyphname = six_siyaq;
lastChange = "2019-09-12 13:59:03 +0000";
layers = (
{
layerId = UUID0;
paths = (
{
closed = 1;
nodes = (
"132 227 OFFCURVE",
"178 249 OFFCURVE",
"282 298 CURVE SMOOTH",
"330 321 OFFCURVE",
"342 327 OFFCURVE",
"372 353 CURVE SMOOTH",
"425 400 OFFCURVE",
"462 478 OFFCURVE",
"479 550 CURVE SMOOTH",
"486 579 OFFCURVE",
"490 603 OFFCURVE",
"491 642 CURVE SMOOTH",
"492 677 LINE SMOOTH",
"493 732 OFFCURVE",
"496 758 OFFCURVE",
"502 774 CURVE",
"483 780 LINE",
"445 721 OFFCURVE",
"439 707 OFFCURVE",
"430 679 CURVE SMOOTH",
"424 660 OFFCURVE",
"422 636 OFFCURVE",
"421 597 CURVE SMOOTH",
"420 569 OFFCURVE",
"420 544 OFFCURVE",
"418 519 CURVE SMOOTH",
"415 482 OFFCURVE",
"410 467 OFFCURVE",
"394 449 CURVE SMOOTH",
"384 438 OFFCURVE",
"348 414 OFFCURVE",
"285 378 CURVE SMOOTH",
"265 367 OFFCURVE",
"225 341 OFFCURVE",
"184 310 CURVE SMOOTH",
"141 278 OFFCURVE",
"111 251 OFFCURVE",
"91 215 CURVE SMOOTH",
"75 186 OFFCURVE",
"60 138 OFFCURVE",
"60 110 CURVE SMOOTH",
"60 57 OFFCURVE",
"86 30 OFFCURVE",
"155 12 CURVE SMOOTH",
"221 -5 OFFCURVE",
"303 -9 OFFCURVE",
"432 -9 CURVE SMOOTH",
"864 -9 OFFCURVE",
"964 -2 OFFCURVE",
"1068 15 CURVE",
"1121 24 OFFCURVE",
"1312 117 OFFCURVE",
"1336 152 CURVE",
"1326 159 LINE",
"1133 139 OFFCURVE",
"911 131 OFFCURVE",
"521 131 CURVE SMOOTH",
"378 131 OFFCURVE",
"255 138 OFFCURVE",
"207 148 CURVE SMOOTH",
"159 158 OFFCURVE",
"132 165 OFFCURVE",
"132 193 CURVE SMOOTH"
);
}
);
width = 1396;
}
);
unicode = 1EC76;
script = "";
category = Letter;
},
{
glyphname = seven_siyaq;
lastChange = "2019-09-12 13:59:03 +0000";
layers = (
{
layerId = UUID0;
paths = (
{
closed = 1;
nodes = (
"590 306 OFFCURVE",
"607 322 OFFCURVE",
"627 342 CURVE SMOOTH",
"663 378 LINE SMOOTH",
"699 414 OFFCURVE",
"712 422 OFFCURVE",
"734 422 CURVE SMOOTH",
"780 422 OFFCURVE",
"786 359 OFFCURVE",
"786 321 CURVE SMOOTH",
"786 297 OFFCURVE",
"783 261 OFFCURVE",
"780 240 CURVE",
"810 237 LINE",
"835 304 OFFCURVE",
"848 365 OFFCURVE",
"848 417 CURVE SMOOTH",
"848 476 OFFCURVE",
"828 531 OFFCURVE",
"762 531 CURVE SMOOTH",
"738 531 OFFCURVE",
"718 516 OFFCURVE",
"690 483 CURVE SMOOTH",
"654 441 OFFCURVE",
"614 387 OFFCURVE",
"569 358 CURVE",
"561 438 OFFCURVE",
"522 479 OFFCURVE",
"467 479 CURVE SMOOTH",
"439 479 OFFCURVE",
"419 464 OFFCURVE",
"405 435 CURVE SMOOTH",
"375 375 LINE SMOOTH",
"361 348 OFFCURVE",
"357 324 OFFCURVE",
"357 307 CURVE SMOOTH",
"357 261 OFFCURVE",
"398 237 OFFCURVE",
"437 237 CURVE SMOOTH",
"460 237 OFFCURVE",
"485 243 OFFCURVE",
"512 256 CURVE",
"514 251 OFFCURVE",
"515 245 OFFCURVE",
"515 238 CURVE SMOOTH",
"515 211 OFFCURVE",
"499 186 OFFCURVE",
"467 169 CURVE SMOOTH",
"438 154 OFFCURVE",
"402 153 OFFCURVE",
"365 153 CURVE SMOOTH",
"328 153 OFFCURVE",
"302 163 OFFCURVE",
"265 163 CURVE SMOOTH",
"187 163 OFFCURVE",
"112 103 OFFCURVE",
"50 -54 CURVE",
"70 -63 LINE",
"112 -5 OFFCURVE",
"142 14 OFFCURVE",
"185 14 CURVE SMOOTH",
"223 14 OFFCURVE",
"268 0 OFFCURVE",
"311 0 CURVE SMOOTH",
"344 0 OFFCURVE",
"380 7 OFFCURVE",
"412 21 CURVE SMOOTH",
"518 66 OFFCURVE",
"564 181 OFFCURVE",
"571 290 CURVE"
);
}
);
width = 908;
}
);
unicode = 1EC77;
script = "";
category = Letter;
},
{
glyphname = eight_siyaq;
lastChange = "2019-09-12 13:59:03 +0000";
layers = (
{
layerId = UUID0;
paths = (
{
closed = 1;
nodes = (
"638 360 OFFCURVE",
"706 447 OFFCURVE",
"758 513 CURVE SMOOTH",
"798 564 OFFCURVE",
"820 572 OFFCURVE",
"839 572 CURVE SMOOTH",
"889 572 OFFCURVE",
"907 511 OFFCURVE",
"907 448 CURVE SMOOTH",
"907 435 OFFCURVE",
"906 423 OFFCURVE",
"905 411 CURVE",
"929 410 LINE",
"940 438 OFFCURVE",
"950 488 OFFCURVE",
"950 539 CURVE SMOOTH",
"950 608 OFFCURVE",
"931 676 OFFCURVE",
"866 676 CURVE SMOOTH",
"836 676 OFFCURVE",
"821 661 OFFCURVE",
"788 615 CURVE SMOOTH",
"765 583 LINE SMOOTH",
"724 527 OFFCURVE",
"670 471 OFFCURVE",
"594 471 CURVE SMOOTH",
"529 471 OFFCURVE",
"503 528 OFFCURVE",
"503 588 CURVE SMOOTH",
"503 606 OFFCURVE",
"505 624 OFFCURVE",
"509 642 CURVE",
"485 646 LINE",
"473 623 OFFCURVE",
"461 581 OFFCURVE",
"453 542 CURVE",
"435 485 OFFCURVE",
"403 440 OFFCURVE",
"285 378 CURVE SMOOTH",
"265 367 OFFCURVE",
"225 341 OFFCURVE",
"184 310 CURVE SMOOTH",
"141 278 OFFCURVE",
"111 252 OFFCURVE",
"91 215 CURVE SMOOTH",
"75 186 OFFCURVE",
"60 142 OFFCURVE",
"60 110 CURVE SMOOTH",
"60 57 OFFCURVE",
"86 30 OFFCURVE",
"155 12 CURVE SMOOTH",
"221 -5 OFFCURVE",
"303 -9 OFFCURVE",
"432 -9 CURVE SMOOTH",
"864 -9 OFFCURVE",
"962 -2 OFFCURVE",
"1068 15 CURVE",
"1129 27 OFFCURVE",
"1312 117 OFFCURVE",
"1336 152 CURVE",
"1326 159 LINE",
"1133 139 OFFCURVE",
"911 131 OFFCURVE",
"521 131 CURVE SMOOTH",
"378 131 OFFCURVE",
"255 138 OFFCURVE",
"207 148 CURVE SMOOTH",
"159 158 OFFCURVE",
"132 165 OFFCURVE",
"132 193 CURVE SMOOTH",
"132 227 OFFCURVE",
"178 249 OFFCURVE",
"282 298 CURVE SMOOTH",
"363 336 OFFCURVE",
"410 374 OFFCURVE",
"448 468 CURVE",
"451 399 OFFCURVE",
"492 360 OFFCURVE",
"556 360 CURVE SMOOTH"
);
}
);
width = 1396;
}
);
unicode = 1EC78;
script = "";
category = Letter;
},
{
glyphname = nine_siyaq;
lastChange = "2019-09-12 13:59:03 +0000";
layers = (
{
layerId = UUID0;
paths = (
{
closed = 1;
nodes = (
"638 346 OFFCURVE",
"675 411 OFFCURVE",
"695 508 CURVE SMOOTH",
"709 577 OFFCURVE",
"717 674 OFFCURVE",
"720 745 CURVE SMOOTH",
"721 769 LINE SMOOTH",
"723 824 OFFCURVE",
"725 859 OFFCURVE",
"731 883 CURVE",
"710 888 LINE",
"684 837 OFFCURVE",
"661 789 OFFCURVE",
"652 729 CURVE SMOOTH",
"647 694 OFFCURVE",
"646 647 OFFCURVE",
"646 610 CURVE SMOOTH",
"646 567 OFFCURVE",
"645 511 OFFCURVE",
"643 493 CURVE SMOOTH",
"638 443 OFFCURVE",
"615 400 OFFCURVE",
"567 369 CURVE",
"555 426 OFFCURVE",
"528 479 OFFCURVE",
"467 479 CURVE SMOOTH",
"439 479 OFFCURVE",
"419 464 OFFCURVE",
"405 435 CURVE SMOOTH",
"375 375 LINE SMOOTH",
"362 348 OFFCURVE",
"357 324 OFFCURVE",
"357 307 CURVE SMOOTH",
"357 261 OFFCURVE",
"398 237 OFFCURVE",
"437 237 CURVE SMOOTH",
"462 237 OFFCURVE",
"486 243 OFFCURVE",
"512 255 CURVE",
"514 250 OFFCURVE",
"515 242 OFFCURVE",
"515 238 CURVE SMOOTH",
"515 211 OFFCURVE",
"499 186 OFFCURVE",
"467 169 CURVE SMOOTH",
"438 154 OFFCURVE",
"402 153 OFFCURVE",
"365 153 CURVE SMOOTH",
"328 153 OFFCURVE",
"302 163 OFFCURVE",
"265 163 CURVE SMOOTH",
"187 163 OFFCURVE",
"112 103 OFFCURVE",
"50 -54 CURVE",
"70 -63 LINE",
"112 -5 OFFCURVE",
"142 14 OFFCURVE",
"185 14 CURVE SMOOTH",
"223 14 OFFCURVE",
"268 0 OFFCURVE",
"311 0 CURVE SMOOTH",
"344 0 OFFCURVE",
"380 7 OFFCURVE",
"412 21 CURVE SMOOTH",
"518 66 OFFCURVE",
"564 187 OFFCURVE",
"571 288 CURVE"
);
}
);
width = 791;
}
);
unicode = 1EC79;
script = "";
category = Letter;
},
{
glyphname = ten_siyaq;
lastChange = "2019-09-12 13:59:03 +0000";
layers = (
{
layerId = UUID0;
paths = (
{
closed = 1;
nodes = (
"1744 105 OFFCURVE",
"1800 168 OFFCURVE",
"1866 276 CURVE",
"1848 287 LINE",
"1801 235 OFFCURVE",
"1765 207 OFFCURVE",
"1698 207 CURVE SMOOTH",
"1660 207 OFFCURVE",
"1613 226 OFFCURVE",
"1613 275 CURVE SMOOTH",
"1613 295 OFFCURVE",
"1623 317 OFFCURVE",
"1641 332 CURVE SMOOTH",
"1664 351 OFFCURVE",
"1695 362 OFFCURVE",
"1725 362 CURVE SMOOTH",
"1748 362 OFFCURVE",
"1772 355 OFFCURVE",
"1790 339 CURVE",
"1798 338 LINE",
"1819 349 OFFCURVE",
"1826 369 OFFCURVE",
"1826 386 CURVE SMOOTH",
"1826 426 OFFCURVE",
"1791 444 OFFCURVE",
"1758 444 CURVE SMOOTH",
"1691 444 OFFCURVE",
"1639 392 OFFCURVE",
"1584 329 CURVE SMOOTH",
"1551 291 OFFCURVE",
"1511 234 OFFCURVE",
"1511 186 CURVE SMOOTH",
"1511 175 OFFCURVE",
"1513 169 OFFCURVE",
"1516 160 CURVE",
"1369 137 OFFCURVE",
"1071 131 OFFCURVE",
"915 131 CURVE SMOOTH",
"797 131 OFFCURVE",
"572 138 OFFCURVE",
"413 151 CURVE",
"415 168 OFFCURVE",
"416 207 OFFCURVE",
"416 226 CURVE SMOOTH",
"416 341 OFFCURVE",
"372 472 OFFCURVE",
"261 472 CURVE SMOOTH",
"152 472 OFFCURVE",
"60 316 OFFCURVE",
"60 210 CURVE SMOOTH",
"60 131 OFFCURVE",
"113 58 OFFCURVE",
"231 32 CURVE SMOOTH",
"404 -6 OFFCURVE",
"701 -9 OFFCURVE",
"883 -9 CURVE SMOOTH",
"1218 -9 OFFCURVE",
"1452 9 OFFCURVE",
"1583 52 CURVE SMOOTH"
);
},
{
closed = 1;
nodes = (
"193 172 OFFCURVE",
"112 209 OFFCURVE",
"112 274 CURVE SMOOTH",
"112 323 OFFCURVE",
"176 353 OFFCURVE",
"229 353 CURVE SMOOTH",
"312 353 OFFCURVE",
"371 282 OFFCURVE",
"374 154 CURVE"
);
}
);
width = 1926;
}
);
unicode = 1EC7A;
script = "";
category = Letter;
},
{
glyphname = twenty_siyaq;
lastChange = "2019-09-12 13:59:03 +0000";
layers = (
{
layerId = UUID0;
paths = (
{
closed = 1;
nodes = (
"1125 -9 OFFCURVE",
"1342 6 OFFCURVE",
"1425 162 CURVE",
"1431 95 OFFCURVE",
"1472 23 OFFCURVE",
"1589 23 CURVE SMOOTH",
"1758 23 OFFCURVE",
"1874 155 OFFCURVE",
"1940 263 CURVE",
"1922 274 LINE",
"1880 226 OFFCURVE",
"1841 194 OFFCURVE",
"1772 194 CURVE SMOOTH",
"1734 194 OFFCURVE",
"1687 213 OFFCURVE",
"1687 262 CURVE SMOOTH",
"1687 282 OFFCURVE",
"1697 304 OFFCURVE",
"1715 319 CURVE SMOOTH",
"1738 338 OFFCURVE",
"1769 349 OFFCURVE",
"1799 349 CURVE SMOOTH",
"1822 349 OFFCURVE",
"1846 342 OFFCURVE",
"1864 326 CURVE",
"1872 325 LINE",
"1893 336 OFFCURVE",
"1900 356 OFFCURVE",
"1900 373 CURVE SMOOTH",
"1900 413 OFFCURVE",
"1851 431 OFFCURVE",
"1818 431 CURVE SMOOTH",
"1751 431 OFFCURVE",
"1713 379 OFFCURVE",
"1658 316 CURVE SMOOTH",
"1625 278 OFFCURVE",
"1585 216 OFFCURVE",
"1585 168 CURVE SMOOTH",
"1585 161 OFFCURVE",
"1586 156 OFFCURVE",
"1587 152 CURVE",
"1512 154 OFFCURVE",
"1466 190 OFFCURVE",
"1466 262 CURVE SMOOTH",
"1466 265 OFFCURVE",
"1466 276 OFFCURVE",
"1467 283 CURVE",
"1443 287 LINE",
"1401 143 OFFCURVE",
"1329 131 OFFCURVE",
"827 131 CURVE SMOOTH",
"789 131 OFFCURVE",
"561 133 OFFCURVE",
"413 148 CURVE",
"415 165 OFFCURVE",
"416 204 OFFCURVE",
"416 223 CURVE SMOOTH",
"416 338 OFFCURVE",
"372 469 OFFCURVE",
"261 469 CURVE SMOOTH",
"152 469 OFFCURVE",
"60 313 OFFCURVE",
"60 207 CURVE SMOOTH",
"60 128 OFFCURVE",
"113 54 OFFCURVE",
"231 29 CURVE SMOOTH",
"404 -8 OFFCURVE",
"616 -9 OFFCURVE",
"778 -9 CURVE SMOOTH"
);
},
{
closed = 1;
nodes = (
"195 169 OFFCURVE",
"112 204 OFFCURVE",
"112 271 CURVE SMOOTH",
"112 320 OFFCURVE",
"176 350 OFFCURVE",
"229 350 CURVE SMOOTH",
"312 350 OFFCURVE",
"371 279 OFFCURVE",
"374 151 CURVE"
);
}
);
width = 2000;
}
);
unicode = 1EC7B;
script = "";
category = Letter;
},
{
glyphname = thirty_siyaq;
lastChange = "2019-09-12 13:59:03 +0000";
layers = (
{
layerId = UUID0;
paths = (
{
closed = 1;
nodes = (
"1633 23 CURVE SMOOTH",
"1724 23 OFFCURVE",
"1796 118 OFFCURVE",
"1817 294 CURVE",
"1792 298 LINE",
"1764 190 OFFCURVE",
"1721 146 OFFCURVE",
"1645 146 CURVE SMOOTH",
"1612 146 OFFCURVE",
"1543 155 OFFCURVE",
"1543 259 CURVE SMOOTH",
"1543 262 OFFCURVE",
"1544 274 OFFCURVE",
"1546 287 CURVE",
"1522 291 LINE",
"1491 152 OFFCURVE",
"1365 131 OFFCURVE",
"915 131 CURVE SMOOTH",
"880 131 LINE SMOOTH",
"762 131 OFFCURVE",
"572 134 OFFCURVE",
"413 147 CURVE",
"415 164 OFFCURVE",
"416 203 OFFCURVE",
"416 222 CURVE SMOOTH",
"416 337 OFFCURVE",
"372 468 OFFCURVE",
"261 468 CURVE SMOOTH",
"152 468 OFFCURVE",
"60 312 OFFCURVE",
"60 206 CURVE SMOOTH",
"60 127 OFFCURVE",
"113 52 OFFCURVE",
"231 28 CURVE SMOOTH",
"399 -6 OFFCURVE",
"598 -9 OFFCURVE",
"803 -9 CURVE SMOOTH",
"1229 -9 OFFCURVE",
"1421 19 OFFCURVE",
"1504 176 CURVE",
"1509 54 OFFCURVE",
"1567 23 OFFCURVE"
);
},
{
closed = 1;
nodes = (
"364 151 LINE SMOOTH",
"270 162 OFFCURVE",
"112 181 OFFCURVE",
"112 270 CURVE SMOOTH",
"112 319 OFFCURVE",
"176 349 OFFCURVE",
"229 349 CURVE SMOOTH",
"312 349 OFFCURVE",
"371 278 OFFCURVE",
"374 150 CURVE"
);
}
);
width = 1877;
}
);
unicode = 1EC7C;
script = "";
category = Letter;
},
{
glyphname = forty_siyaq;
lastChange = "2019-09-12 13:59:03 +0000";
layers = (
{
layerId = UUID0;
paths = (
{
closed = 1;
nodes = (
"1725 304 OFFCURVE",
"1764 346 OFFCURVE",
"1781 395 CURVE",
"1790 297 OFFCURVE",
"1830 244 OFFCURVE",
"1900 244 CURVE SMOOTH",
"1988 244 OFFCURVE",
"2038 360 OFFCURVE",
"2061 443 CURVE SMOOTH",
"2085 529 OFFCURVE",
"2095 633 OFFCURVE",
"2099 709 CURVE SMOOTH",
"2105 831 LINE SMOOTH",
"2107 877 OFFCURVE",
"2109 914 OFFCURVE",
"2115 938 CURVE",
"2092 943 LINE",
"2058 872 OFFCURVE",
"2051 843 OFFCURVE",
"2045 808 CURVE SMOOTH",
"2040 776 OFFCURVE",
"2037 744 OFFCURVE",
"2036 704 CURVE SMOOTH",
"2034 605 LINE SMOOTH",
"2033 535 OFFCURVE",
"2031 512 OFFCURVE",
"2026 491 CURVE SMOOTH",
"2012 427 OFFCURVE",
"1975 402 OFFCURVE",
"1937 402 CURVE SMOOTH",
"1855 402 OFFCURVE",
"1847 481 OFFCURVE",
"1847 585 CURVE SMOOTH",
"1847 769 OFFCURVE",
"1857 822 OFFCURVE",
"1866 868 CURVE",
"1843 872 LINE",
"1808 796 OFFCURVE",
"1801 745 OFFCURVE",
"1794 679 CURVE SMOOTH",
"1792 662 OFFCURVE",
"1788 614 OFFCURVE",
"1785 566 CURVE SMOOTH",
"1779 480 OFFCURVE",
"1749 391 OFFCURVE",
"1683 354 CURVE",
"1673 411 OFFCURVE",
"1644 464 OFFCURVE",
"1583 464 CURVE SMOOTH",
"1555 464 OFFCURVE",
"1535 449 OFFCURVE",
"1521 420 CURVE SMOOTH",
"1491 360 LINE SMOOTH",
"1477 333 OFFCURVE",
"1473 309 OFFCURVE",
"1473 292 CURVE SMOOTH",
"1473 246 OFFCURVE",
"1514 222 OFFCURVE",
"1553 222 CURVE SMOOTH",
"1578 222 OFFCURVE",
"1602 228 OFFCURVE",
"1628 240 CURVE",
"1630 235 OFFCURVE",
"1631 228 OFFCURVE",
"1631 223 CURVE SMOOTH",
"1631 196 OFFCURVE",
"1585 180 OFFCURVE",
"1536 172 CURVE SMOOTH",
"1330 137 OFFCURVE",
"1077 131 OFFCURVE",
"791 131 CURVE SMOOTH",
"697 131 OFFCURVE",
"531 132 OFFCURVE",
"413 147 CURVE",
"415 164 OFFCURVE",
"416 203 OFFCURVE",
"416 222 CURVE SMOOTH",
"416 337 OFFCURVE",
"372 468 OFFCURVE",
"261 468 CURVE SMOOTH",
"152 468 OFFCURVE",
"60 312 OFFCURVE",
"60 206 CURVE SMOOTH",
"60 127 OFFCURVE",
"113 53 OFFCURVE",
"231 28 CURVE SMOOTH",
"404 -9 OFFCURVE",
"701 -9 OFFCURVE",
"765 -9 CURVE SMOOTH",
"1147 -9 OFFCURVE",
"1366 10 OFFCURVE",
"1500 51 CURVE SMOOTH",
"1618 87 OFFCURVE",
"1680 172 OFFCURVE",
"1687 273 CURVE"
);
},
{
closed = 1;
nodes = (
"193 167 OFFCURVE",
"112 205 OFFCURVE",
"112 270 CURVE SMOOTH",
"112 319 OFFCURVE",
"176 349 OFFCURVE",
"229 349 CURVE SMOOTH",
"312 349 OFFCURVE",
"371 278 OFFCURVE",
"374 150 CURVE"
);
}
);
width = 2155;
}
);
unicode = 1EC7D;
script = "";
category = Letter;
},
{
glyphname = fifty_siyaq;
lastChange = "2019-09-12 13:59:03 +0000";
layers = (
{
layerId = UUID0;
paths = (
{
closed = 1;
nodes = (
"1924 361 LINE",
"1905 365 OFFCURVE",
"1873 375 OFFCURVE",
"1826 392 CURVE SMOOTH",
"1777 410 OFFCURVE",
"1739 419 OFFCURVE",
"1698 419 CURVE SMOOTH",
"1643 419 OFFCURVE",
"1600 392 OFFCURVE",
"1563 333 CURVE SMOOTH",
"1530 281 OFFCURVE",
"1500 207 OFFCURVE",
"1492 148 CURVE",
"1329 133 OFFCURVE",
"1047 131 OFFCURVE",
"915 131 CURVE SMOOTH",
"797 131 OFFCURVE",
"572 134 OFFCURVE",
"413 147 CURVE",
"415 164 OFFCURVE",
"416 203 OFFCURVE",
"416 222 CURVE SMOOTH",
"416 337 OFFCURVE",
"372 468 OFFCURVE",
"261 468 CURVE SMOOTH",
"152 468 OFFCURVE",
"60 312 OFFCURVE",
"60 206 CURVE SMOOTH",
"60 127 OFFCURVE",
"113 53 OFFCURVE",
"231 28 CURVE SMOOTH",
"405 -9 OFFCURVE",
"701 -9 OFFCURVE",
"883 -9 CURVE SMOOTH",
"1115 -9 OFFCURVE",
"1307 -1 OFFCURVE",
"1459 16 CURVE SMOOTH",
"1652 38 OFFCURVE",
"1735 84 OFFCURVE",
"1820 195 CURVE SMOOTH",
"1858 245 OFFCURVE",
"1895 298 OFFCURVE",
"1927 348 CURVE"
);
},
{
closed = 1;
nodes = (
"193 167 OFFCURVE",
"112 205 OFFCURVE",
"112 270 CURVE SMOOTH",
"112 319 OFFCURVE",
"176 349 OFFCURVE",
"229 349 CURVE SMOOTH",
"312 349 OFFCURVE",
"371 278 OFFCURVE",
"374 150 CURVE"
);
},
{
closed = 1;
nodes = (
"1779 206 OFFCURVE",
"1678 165 OFFCURVE",
"1531 152 CURVE",
"1548 225 OFFCURVE",
"1573 269 OFFCURVE",
"1607 296 CURVE SMOOTH",
"1626 311 OFFCURVE",
"1655 317 OFFCURVE",
"1680 317 CURVE SMOOTH",
"1716 317 OFFCURVE",
"1747 310 OFFCURVE",
"1833 281 CURVE"
);
}
);
width = 1987;
}
);
unicode = 1EC7E;
script = "";
category = Letter;
},
{
glyphname = sixty_siyaq;
lastChange = "2019-09-12 13:59:03 +0000";
layers = (
{
layerId = UUID0;
paths = (
{
closed = 1;
nodes = (
"415 159 OFFCURVE",
"416 198 OFFCURVE",
"416 217 CURVE SMOOTH",
"416 332 OFFCURVE",
"372 463 OFFCURVE",
"261 463 CURVE SMOOTH",
"152 463 OFFCURVE",
"60 307 OFFCURVE",
"60 201 CURVE SMOOTH",
"60 122 OFFCURVE",
"113 49 OFFCURVE",
"231 23 CURVE SMOOTH",
"281 12 OFFCURVE",
"402 -4 OFFCURVE",
"504 -6 CURVE SMOOTH",
"645 -9 OFFCURVE",
"778 -9 OFFCURVE",
"883 -9 CURVE SMOOTH",
"1315 -9 OFFCURVE",
"1488 18 OFFCURVE",
"1594 35 CURVE",
"1655 47 OFFCURVE",
"1838 140 OFFCURVE",
"1862 175 CURVE",
"1852 182 LINE",
"1659 158 OFFCURVE",
"1329 131 OFFCURVE",
"979 131 CURVE SMOOTH",
"721 131 OFFCURVE",
"555 131 OFFCURVE",
"413 142 CURVE"
);
},
{
closed = 1;
nodes = (
"195 162 OFFCURVE",
"112 199 OFFCURVE",
"112 265 CURVE SMOOTH",
"112 314 OFFCURVE",
"176 344 OFFCURVE",
"229 344 CURVE SMOOTH",
"312 344 OFFCURVE",
"371 273 OFFCURVE",
"374 145 CURVE"
);
}
);
width = 1942;
}
);
unicode = 1EC7F;
script = "";
category = Letter;
},
{
glyphname = seventy_siyaq;
lastChange = "2019-09-12 13:59:03 +0000";
layers = (
{
layerId = UUID0;
paths = (
{
closed = 1;
nodes = (
"1706 294 OFFCURVE",
"1723 310 OFFCURVE",
"1743 330 CURVE SMOOTH",
"1779 366 LINE SMOOTH",
"1815 402 OFFCURVE",
"1828 410 OFFCURVE",
"1850 410 CURVE SMOOTH",
"1896 410 OFFCURVE",
"1902 347 OFFCURVE",
"1902 309 CURVE SMOOTH",
"1902 285 OFFCURVE",
"1899 249 OFFCURVE",
"1896 228 CURVE",
"1926 225 LINE",
"1951 292 OFFCURVE",
"1964 353 OFFCURVE",
"1964 405 CURVE SMOOTH",
"1964 464 OFFCURVE",
"1944 519 OFFCURVE",
"1878 519 CURVE SMOOTH",
"1854 519 OFFCURVE",
"1834 504 OFFCURVE",
"1806 471 CURVE SMOOTH",
"1771 429 OFFCURVE",
"1730 375 OFFCURVE",
"1685 346 CURVE",
"1677 426 OFFCURVE",
"1638 467 OFFCURVE",
"1583 467 CURVE SMOOTH",
"1555 467 OFFCURVE",
"1535 452 OFFCURVE",
"1521 423 CURVE SMOOTH",
"1491 363 LINE SMOOTH",
"1478 336 OFFCURVE",
"1473 312 OFFCURVE",
"1473 295 CURVE SMOOTH",
"1473 249 OFFCURVE",
"1514 225 OFFCURVE",
"1553 225 CURVE SMOOTH",
"1576 225 OFFCURVE",
"1601 230 OFFCURVE",
"1628 243 CURVE",
"1630 238 OFFCURVE",
"1631 231 OFFCURVE",
"1631 226 CURVE SMOOTH",
"1631 200 OFFCURVE",
"1599 183 OFFCURVE",
"1536 172 CURVE SMOOTH",
"1330 137 OFFCURVE",
"1076 131 OFFCURVE",
"911 131 CURVE SMOOTH",
"817 131 OFFCURVE",
"531 137 OFFCURVE",
"413 152 CURVE",
"415 169 OFFCURVE",
"416 208 OFFCURVE",
"416 227 CURVE SMOOTH",
"416 342 OFFCURVE",
"372 473 OFFCURVE",
"261 473 CURVE SMOOTH",
"152 473 OFFCURVE",
"60 317 OFFCURVE",
"60 211 CURVE SMOOTH",
"60 132 OFFCURVE",
"113 59 OFFCURVE",
"231 33 CURVE SMOOTH",
"404 -5 OFFCURVE",
"773 -9 OFFCURVE",
"837 -9 CURVE SMOOTH",
"1147 -9 OFFCURVE",
"1366 10 OFFCURVE",
"1500 51 CURVE SMOOTH",
"1617 87 OFFCURVE",
"1680 174 OFFCURVE",
"1687 278 CURVE"
);
},
{
closed = 1;
nodes = (
"196 173 OFFCURVE",
"112 208 OFFCURVE",
"112 275 CURVE SMOOTH",
"112 324 OFFCURVE",
"176 354 OFFCURVE",
"229 354 CURVE SMOOTH",
"312 354 OFFCURVE",
"371 283 OFFCURVE",
"374 155 CURVE"
);
}
);
width = 2024;
}
);
unicode = 1EC80;
script = "";
category = Letter;
},
{
glyphname = eighty_siyaq;
lastChange = "2019-09-12 13:59:03 +0000";
layers = (
{
layerId = UUID0;
paths = (
{
closed = 1;
nodes = (
"196 163 OFFCURVE",
"112 196 OFFCURVE",
"112 264 CURVE SMOOTH",
"112 313 OFFCURVE",
"176 343 OFFCURVE",
"229 343 CURVE SMOOTH",
"312 343 OFFCURVE",
"371 272 OFFCURVE",
"374 144 CURVE"
);
},
{
closed = 1;
nodes = (
"1647 791 OFFCURVE",
"1638 752 OFFCURVE",
"1629 712 CURVE SMOOTH",
"1620 672 OFFCURVE",
"1616 634 OFFCURVE",
"1614 584 CURVE SMOOTH",
"1608 393 OFFCURVE",
"1601 298 OFFCURVE",
"1598 276 CURVE SMOOTH",
"1593 243 OFFCURVE",
"1585 214 OFFCURVE",
"1571 198 CURVE SMOOTH",
"1557 183 OFFCURVE",
"1530 174 OFFCURVE",
"1486 167 CURVE SMOOTH",
"1423 157 OFFCURVE",
"1197 131 OFFCURVE",
"911 131 CURVE SMOOTH",
"603 131 OFFCURVE",
"531 131 OFFCURVE",
"413 141 CURVE",
"415 158 OFFCURVE",
"416 197 OFFCURVE",
"416 216 CURVE SMOOTH",
"416 331 OFFCURVE",
"372 462 OFFCURVE",
"261 462 CURVE SMOOTH",
"152 462 OFFCURVE",
"60 306 OFFCURVE",
"60 200 CURVE SMOOTH",
"60 121 OFFCURVE",
"116 45 OFFCURVE",
"231 22 CURVE SMOOTH",
"301 8 OFFCURVE",
"429 -4 OFFCURVE",
"546 -6 CURVE SMOOTH",
"716 -9 OFFCURVE",
"877 -9 OFFCURVE",
"915 -9 CURVE SMOOTH",
"1219 -9 OFFCURVE",
"1380 25 OFFCURVE",
"1450 46 CURVE SMOOTH",
"1539 73 OFFCURVE",
"1594 130 OFFCURVE",
"1622 201 CURVE SMOOTH",
"1655 285 OFFCURVE",
"1676 364 OFFCURVE",
"1684 533 CURVE SMOOTH",
"1694 741 LINE SMOOTH",
"1697 799 OFFCURVE",
"1700 846 OFFCURVE",
"1706 872 CURVE",
"1685 880 LINE"
);
}
);
width = 1766;
}
);
unicode = 1EC81;
script = "";
category = Letter;
},
{
glyphname = ninety_siyaq;
lastChange = "2019-09-12 13:59:03 +0000";
layers = (
{
layerId = UUID0;
paths = (
{
closed = 1;
nodes = (
"200 162 OFFCURVE",
"112 197 OFFCURVE",
"112 265 CURVE SMOOTH",
"112 314 OFFCURVE",
"176 344 OFFCURVE",
"229 344 CURVE SMOOTH",
"312 344 OFFCURVE",
"371 273 OFFCURVE",
"374 145 CURVE"
);
},
{
closed = 1;
nodes = (
"1630 238 OFFCURVE",
"1631 231 OFFCURVE",
"1631 226 CURVE SMOOTH",
"1631 196 OFFCURVE",
"1585 180 OFFCURVE",
"1536 172 CURVE SMOOTH",
"1330 137 OFFCURVE",
"1077 131 OFFCURVE",
"791 131 CURVE SMOOTH",
"580 131 OFFCURVE",
"487 131 OFFCURVE",
"413 142 CURVE",
"415 159 OFFCURVE",
"416 198 OFFCURVE",
"416 217 CURVE SMOOTH",
"416 332 OFFCURVE",
"372 463 OFFCURVE",
"261 463 CURVE SMOOTH",
"152 463 OFFCURVE",
"60 307 OFFCURVE",
"60 201 CURVE SMOOTH",
"60 121 OFFCURVE",
"117 46 OFFCURVE",
"231 23 CURVE SMOOTH",
"310 7 OFFCURVE",
"410 -3 OFFCURVE",
"509 -6 CURVE SMOOTH",
"621 -9 OFFCURVE",
"731 -9 OFFCURVE",
"765 -9 CURVE SMOOTH",
"1147 -9 OFFCURVE",
"1366 10 OFFCURVE",
"1500 51 CURVE SMOOTH",
"1618 87 OFFCURVE",
"1680 175 OFFCURVE",
"1687 276 CURVE",
"1754 334 OFFCURVE",
"1791 399 OFFCURVE",
"1811 496 CURVE SMOOTH",
"1825 565 OFFCURVE",
"1833 662 OFFCURVE",
"1836 733 CURVE SMOOTH",
"1839 817 OFFCURVE",
"1841 847 OFFCURVE",
"1847 871 CURVE",
"1826 876 LINE",
"1800 825 OFFCURVE",
"1777 777 OFFCURVE",
"1768 717 CURVE SMOOTH",
"1763 682 OFFCURVE",
"1762 635 OFFCURVE",
"1762 598 CURVE SMOOTH",
"1762 555 OFFCURVE",
"1761 499 OFFCURVE",
"1759 481 CURVE SMOOTH",
"1754 431 OFFCURVE",
"1731 388 OFFCURVE",
"1683 357 CURVE",
"1671 414 OFFCURVE",
"1644 467 OFFCURVE",
"1583 467 CURVE SMOOTH",
"1555 467 OFFCURVE",
"1535 452 OFFCURVE",
"1521 423 CURVE SMOOTH",
"1491 363 LINE SMOOTH",
"1478 336 OFFCURVE",
"1473 312 OFFCURVE",
"1473 295 CURVE SMOOTH",
"1473 249 OFFCURVE",
"1514 225 OFFCURVE",
"1553 225 CURVE SMOOTH",
"1578 225 OFFCURVE",
"1602 231 OFFCURVE",
"1628 243 CURVE"
);
}
);
width = 1907;
}
);
unicode = 1EC82;
script = "";
category = Letter;
},
{
glyphname = one_hundred_siyaq;
lastChange = "2019-09-12 13:59:03 +0000";
layers = (
{
layerId = UUID0;
paths = (
{
closed = 1;
nodes = (
"270 0 OFFCURVE",
"325 96 OFFCURVE",
"325 195 CURVE SMOOTH",
"325 227 OFFCURVE",
"311 258 OFFCURVE",
"275 258 CURVE SMOOTH",
"272 258 OFFCURVE",
"269 258 OFFCURVE",
"266 257 CURVE",
"223 161 LINE",
"220 159 OFFCURVE",
"214 158 OFFCURVE",
"211 158 CURVE SMOOTH",
"136 158 OFFCURVE",
"132 236 OFFCURVE",
"132 370 CURVE SMOOTH",
"132 573 OFFCURVE",
"150 767 OFFCURVE",
"163 819 CURVE",
"142 827 LINE",
"111 752 OFFCURVE",
"96 693 OFFCURVE",
"86 611 CURVE SMOOTH",
"66 441 OFFCURVE",
"60 320 OFFCURVE",
"60 215 CURVE SMOOTH",
"60 81 OFFCURVE",
"89 0 OFFCURVE",
"172 0 CURVE SMOOTH"
);
}
);
width = 385;
}
);
unicode = 1EC83;
script = "";
category = Letter;
},
{
glyphname = two_hundred_siyaq;
lastChange = "2019-09-12 13:59:03 +0000";
layers = (
{
layerId = UUID0;
paths = (
{
closed = 1;
nodes = (
"487 834 OFFCURVE",
"467 544 OFFCURVE",
"463 469 CURVE SMOOTH",
"459 391 OFFCURVE",
"457 299 OFFCURVE",
"457 279 CURVE SMOOTH",
"457 207 OFFCURVE",
"419 158 OFFCURVE",
"364 158 CURVE SMOOTH",
"348 158 OFFCURVE",
"330 160 OFFCURVE",
"316 163 CURVE SMOOTH",
"299 167 OFFCURVE",
"283 168 OFFCURVE",
"265 168 CURVE SMOOTH",
"187 168 OFFCURVE",
"112 108 OFFCURVE",
"50 -49 CURVE",
"70 -58 LINE",
"112 0 OFFCURVE",
"141 17 OFFCURVE",
"185 17 CURVE SMOOTH",
"197 17 OFFCURVE",
"223 11 OFFCURVE",
"234 8 CURVE SMOOTH",
"250 3 OFFCURVE",
"265 0 OFFCURVE",
"280 0 CURVE SMOOTH",
"323 0 OFFCURVE",
"367 10 OFFCURVE",
"409 46 CURVE SMOOTH",
"460 90 OFFCURVE",
"485 161 OFFCURVE",
"501 219 CURVE SMOOTH",
"521 291 OFFCURVE",
"526 409 OFFCURVE",
"532 548 CURVE SMOOTH",
"535 614 LINE SMOOTH",
"540 717 OFFCURVE",
"568 740 OFFCURVE",
"611 740 CURVE SMOOTH",
"648 740 OFFCURVE",
"675 715 OFFCURVE",
"675 620 CURVE SMOOTH",
"675 539 OFFCURVE",
"661 324 OFFCURVE",
"661 197 CURVE SMOOTH",
"661 81 OFFCURVE",
"692 9 OFFCURVE",
"768 9 CURVE SMOOTH",
"866 9 OFFCURVE",
"908 98 OFFCURVE",
"908 197 CURVE SMOOTH",
"908 229 OFFCURVE",
"895 258 OFFCURVE",
"859 258 CURVE SMOOTH",
"856 258 OFFCURVE",
"853 258 OFFCURVE",
"850 257 CURVE",
"808 165 LINE",
"805 163 OFFCURVE",
"799 162 OFFCURVE",
"796 162 CURVE SMOOTH",
"739 162 OFFCURVE",
"725 223 OFFCURVE",
"725 352 CURVE SMOOTH",
"725 411 OFFCURVE",
"724 587 OFFCURVE",
"724 627 CURVE SMOOTH",
"724 772 OFFCURVE",
"693 834 OFFCURVE",
"613 834 CURVE SMOOTH"
);
}
);
width = 975;
}
);
unicode = 1EC84;
script = "";
category = Letter;
},
{
glyphname = three_hundred_siyaq;
lastChange = "2019-09-12 13:59:03 +0000";
layers = (
{
layerId = UUID0;
paths = (
{
closed = 1;
nodes = (
"174 217 OFFCURVE",
"166 198 OFFCURVE",
"161 178 CURVE",
"136 211 OFFCURVE",
"132 249 OFFCURVE",
"132 362 CURVE SMOOTH",
"132 532 OFFCURVE",
"149 767 OFFCURVE",
"163 819 CURVE",
"142 827 LINE",
"111 752 OFFCURVE",
"96 693 OFFCURVE",
"86 611 CURVE SMOOTH",
"66 441 OFFCURVE",
"60 320 OFFCURVE",
"60 215 CURVE SMOOTH",
"60 81 OFFCURVE",
"89 0 OFFCURVE",
"172 0 CURVE SMOOTH",
"255 0 OFFCURVE",
"325 82 OFFCURVE",
"325 157 CURVE",
"321 165 LINE",
"317 169 OFFCURVE",
"306 173 OFFCURVE",
"257 181 CURVE SMOOTH",
"230 185 OFFCURVE",
"220 199 OFFCURVE",
"220 213 CURVE SMOOTH",
"220 227 OFFCURVE",
"224 239 OFFCURVE",
"235 257 CURVE SMOOTH",
"255 289 OFFCURVE",
"292 304 OFFCURVE",
"326 304 CURVE SMOOTH",
"365 304 OFFCURVE",
"379 271 OFFCURVE",
"430 271 CURVE SMOOTH",
"489 271 OFFCURVE",
"527 325 OFFCURVE",
"550 411 CURVE",
"527 417 LINE",
"508 378 OFFCURVE",
"491 366 OFFCURVE",
"457 366 CURVE SMOOTH",
"421 366 OFFCURVE",
"404 398 OFFCURVE",
"358 398 CURVE SMOOTH",
"287 398 OFFCURVE",
"228 329 OFFCURVE",
"184 238 CURVE SMOOTH"
);
}
);
width = 607;
}
);
unicode = 1EC85;
script = "";
category = Letter;
},
{
glyphname = four_hundred_siyaq;
lastChange = "2019-09-12 13:59:03 +0000";
layers = (
{
layerId = UUID0;
paths = (
{
closed = 1;
nodes = (
"333 0 OFFCURVE",
"398 19 OFFCURVE",
"454 47 CURVE SMOOTH",
"531 86 OFFCURVE",
"586 135 OFFCURVE",
"632 209 CURVE",
"614 220 LINE",
"581 180 OFFCURVE",
"531 154 OFFCURVE",
"475 154 CURVE SMOOTH",
"437 154 OFFCURVE",
"390 173 OFFCURVE",
"390 222 CURVE SMOOTH",
"390 242 OFFCURVE",
"400 264 OFFCURVE",
"418 279 CURVE SMOOTH",
"441 298 OFFCURVE",
"472 309 OFFCURVE",
"502 309 CURVE SMOOTH",
"525 309 OFFCURVE",
"549 302 OFFCURVE",
"567 286 CURVE",
"575 285 LINE",
"596 296 OFFCURVE",
"603 316 OFFCURVE",
"603 333 CURVE SMOOTH",
"603 373 OFFCURVE",
"568 391 OFFCURVE",
"535 391 CURVE SMOOTH",
"468 391 OFFCURVE",
"416 339 OFFCURVE",
"361 276 CURVE SMOOTH",
"329 240 OFFCURVE",
"291 187 OFFCURVE",
"288 138 CURVE",
"176 138 OFFCURVE",
"133 214 OFFCURVE",
"133 404 CURVE SMOOTH",
"133 655 OFFCURVE",
"149 734 OFFCURVE",
"162 796 CURVE",
"142 804 LINE",
"100 709 OFFCURVE",
"89 646 OFFCURVE",
"79 564 CURVE SMOOTH",
"66 462 OFFCURVE",
"60 404 OFFCURVE",
"60 286 CURVE SMOOTH",
"60 187 OFFCURVE",
"71 124 OFFCURVE",
"105 76 CURVE SMOOTH",
"144 20 OFFCURVE",
"209 0 OFFCURVE",
"275 0 CURVE SMOOTH"
);
},
{
closed = 1;
nodes = (
"756 178 OFFCURVE",
"783 280 OFFCURVE",
"787 365 CURVE SMOOTH",
"797 558 LINE SMOOTH",
"803 674 OFFCURVE",
"810 804 OFFCURVE",
"827 849 CURVE",
"806 857 LINE",
"765 767 OFFCURVE",
"746 713 OFFCURVE",
"737 673 CURVE SMOOTH",
"728 634 OFFCURVE",
"724 581 OFFCURVE",
"722 532 CURVE SMOOTH",
"713 283 LINE SMOOTH",
"710 196 OFFCURVE",
"699 116 OFFCURVE",
"695 94 CURVE",
"717 89 LINE"
);
}
);
width = 887;
}
);
unicode = 1EC86;
script = "";
category = Letter;
},
{
glyphname = five_hundred_siyaq;
lastChange = "2019-09-12 13:59:03 +0000";
layers = (
{
layerId = UUID0;
paths = (
{
closed = 1;
nodes = (
"174 217 OFFCURVE",
"166 198 OFFCURVE",
"161 178 CURVE",
"137 206 OFFCURVE",
"132 263 OFFCURVE",
"132 348 CURVE SMOOTH",
"132 387 LINE SMOOTH",
"132 604 OFFCURVE",
"150 767 OFFCURVE",
"163 819 CURVE",
"142 827 LINE",
"111 752 OFFCURVE",
"96 693 OFFCURVE",
"86 611 CURVE SMOOTH",
"66 441 OFFCURVE",
"60 320 OFFCURVE",
"60 215 CURVE SMOOTH",
"60 81 OFFCURVE",
"89 0 OFFCURVE",
"172 0 CURVE SMOOTH",
"255 0 OFFCURVE",
"325 82 OFFCURVE",
"325 157 CURVE",
"321 165 LINE",
"317 169 OFFCURVE",
"305 173 OFFCURVE",
"256 181 CURVE SMOOTH",
"230 185 OFFCURVE",
"220 199 OFFCURVE",
"220 213 CURVE SMOOTH",
"220 227 OFFCURVE",
"224 238 OFFCURVE",
"235 257 CURVE SMOOTH",
"254 289 OFFCURVE",
"279 296 OFFCURVE",
"307 296 CURVE SMOOTH",
"335 296 OFFCURVE",
"357 285 OFFCURVE",
"377 274 CURVE SMOOTH",
"404 260 OFFCURVE",
"438 243 OFFCURVE",
"480 243 CURVE SMOOTH",
"564 243 OFFCURVE",
"646 290 OFFCURVE",
"714 369 CURVE SMOOTH",
"750 411 OFFCURVE",
"784 456 OFFCURVE",
"813 498 CURVE",
"810 508 LINE",
"795 510 OFFCURVE",
"762 521 OFFCURVE",
"721 535 CURVE SMOOTH",
"677 550 OFFCURVE",
"641 557 OFFCURVE",
"606 557 CURVE SMOOTH",
"511 557 OFFCURVE",
"470 461 OFFCURVE",
"433 367 CURVE",
"418 375 OFFCURVE",
"395 390 OFFCURVE",
"360 390 CURVE SMOOTH",
"282 390 OFFCURVE",
"228 329 OFFCURVE",
"184 238 CURVE SMOOTH"
);
},
{
closed = 1;
nodes = (
"484 418 OFFCURVE",
"521 460 OFFCURVE",
"585 460 CURVE SMOOTH",
"618 460 OFFCURVE",
"659 454 OFFCURVE",
"690 443 CURVE SMOOTH",
"720 432 LINE",
"682 382 OFFCURVE",
"602 349 OFFCURVE",
"523 349 CURVE SMOOTH",
"503 349 OFFCURVE",
"482 351 OFFCURVE",
"460 355 CURVE"
);
}
);
width = 873;
}
);
unicode = 1EC87;
script = "";
category = Letter;
},
{
glyphname = six_hundred_siyaq;
lastChange = "2019-09-12 13:59:03 +0000";
layers = (
{
layerId = UUID0;
paths = (
{
closed = 1;
nodes = (
"904 439 LINE",
"829 389 OFFCURVE",
"764 357 OFFCURVE",
"638 357 CURVE SMOOTH",
"522 357 OFFCURVE",
"466 395 OFFCURVE",
"387 395 CURVE SMOOTH",
"292 395 OFFCURVE",
"225 323 OFFCURVE",
"184 238 CURVE SMOOTH",
"174 217 OFFCURVE",
"166 198 OFFCURVE",
"161 178 CURVE",
"137 206 OFFCURVE",
"132 263 OFFCURVE",
"132 348 CURVE SMOOTH",
"132 387 LINE SMOOTH",
"132 604 OFFCURVE",
"150 767 OFFCURVE",
"163 819 CURVE",
"142 827 LINE",
"111 752 OFFCURVE",
"96 693 OFFCURVE",
"86 611 CURVE SMOOTH",
"66 441 OFFCURVE",
"60 320 OFFCURVE",
"60 215 CURVE SMOOTH",
"60 81 OFFCURVE",
"89 0 OFFCURVE",
"172 0 CURVE SMOOTH",
"255 0 OFFCURVE",
"325 82 OFFCURVE",
"325 157 CURVE",
"321 165 LINE",
"317 169 OFFCURVE",
"305 173 OFFCURVE",
"256 181 CURVE SMOOTH",
"230 185 OFFCURVE",
"220 199 OFFCURVE",
"220 213 CURVE SMOOTH",
"220 227 OFFCURVE",
"225 241 OFFCURVE",
"232 252 CURVE SMOOTH",
"252 285 OFFCURVE",
"287 299 OFFCURVE",
"332 299 CURVE SMOOTH",
"405 299 OFFCURVE",
"464 253 OFFCURVE",
"573 253 CURVE SMOOTH",
"707 253 OFFCURVE",
"817 315 OFFCURVE",
"921 421 CURVE"
);
}
);
width = 971;
}
);
unicode = 1EC88;
script = "";
category = Letter;
},
{
glyphname = seven_hundred_siyaq;
lastChange = "2019-09-12 13:59:03 +0000";
layers = (
{
layerId = UUID0;
paths = (
{
closed = 1;
nodes = (
"246 0 OFFCURVE",
"276 24 OFFCURVE",
"304 56 CURVE SMOOTH",
"327 82 OFFCURVE",
"351 114 OFFCURVE",
"372 143 CURVE SMOOTH",
"399 180 OFFCURVE",
"415 190 OFFCURVE",
"437 190 CURVE SMOOTH",
"455 190 OFFCURVE",
"468 186 OFFCURVE",
"491 173 CURVE SMOOTH",
"508 164 OFFCURVE",
"517 161 OFFCURVE",
"527 161 CURVE SMOOTH",
"569 161 OFFCURVE",
"612 243 OFFCURVE",
"612 277 CURVE SMOOTH",
"612 297 OFFCURVE",
"603 307 OFFCURVE",
"554 336 CURVE SMOOTH",
"539 345 OFFCURVE",
"535 360 OFFCURVE",
"535 373 CURVE SMOOTH",
"535 391 OFFCURVE",
"544 434 OFFCURVE",
"551 460 CURVE SMOOTH",
"569 531 OFFCURVE",
"574 566 OFFCURVE",
"578 614 CURVE SMOOTH",
"583 678 OFFCURVE",
"585 713 OFFCURVE",
"586 769 CURVE SMOOTH",
"587 827 OFFCURVE",
"591 874 OFFCURVE",
"596 900 CURVE",
"575 908 LINE",
"539 819 OFFCURVE",
"530 780 OFFCURVE",
"522 740 CURVE SMOOTH",
"514 700 OFFCURVE",
"510 662 OFFCURVE",
"509 612 CURVE SMOOTH",
"504 431 OFFCURVE",
"502 413 OFFCURVE",
"481 350 CURVE SMOOTH",
"476 336 OFFCURVE",
"471 321 OFFCURVE",
"469 309 CURVE",
"456 301 OFFCURVE",
"445 290 OFFCURVE",
"436 279 CURVE SMOOTH",
"397 231 LINE SMOOTH",
"349 172 OFFCURVE",
"306 158 OFFCURVE",
"256 158 CURVE SMOOTH",
"169 158 OFFCURVE",
"132 220 OFFCURVE",
"132 365 CURVE SMOOTH",
"132 598 OFFCURVE",
"157 761 OFFCURVE",
"168 818 CURVE",
"148 826 LINE",
"106 731 OFFCURVE",
"95 668 OFFCURVE",
"85 586 CURVE SMOOTH",
"65 416 OFFCURVE",
"60 333 OFFCURVE",
"60 215 CURVE SMOOTH",
"60 84 OFFCURVE",
"102 0 OFFCURVE",
"198 0 CURVE SMOOTH"
);
}
);
width = 662;
}
);
unicode = 1EC89;
script = "";
category = Letter;
},
{
glyphname = eight_hundred_siyaq;
lastChange = "2019-09-12 13:59:03 +0000";
layers = (
{
layerId = UUID0;
paths = (
{
closed = 1;
nodes = (
"129 85 OFFCURVE",
"156 0 OFFCURVE",
"264 0 CURVE SMOOTH",
"370 0 OFFCURVE",
"425 125 OFFCURVE",
"455 223 CURVE SMOOTH",
"483 316 OFFCURVE",
"495 445 OFFCURVE",
"500 541 CURVE SMOOTH",
"511 743 LINE SMOOTH",
"514 801 OFFCURVE",
"517 848 OFFCURVE",
"523 874 CURVE",
"500 882 LINE",
"468 807 OFFCURVE",
"455 754 OFFCURVE",
"446 714 CURVE SMOOTH",
"437 674 OFFCURVE",
"432 636 OFFCURVE",
"431 586 CURVE SMOOTH",
"428 411 LINE SMOOTH",
"427 324 OFFCURVE",
"425 286 OFFCURVE",
"420 264 CURVE SMOOTH",
"402 184 OFFCURVE",
"366 158 OFFCURVE",
"313 158 CURVE SMOOTH",
"216 158 OFFCURVE",
"188 247 OFFCURVE",
"188 341 CURVE SMOOTH",
"188 417 OFFCURVE",
"196 529 OFFCURVE",
"196 533 CURVE SMOOTH",
"196 546 OFFCURVE",
"189 551 OFFCURVE",
"167 553 CURVE SMOOTH",
"96 558 OFFCURVE",
"85 623 OFFCURVE",
"85 679 CURVE SMOOTH",
"85 739 OFFCURVE",
"89 802 OFFCURVE",
"95 831 CURVE",
"72 837 LINE",
"46 754 OFFCURVE",
"27 636 OFFCURVE",
"27 574 CURVE SMOOTH",
"27 487 OFFCURVE",
"67 437 OFFCURVE",
"147 428 CURVE",
"137 364 OFFCURVE",
"129 252 OFFCURVE",
"129 216 CURVE SMOOTH"
);
}
);
width = 583;
}
);
unicode = 1EC8A;
script = "";
category = Letter;
},
{
glyphname = nine_hundred_siyaq;
lastChange = "2019-09-12 13:59:03 +0000";
layers = (
{
layerId = UUID0;
paths = (
{
closed = 1;
nodes = (
"741 644 OFFCURVE",
"800 740 OFFCURVE",
"821 916 CURVE",
"797 920 LINE",
"769 812 OFFCURVE",
"735 758 OFFCURVE",
"659 758 CURVE SMOOTH",
"617 758 OFFCURVE",
"560 768 OFFCURVE",
"560 872 CURVE SMOOTH",
"560 874 OFFCURVE",
"560 878 OFFCURVE",
"561 885 CURVE",
"538 889 LINE",
"519 789 OFFCURVE",
"512 720 OFFCURVE",
"509 612 CURVE SMOOTH",
"504 431 OFFCURVE",
"502 413 OFFCURVE",
"481 350 CURVE SMOOTH",
"476 336 OFFCURVE",
"471 321 OFFCURVE",
"469 309 CURVE",
"456 301 OFFCURVE",
"445 290 OFFCURVE",
"436 279 CURVE SMOOTH",
"397 231 LINE SMOOTH",
"349 172 OFFCURVE",
"306 158 OFFCURVE",
"256 158 CURVE SMOOTH",
"169 158 OFFCURVE",
"132 221 OFFCURVE",
"132 366 CURVE SMOOTH",
"132 599 OFFCURVE",
"157 761 OFFCURVE",
"168 818 CURVE",
"145 826 LINE",
"103 731 OFFCURVE",
"95 668 OFFCURVE",
"85 586 CURVE SMOOTH",
"65 416 OFFCURVE",
"60 333 OFFCURVE",
"60 215 CURVE SMOOTH",
"60 84 OFFCURVE",
"102 0 OFFCURVE",
"198 0 CURVE SMOOTH",
"246 0 OFFCURVE",
"276 24 OFFCURVE",
"304 56 CURVE SMOOTH",
"327 82 OFFCURVE",
"351 114 OFFCURVE",
"372 143 CURVE SMOOTH",
"399 180 OFFCURVE",
"415 190 OFFCURVE",
"437 190 CURVE SMOOTH",
"455 190 OFFCURVE",
"468 186 OFFCURVE",
"491 173 CURVE SMOOTH",
"508 164 OFFCURVE",
"517 161 OFFCURVE",
"527 161 CURVE SMOOTH",
"569 161 OFFCURVE",
"612 243 OFFCURVE",
"612 277 CURVE SMOOTH",
"612 297 OFFCURVE",
"603 307 OFFCURVE",
"554 336 CURVE SMOOTH",
"539 345 OFFCURVE",
"535 358 OFFCURVE",
"535 371 CURVE SMOOTH",
"535 386 OFFCURVE",
"538 409 OFFCURVE",
"543 435 CURVE SMOOTH",
"558 514 OFFCURVE",
"562 583 OFFCURVE",
"562 651 CURVE SMOOTH",
"562 683 LINE",
"588 647 OFFCURVE",
"623 644 OFFCURVE",
"650 644 CURVE SMOOTH"
);
}
);
width = 821;
}
);
unicode = 1EC8B;
script = "";
category = Letter;
},
{
glyphname = one_thousand_siyaq;
lastChange = "2019-09-12 13:59:03 +0000";
layers = (
{
layerId = UUID0;
paths = (
{
closed = 1;
nodes = (
"1683 141 LINE",
"1722 230 OFFCURVE",
"1747 332 OFFCURVE",
"1751 417 CURVE SMOOTH",
"1761 611 LINE SMOOTH",
"1767 727 OFFCURVE",
"1776 857 OFFCURVE",
"1791 901 CURVE",
"1768 909 LINE",
"1727 819 OFFCURVE",
"1711 765 OFFCURVE",
"1701 725 CURVE SMOOTH",
"1691 684 OFFCURVE",
"1688 633 OFFCURVE",
"1686 584 CURVE SMOOTH",
"1677 335 LINE SMOOTH",
"1674 248 OFFCURVE",
"1663 168 OFFCURVE",
"1659 146 CURVE"
);
},
{
closed = 1;
nodes = (
"967 -9 OFFCURVE",
"1220 8 OFFCURVE",
"1331 41 CURVE SMOOTH",
"1420 68 OFFCURVE",
"1475 125 OFFCURVE",
"1503 196 CURVE SMOOTH",
"1536 280 OFFCURVE",
"1557 359 OFFCURVE",
"1565 528 CURVE SMOOTH",
"1575 736 LINE SMOOTH",
"1578 794 OFFCURVE",
"1581 841 OFFCURVE",
"1587 867 CURVE",
"1564 875 LINE",
"1526 786 OFFCURVE",
"1517 747 OFFCURVE",
"1508 707 CURVE SMOOTH",
"1499 667 OFFCURVE",
"1497 629 OFFCURVE",
"1495 579 CURVE SMOOTH",
"1489 388 OFFCURVE",
"1483 293 OFFCURVE",
"1479 271 CURVE SMOOTH",
"1473 238 OFFCURVE",
"1466 209 OFFCURVE",
"1452 193 CURVE SMOOTH",
"1438 178 OFFCURVE",
"1411 169 OFFCURVE",
"1367 162 CURVE SMOOTH",
"1304 152 OFFCURVE",
"1159 131 OFFCURVE",
"702 131 CURVE SMOOTH",
"323 131 OFFCURVE",
"168 141 OFFCURVE",
"78 149 CURVE",
"67 141 LINE",
"62 123 OFFCURVE",
"60 101 OFFCURVE",
"60 87 CURVE SMOOTH",
"60 52 OFFCURVE",
"68 14 OFFCURVE",
"149 5 CURVE SMOOTH",
"225 -3 OFFCURVE",
"418 -9 OFFCURVE",
"663 -9 CURVE SMOOTH"
);
}
);
width = 1851;
}
);
unicode = 1EC8C;
script = "";
category = Letter;
},
{
glyphname = two_thousand_siyaq;
lastChange = "2019-09-12 13:59:03 +0000";
layers = (
{
layerId = UUID0;
paths = (
{
closed = 1;
nodes = (
"1454 112 OFFCURVE",
"1428 129 OFFCURVE",
"1392 147 CURVE SMOOTH",
"1377 154 OFFCURVE",
"1372 163 OFFCURVE",
"1372 174 CURVE SMOOTH",
"1372 221 OFFCURVE",
"1447 277 OFFCURVE",
"1510 309 CURVE SMOOTH",
"1568 338 OFFCURVE",
"1582 345 OFFCURVE",
"1636 373 CURVE SMOOTH",
"1650 380 OFFCURVE",
"1671 392 OFFCURVE",
"1681 404 CURVE SMOOTH",
"1698 426 OFFCURVE",
"1709 450 OFFCURVE",
"1716 469 CURVE",
"1703 480 LINE",
"1667 456 OFFCURVE",
"1642 440 OFFCURVE",
"1616 429 CURVE SMOOTH",
"1605 424 OFFCURVE",
"1595 423 OFFCURVE",
"1580 423 CURVE SMOOTH",
"1564 423 OFFCURVE",
"1547 424 OFFCURVE",
"1531 429 CURVE SMOOTH",
"1499 439 OFFCURVE",
"1464 461 OFFCURVE",
"1464 498 CURVE SMOOTH",
"1464 544 OFFCURVE",
"1516 573 OFFCURVE",
"1561 573 CURVE SMOOTH",
"1585 573 OFFCURVE",
"1608 566 OFFCURVE",
"1627 548 CURVE",
"1634 547 LINE",
"1649 555 OFFCURVE",
"1663 574 OFFCURVE",
"1663 599 CURVE SMOOTH",
"1663 633 OFFCURVE",
"1629 651 OFFCURVE",
"1594 651 CURVE SMOOTH",
"1537 651 OFFCURVE",
"1481 605 OFFCURVE",
"1436 559 CURVE SMOOTH",
"1402 525 OFFCURVE",
"1364 475 OFFCURVE",
"1364 418 CURVE SMOOTH",
"1364 379 OFFCURVE",
"1389 340 OFFCURVE",
"1429 321 CURVE",
"1386 286 OFFCURVE",
"1311 225 OFFCURVE",
"1286 152 CURVE",
"1194 145 OFFCURVE",
"1034 131 OFFCURVE",
"702 131 CURVE SMOOTH",
"323 131 OFFCURVE",
"168 141 OFFCURVE",
"78 149 CURVE",
"67 141 LINE",
"62 123 OFFCURVE",
"60 101 OFFCURVE",
"60 87 CURVE SMOOTH",
"60 52 OFFCURVE",
"68 14 OFFCURVE",
"149 5 CURVE SMOOTH",
"225 -3 OFFCURVE",
"418 -9 OFFCURVE",
"663 -9 CURVE SMOOTH",
"967 -9 OFFCURVE",
"1235 13 OFFCURVE",
"1280 13 CURVE SMOOTH",
"1298 13 OFFCURVE",
"1311 8 OFFCURVE",
"1334 -4 CURVE SMOOTH",
"1350 -12 OFFCURVE",
"1360 -16 OFFCURVE",
"1370 -16 CURVE SMOOTH",
"1412 -16 OFFCURVE",
"1454 54 OFFCURVE",
"1454 88 CURVE SMOOTH"
);
},
{
closed = 1;
nodes = (
"1796 28 LINE",
"1835 117 OFFCURVE",
"1860 219 OFFCURVE",
"1864 304 CURVE SMOOTH",
"1874 498 LINE SMOOTH",
"1880 614 OFFCURVE",
"1889 744 OFFCURVE",
"1904 788 CURVE",
"1881 796 LINE",
"1840 706 OFFCURVE",
"1824 652 OFFCURVE",
"1814 612 CURVE SMOOTH",
"1804 573 OFFCURVE",
"1801 520 OFFCURVE",
"1799 471 CURVE SMOOTH",
"1790 222 LINE SMOOTH",
"1787 135 OFFCURVE",
"1776 55 OFFCURVE",
"1772 33 CURVE"
);
}
);
width = 1964;
}
);
unicode = 1EC8D;
script = "";
category = Letter;
},
{
glyphname = three_thousand_siyaq;
lastChange = "2019-09-12 13:59:03 +0000";
layers = (
{
layerId = UUID0;
paths = (
{
closed = 1;
nodes = (
"1654 192 OFFCURVE",
"1723 287 OFFCURVE",
"1744 463 CURVE",
"1719 467 LINE",
"1691 359 OFFCURVE",
"1648 315 OFFCURVE",
"1572 315 CURVE SMOOTH",
"1539 315 OFFCURVE",
"1467 324 OFFCURVE",
"1467 428 CURVE SMOOTH",
"1467 431 OFFCURVE",
"1468 443 OFFCURVE",
"1470 456 CURVE",
"1449 459 LINE",
"1443 445 OFFCURVE",
"1436 420 OFFCURVE",
"1432 401 CURVE SMOOTH",
"1422 352 OFFCURVE",
"1409 316 OFFCURVE",
"1395 293 CURVE SMOOTH",
"1362 239 OFFCURVE",
"1320 203 OFFCURVE",
"1300 163 CURVE SMOOTH",
"1295 153 LINE",
"1208 145 OFFCURVE",
"975 131 OFFCURVE",
"702 131 CURVE SMOOTH",
"323 131 OFFCURVE",
"168 141 OFFCURVE",
"78 149 CURVE",
"67 141 LINE",
"62 123 OFFCURVE",
"60 101 OFFCURVE",
"60 87 CURVE SMOOTH",
"60 52 OFFCURVE",
"68 14 OFFCURVE",
"149 5 CURVE SMOOTH",
"225 -3 OFFCURVE",
"418 -9 OFFCURVE",
"663 -9 CURVE SMOOTH",
"967 -9 OFFCURVE",
"1235 13 OFFCURVE",
"1280 13 CURVE SMOOTH",
"1298 13 OFFCURVE",
"1311 9 OFFCURVE",
"1334 -4 CURVE SMOOTH",
"1350 -13 OFFCURVE",
"1360 -16 OFFCURVE",
"1370 -16 CURVE SMOOTH",
"1412 -16 OFFCURVE",
"1454 54 OFFCURVE",
"1454 87 CURVE SMOOTH",
"1454 112 OFFCURVE",
"1439 129 OFFCURVE",
"1401 145 CURVE SMOOTH",
"1385 152 OFFCURVE",
"1371 159 OFFCURVE",
"1371 174 CURVE SMOOTH",
"1371 184 OFFCURVE",
"1374 192 OFFCURVE",
"1380 201 CURVE SMOOTH",
"1403 236 OFFCURVE",
"1420 257 OFFCURVE",
"1435 291 CURVE",
"1449 225 OFFCURVE",
"1495 192 OFFCURVE",
"1563 192 CURVE SMOOTH"
);
}
);
width = 1804;
}
);
unicode = 1EC8E;
script = "";
category = Letter;
},
{
glyphname = four_thousand_siyaq;
lastChange = "2019-09-12 13:59:03 +0000";
layers = (
{
layerId = UUID0;
paths = (
{
closed = 1;
nodes = (
"1652 217 OFFCURVE",
"1708 277 OFFCURVE",
"1741 363 CURVE",
"1750 268 OFFCURVE",
"1788 214 OFFCURVE",
"1860 214 CURVE SMOOTH",
"1948 214 OFFCURVE",
"1999 331 OFFCURVE",
"2021 413 CURVE SMOOTH",
"2044 499 OFFCURVE",
"2055 603 OFFCURVE",
"2059 679 CURVE SMOOTH",
"2065 801 LINE SMOOTH",
"2067 847 OFFCURVE",
"2069 884 OFFCURVE",
"2075 908 CURVE",
"2052 913 LINE",
"2018 842 OFFCURVE",
"2011 813 OFFCURVE",
"2005 778 CURVE SMOOTH",
"2000 746 OFFCURVE",
"1997 714 OFFCURVE",
"1996 674 CURVE SMOOTH",
"1994 575 LINE SMOOTH",
"1993 505 OFFCURVE",
"1991 482 OFFCURVE",
"1986 461 CURVE SMOOTH",
"1972 397 OFFCURVE",
"1935 372 OFFCURVE",
"1897 372 CURVE SMOOTH",
"1815 372 OFFCURVE",
"1807 451 OFFCURVE",
"1807 555 CURVE SMOOTH",
"1807 739 OFFCURVE",
"1817 792 OFFCURVE",
"1826 838 CURVE",
"1803 842 LINE",
"1768 766 OFFCURVE",
"1761 705 OFFCURVE",
"1754 639 CURVE SMOOTH",
"1752 622 OFFCURVE",
"1749 584 OFFCURVE",
"1745 536 CURVE SMOOTH",
"1737 440 OFFCURVE",
"1700 303 OFFCURVE",
"1576 303 CURVE SMOOTH",
"1568 303 OFFCURVE",
"1557 304 OFFCURVE",
"1551 306 CURVE",
"1584 340 OFFCURVE",
"1606 364 OFFCURVE",
"1606 399 CURVE SMOOTH",
"1606 454 OFFCURVE",
"1543 474 OFFCURVE",
"1494 474 CURVE SMOOTH",
"1424 474 OFFCURVE",
"1365 439 OFFCURVE",
"1338 381 CURVE",
"1344 371 LINE",
"1349 372 OFFCURVE",
"1354 372 OFFCURVE",
"1358 372 CURVE SMOOTH",
"1395 372 OFFCURVE",
"1416 347 OFFCURVE",
"1435 312 CURVE",
"1379 278 OFFCURVE",
"1336 216 OFFCURVE",
"1311 154 CURVE",
"1228 148 OFFCURVE",
"1070 131 OFFCURVE",
"702 131 CURVE SMOOTH",
"323 131 OFFCURVE",
"168 141 OFFCURVE",
"78 149 CURVE",
"67 141 LINE",
"62 123 OFFCURVE",
"60 101 OFFCURVE",
"60 87 CURVE SMOOTH",
"60 52 OFFCURVE",
"68 14 OFFCURVE",
"149 5 CURVE SMOOTH",
"225 -3 OFFCURVE",
"418 -9 OFFCURVE",
"663 -9 CURVE SMOOTH",
"803 -9 OFFCURVE",
"938 -6 OFFCURVE",
"1045 1 CURVE SMOOTH",
"1168 9 OFFCURVE",
"1254 13 OFFCURVE",
"1281 13 CURVE SMOOTH",
"1299 13 OFFCURVE",
"1311 9 OFFCURVE",
"1334 -4 CURVE SMOOTH",
"1350 -13 OFFCURVE",
"1360 -16 OFFCURVE",
"1370 -16 CURVE SMOOTH",
"1412 -16 OFFCURVE",
"1454 54 OFFCURVE",
"1454 88 CURVE SMOOTH",
"1454 112 OFFCURVE",
"1439 120 OFFCURVE",
"1395 143 CURVE SMOOTH",
"1380 151 OFFCURVE",
"1373 158 OFFCURVE",
"1373 169 CURVE SMOOTH",
"1373 173 OFFCURVE",
"1374 181 OFFCURVE",
"1379 190 CURVE SMOOTH",
"1395 218 OFFCURVE",
"1419 238 OFFCURVE",
"1465 256 CURVE",
"1483 234 OFFCURVE",
"1519 217 OFFCURVE",
"1554 217 CURVE SMOOTH"
);
}
);
width = 2135;
}
);
unicode = 1EC8F;
script = "";
category = Letter;
},
{
glyphname = five_thousand_siyaq;
lastChange = "2019-09-12 13:59:03 +0000";
layers = (
{
layerId = UUID0;
paths = (
{
closed = 1;
nodes = (
"1657 376 OFFCURVE",
"1694 416 OFFCURVE",
"1758 416 CURVE SMOOTH",
"1791 416 OFFCURVE",
"1825 412 OFFCURVE",
"1856 401 CURVE SMOOTH",
"1893 388 LINE",
"1855 338 OFFCURVE",
"1775 305 OFFCURVE",
"1696 305 CURVE SMOOTH",
"1676 305 OFFCURVE",
"1652 307 OFFCURVE",
"1633 313 CURVE"
);
},
{
closed = 1;
nodes = (
"1373 183 OFFCURVE",
"1378 195 OFFCURVE",
"1391 213 CURVE SMOOTH",
"1414 245 OFFCURVE",
"1447 252 OFFCURVE",
"1475 252 CURVE SMOOTH",
"1499 252 OFFCURVE",
"1524 244 OFFCURVE",
"1550 230 CURVE SMOOTH",
"1577 216 OFFCURVE",
"1611 199 OFFCURVE",
"1653 199 CURVE SMOOTH",
"1736 199 OFFCURVE",
"1813 241 OFFCURVE",
"1882 319 CURVE SMOOTH",
"1917 358 OFFCURVE",
"1958 412 OFFCURVE",
"1986 454 CURVE",
"1983 464 LINE",
"1967 466 OFFCURVE",
"1937 476 OFFCURVE",
"1894 491 CURVE SMOOTH",
"1850 506 OFFCURVE",
"1814 513 OFFCURVE",
"1779 513 CURVE SMOOTH",
"1684 513 OFFCURVE",
"1638 417 OFFCURVE",
"1601 323 CURVE",
"1580 334 OFFCURVE",
"1559 345 OFFCURVE",
"1525 345 CURVE SMOOTH",
"1456 345 OFFCURVE",
"1387 288 OFFCURVE",
"1318 154 CURVE",
"1235 148 OFFCURVE",
"1070 131 OFFCURVE",
"702 131 CURVE SMOOTH",
"323 131 OFFCURVE",
"168 141 OFFCURVE",
"78 149 CURVE",
"67 141 LINE",
"62 123 OFFCURVE",
"60 101 OFFCURVE",
"60 87 CURVE SMOOTH",
"60 52 OFFCURVE",
"68 14 OFFCURVE",
"149 5 CURVE SMOOTH",
"225 -3 OFFCURVE",
"418 -9 OFFCURVE",
"663 -9 CURVE SMOOTH",
"963 -9 OFFCURVE",
"1229 13 OFFCURVE",
"1280 13 CURVE SMOOTH",
"1298 13 OFFCURVE",
"1311 9 OFFCURVE",
"1334 -4 CURVE SMOOTH",
"1350 -13 OFFCURVE",
"1360 -16 OFFCURVE",
"1370 -16 CURVE SMOOTH",
"1412 -16 OFFCURVE",
"1454 54 OFFCURVE",
"1454 88 CURVE SMOOTH",
"1454 112 OFFCURVE",
"1439 120 OFFCURVE",
"1395 143 CURVE SMOOTH",
"1380 151 OFFCURVE",
"1373 158 OFFCURVE",
"1373 169 CURVE SMOOTH"
);
}
);
width = 2026;
}
);
unicode = 1EC90;
script = "";
category = Letter;
},
{
glyphname = six_thousand_siyaq;
lastChange = "2019-09-12 13:59:03 +0000";
layers = (
{
layerId = UUID0;
paths = (
{
closed = 1;
nodes = (
"1908 404 LINE",
"1832 319 OFFCURVE",
"1806 305 OFFCURVE",
"1727 305 CURVE SMOOTH",
"1641 305 OFFCURVE",
"1593 346 OFFCURVE",
"1533 346 CURVE SMOOTH",
"1455 346 OFFCURVE",
"1387 288 OFFCURVE",
"1318 154 CURVE",
"1235 148 OFFCURVE",
"1070 131 OFFCURVE",
"702 131 CURVE SMOOTH",
"323 131 OFFCURVE",
"168 141 OFFCURVE",
"78 149 CURVE",
"67 141 LINE",
"62 123 OFFCURVE",
"60 101 OFFCURVE",
"60 87 CURVE SMOOTH",
"60 52 OFFCURVE",
"68 14 OFFCURVE",
"149 5 CURVE SMOOTH",
"225 -3 OFFCURVE",
"418 -9 OFFCURVE",
"663 -9 CURVE SMOOTH",
"963 -9 OFFCURVE",
"1228 13 OFFCURVE",
"1280 13 CURVE SMOOTH",
"1298 13 OFFCURVE",
"1313 8 OFFCURVE",
"1334 -4 CURVE SMOOTH",
"1350 -13 OFFCURVE",
"1363 -16 OFFCURVE",
"1370 -16 CURVE SMOOTH",
"1412 -16 OFFCURVE",
"1454 54 OFFCURVE",
"1454 88 CURVE SMOOTH",
"1454 112 OFFCURVE",
"1439 120 OFFCURVE",
"1395 143 CURVE SMOOTH",
"1380 151 OFFCURVE",
"1373 158 OFFCURVE",
"1373 169 CURVE SMOOTH",
"1373 183 OFFCURVE",
"1378 195 OFFCURVE",
"1391 213 CURVE SMOOTH",
"1414 245 OFFCURVE",
"1445 252 OFFCURVE",
"1470 252 CURVE SMOOTH",
"1498 252 OFFCURVE",
"1523 244 OFFCURVE",
"1550 231 CURVE SMOOTH",
"1589 212 OFFCURVE",
"1631 199 OFFCURVE",
"1673 199 CURVE SMOOTH",
"1793 199 OFFCURVE",
"1842 266 OFFCURVE",
"1929 384 CURVE"
);
}
);
width = 1989;
}
);
unicode = 1EC91;
script = "";
category = Letter;
},
{
glyphname = seven_thousand_siyaq;
lastChange = "2019-09-12 13:59:03 +0000";
layers = (
{
layerId = UUID0;
paths = (
{
closed = 1;
nodes = (
"1768 388 OFFCURVE",
"1790 406 OFFCURVE",
"1812 406 CURVE SMOOTH",
"1858 406 OFFCURVE",
"1863 359 OFFCURVE",
"1863 321 CURVE SMOOTH",
"1863 297 OFFCURVE",
"1859 262 OFFCURVE",
"1856 241 CURVE",
"1886 237 LINE",
"1911 304 OFFCURVE",
"1924 370 OFFCURVE",
"1924 406 CURVE SMOOTH",
"1924 456 OFFCURVE",
"1906 515 OFFCURVE",
"1840 515 CURVE SMOOTH",
"1816 515 OFFCURVE",
"1793 506 OFFCURVE",
"1767 471 CURVE SMOOTH",
"1724 414 OFFCURVE",
"1695 355 OFFCURVE",
"1651 324 CURVE SMOOTH",
"1628 308 OFFCURVE",
"1605 303 OFFCURVE",
"1576 303 CURVE SMOOTH",
"1568 303 OFFCURVE",
"1557 304 OFFCURVE",
"1551 306 CURVE",
"1584 340 OFFCURVE",
"1606 364 OFFCURVE",
"1606 399 CURVE SMOOTH",
"1606 454 OFFCURVE",
"1543 474 OFFCURVE",
"1494 474 CURVE SMOOTH",
"1424 474 OFFCURVE",
"1365 439 OFFCURVE",
"1338 381 CURVE",
"1344 371 LINE",
"1349 372 OFFCURVE",
"1354 372 OFFCURVE",
"1358 372 CURVE SMOOTH",
"1395 372 OFFCURVE",
"1416 347 OFFCURVE",
"1435 312 CURVE",
"1379 278 OFFCURVE",
"1336 216 OFFCURVE",
"1311 154 CURVE",
"1228 148 OFFCURVE",
"1070 131 OFFCURVE",
"702 131 CURVE SMOOTH",
"323 131 OFFCURVE",
"168 141 OFFCURVE",
"78 149 CURVE",
"67 141 LINE",
"62 123 OFFCURVE",
"60 101 OFFCURVE",
"60 87 CURVE SMOOTH",
"60 52 OFFCURVE",
"68 14 OFFCURVE",
"149 5 CURVE SMOOTH",
"225 -3 OFFCURVE",
"418 -9 OFFCURVE",
"663 -9 CURVE SMOOTH",
"963 -9 OFFCURVE",
"1238 13 OFFCURVE",
"1280 13 CURVE SMOOTH",
"1298 13 OFFCURVE",
"1312 8 OFFCURVE",
"1334 -4 CURVE SMOOTH",
"1351 -13 OFFCURVE",
"1360 -16 OFFCURVE",
"1370 -16 CURVE SMOOTH",
"1412 -16 OFFCURVE",
"1454 54 OFFCURVE",
"1454 88 CURVE SMOOTH",
"1454 112 OFFCURVE",
"1439 120 OFFCURVE",
"1395 143 CURVE SMOOTH",
"1380 151 OFFCURVE",
"1373 158 OFFCURVE",
"1373 169 CURVE SMOOTH",
"1373 173 OFFCURVE",
"1374 181 OFFCURVE",
"1379 190 CURVE SMOOTH",
"1395 218 OFFCURVE",
"1419 238 OFFCURVE",
"1465 256 CURVE",
"1483 234 OFFCURVE",
"1519 217 OFFCURVE",
"1554 217 CURVE SMOOTH",
"1626 217 OFFCURVE",
"1674 261 OFFCURVE",
"1741 352 CURVE SMOOTH"
);
}
);
width = 1984;
}
);
unicode = 1EC92;
script = "";
category = Letter;
},
{
glyphname = eight_thousand_siyaq;
lastChange = "2019-09-12 13:59:03 +0000";
layers = (
{
layerId = UUID0;
paths = (
{
closed = 1;
nodes = (
"1636 212 OFFCURVE",
"1677 252 OFFCURVE",
"1750 353 CURVE SMOOTH",
"1784 399 OFFCURVE",
"1806 406 OFFCURVE",
"1828 406 CURVE SMOOTH",
"1874 406 OFFCURVE",
"1877 359 OFFCURVE",
"1877 321 CURVE SMOOTH",
"1877 297 OFFCURVE",
"1873 262 OFFCURVE",
"1870 241 CURVE",
"1900 237 LINE",
"1925 304 OFFCURVE",
"1937 365 OFFCURVE",
"1937 409 CURVE SMOOTH",
"1937 466 OFFCURVE",
"1915 515 OFFCURVE",
"1859 515 CURVE SMOOTH",
"1836 515 OFFCURVE",
"1815 507 OFFCURVE",
"1791 476 CURVE SMOOTH",
"1772 452 OFFCURVE",
"1756 428 OFFCURVE",
"1740 407 CURVE SMOOTH",
"1704 360 OFFCURVE",
"1666 325 OFFCURVE",
"1590 325 CURVE SMOOTH",
"1525 325 OFFCURVE",
"1469 356 OFFCURVE",
"1469 440 CURVE SMOOTH",
"1469 442 OFFCURVE",
"1469 444 OFFCURVE",
"1470 456 CURVE",
"1449 459 LINE",
"1443 445 OFFCURVE",
"1436 420 OFFCURVE",
"1432 401 CURVE SMOOTH",
"1422 352 OFFCURVE",
"1409 316 OFFCURVE",
"1395 293 CURVE SMOOTH",
"1362 240 OFFCURVE",
"1320 203 OFFCURVE",
"1300 163 CURVE SMOOTH",
"1295 153 LINE",
"1208 145 OFFCURVE",
"975 131 OFFCURVE",
"702 131 CURVE SMOOTH",
"323 131 OFFCURVE",
"168 141 OFFCURVE",
"78 149 CURVE",
"67 141 LINE",
"62 123 OFFCURVE",
"60 101 OFFCURVE",
"60 87 CURVE SMOOTH",
"60 52 OFFCURVE",
"68 14 OFFCURVE",
"149 5 CURVE SMOOTH",
"225 -3 OFFCURVE",
"418 -9 OFFCURVE",
"663 -9 CURVE SMOOTH",
"967 -9 OFFCURVE",
"1235 13 OFFCURVE",
"1280 13 CURVE SMOOTH",
"1298 13 OFFCURVE",
"1312 8 OFFCURVE",
"1334 -4 CURVE SMOOTH",
"1350 -13 OFFCURVE",
"1363 -16 OFFCURVE",
"1370 -16 CURVE SMOOTH",
"1412 -16 OFFCURVE",
"1454 54 OFFCURVE",
"1454 87 CURVE SMOOTH",
"1454 112 OFFCURVE",
"1439 129 OFFCURVE",
"1401 145 CURVE SMOOTH",
"1385 152 OFFCURVE",
"1371 159 OFFCURVE",
"1371 174 CURVE SMOOTH",
"1371 184 OFFCURVE",
"1374 192 OFFCURVE",
"1380 201 CURVE SMOOTH",
"1403 237 OFFCURVE",
"1420 255 OFFCURVE",
"1435 291 CURVE",
"1454 244 OFFCURVE",
"1500 212 OFFCURVE",
"1558 212 CURVE SMOOTH"
);
}
);
width = 1997;
}
);
unicode = 1EC93;
script = "";
category = Letter;
},
{
glyphname = nine_thousand_siyaq;
lastChange = "2019-09-12 13:59:03 +0000";
layers = (
{
layerId = UUID0;
paths = (
{
closed = 1;
nodes = (
"1568 303 OFFCURVE",
"1557 304 OFFCURVE",
"1551 306 CURVE",
"1584 340 OFFCURVE",
"1606 364 OFFCURVE",
"1606 399 CURVE SMOOTH",
"1606 454 OFFCURVE",
"1543 474 OFFCURVE",
"1494 474 CURVE SMOOTH",
"1424 474 OFFCURVE",
"1365 439 OFFCURVE",
"1338 381 CURVE",
"1344 371 LINE",
"1349 372 OFFCURVE",
"1354 372 OFFCURVE",
"1358 372 CURVE SMOOTH",
"1395 372 OFFCURVE",
"1416 347 OFFCURVE",
"1435 312 CURVE",
"1379 278 OFFCURVE",
"1336 216 OFFCURVE",
"1311 154 CURVE",
"1228 148 OFFCURVE",
"1070 131 OFFCURVE",
"702 131 CURVE SMOOTH",
"323 131 OFFCURVE",
"168 141 OFFCURVE",
"78 149 CURVE",
"67 141 LINE",
"62 123 OFFCURVE",
"60 101 OFFCURVE",
"60 87 CURVE SMOOTH",
"60 52 OFFCURVE",
"68 14 OFFCURVE",
"149 5 CURVE SMOOTH",
"225 -3 OFFCURVE",
"418 -9 OFFCURVE",
"663 -9 CURVE SMOOTH",
"963 -9 OFFCURVE",
"1239 13 OFFCURVE",
"1280 13 CURVE SMOOTH",
"1298 13 OFFCURVE",
"1312 8 OFFCURVE",
"1334 -4 CURVE SMOOTH",
"1351 -13 OFFCURVE",
"1360 -16 OFFCURVE",
"1370 -16 CURVE SMOOTH",
"1412 -16 OFFCURVE",
"1454 54 OFFCURVE",
"1454 88 CURVE SMOOTH",
"1454 112 OFFCURVE",
"1439 120 OFFCURVE",
"1395 143 CURVE SMOOTH",
"1380 151 OFFCURVE",
"1373 158 OFFCURVE",
"1373 169 CURVE SMOOTH",
"1373 173 OFFCURVE",
"1374 181 OFFCURVE",
"1379 190 CURVE SMOOTH",
"1395 218 OFFCURVE",
"1419 238 OFFCURVE",
"1465 256 CURVE",
"1483 234 OFFCURVE",
"1519 217 OFFCURVE",
"1554 217 CURVE SMOOTH",
"1684 217 OFFCURVE",
"1760 346 OFFCURVE",
"1785 468 CURVE SMOOTH",
"1799 537 OFFCURVE",
"1807 634 OFFCURVE",
"1810 705 CURVE SMOOTH",
"1811 729 LINE SMOOTH",
"1813 784 OFFCURVE",
"1815 819 OFFCURVE",
"1821 843 CURVE",
"1800 848 LINE",
"1774 797 OFFCURVE",
"1751 749 OFFCURVE",
"1742 689 CURVE SMOOTH",
"1737 654 OFFCURVE",
"1736 607 OFFCURVE",
"1736 570 CURVE SMOOTH",
"1736 527 OFFCURVE",
"1735 471 OFFCURVE",
"1733 453 CURVE SMOOTH",
"1728 403 OFFCURVE",
"1703 359 OFFCURVE",
"1656 327 CURVE SMOOTH",
"1635 312 OFFCURVE",
"1608 303 OFFCURVE",
"1576 303 CURVE SMOOTH"
);
}
);
width = 1881;
}
);
unicode = 1EC94;
script = "";
category = Letter;
},
{
glyphname = ten_thousand_siyaq;
lastChange = "2019-09-12 13:59:03 +0000";
layers = (
{
layerId = UUID0;
paths = (
{
closed = 1;
nodes = (
"883 -9 LINE SMOOTH",
"1218 -9 OFFCURVE",
"1512 5 OFFCURVE",
"1643 48 CURVE SMOOTH",
"1804 101 OFFCURVE",
"1863 163 OFFCURVE",
"1929 271 CURVE",
"1908 283 LINE",
"1865 235 OFFCURVE",
"1828 203 OFFCURVE",
"1758 203 CURVE SMOOTH",
"1720 203 OFFCURVE",
"1673 222 OFFCURVE",
"1673 271 CURVE SMOOTH",
"1673 291 OFFCURVE",
"1683 313 OFFCURVE",
"1701 328 CURVE SMOOTH",
"1724 347 OFFCURVE",
"1755 358 OFFCURVE",
"1785 358 CURVE SMOOTH",
"1808 358 OFFCURVE",
"1832 351 OFFCURVE",
"1850 335 CURVE",
"1858 334 LINE",
"1879 345 OFFCURVE",
"1886 365 OFFCURVE",
"1886 382 CURVE SMOOTH",
"1886 422 OFFCURVE",
"1851 440 OFFCURVE",
"1818 440 CURVE SMOOTH",
"1751 440 OFFCURVE",
"1699 388 OFFCURVE",
"1644 325 CURVE SMOOTH",
"1611 287 OFFCURVE",
"1571 230 OFFCURVE",
"1571 182 CURVE SMOOTH",
"1571 171 OFFCURVE",
"1573 165 OFFCURVE",
"1576 156 CURVE",
"1429 141 OFFCURVE",
"1071 131 OFFCURVE",
"915 131 CURVE SMOOTH",
"609 131 OFFCURVE",
"321 134 OFFCURVE",
"78 149 CURVE",
"67 141 LINE",
"62 123 OFFCURVE",
"60 101 OFFCURVE",
"60 87 CURVE SMOOTH",
"60 52 OFFCURVE",
"68 14 OFFCURVE",
"149 5 CURVE SMOOTH",
"225 -3 OFFCURVE",
"418 -9 OFFCURVE",
"663 -9 CURVE"
);
}
);
width = 1989;
}
);
unicode = 1EC95;
script = "";
category = Letter;
},
{
glyphname = twenty_thousand_siyaq;
lastChange = "2019-09-12 13:59:03 +0000";
layers = (
{
layerId = UUID0;
paths = (
{
closed = 1;
nodes = (
"783 -9 LINE SMOOTH",
"1209 -9 OFFCURVE",
"1426 6 OFFCURVE",
"1509 163 CURVE",
"1514 95 OFFCURVE",
"1556 23 OFFCURVE",
"1673 23 CURVE SMOOTH",
"1842 23 OFFCURVE",
"1962 154 OFFCURVE",
"2028 262 CURVE",
"2006 274 LINE",
"1961 222 OFFCURVE",
"1921 194 OFFCURVE",
"1856 194 CURVE SMOOTH",
"1818 194 OFFCURVE",
"1771 213 OFFCURVE",
"1771 262 CURVE SMOOTH",
"1771 282 OFFCURVE",
"1781 304 OFFCURVE",
"1799 319 CURVE SMOOTH",
"1822 338 OFFCURVE",
"1853 349 OFFCURVE",
"1883 349 CURVE SMOOTH",
"1906 349 OFFCURVE",
"1930 342 OFFCURVE",
"1948 326 CURVE",
"1956 325 LINE",
"1977 336 OFFCURVE",
"1984 356 OFFCURVE",
"1984 373 CURVE SMOOTH",
"1984 413 OFFCURVE",
"1949 431 OFFCURVE",
"1916 431 CURVE SMOOTH",
"1849 431 OFFCURVE",
"1797 379 OFFCURVE",
"1742 316 CURVE SMOOTH",
"1709 278 OFFCURVE",
"1669 216 OFFCURVE",
"1669 168 CURVE SMOOTH",
"1669 161 OFFCURVE",
"1670 156 OFFCURVE",
"1671 152 CURVE",
"1596 154 OFFCURVE",
"1550 190 OFFCURVE",
"1550 262 CURVE SMOOTH",
"1550 265 OFFCURVE",
"1550 276 OFFCURVE",
"1551 283 CURVE",
"1527 287 LINE",
"1485 142 OFFCURVE",
"1427 131 OFFCURVE",
"925 131 CURVE SMOOTH",
"815 131 LINE SMOOTH",
"509 131 OFFCURVE",
"321 134 OFFCURVE",
"78 149 CURVE",
"67 141 LINE",
"62 123 OFFCURVE",
"60 101 OFFCURVE",
"60 87 CURVE SMOOTH",
"60 52 OFFCURVE",
"68 14 OFFCURVE",
"149 5 CURVE SMOOTH",
"225 -3 OFFCURVE",
"418 -9 OFFCURVE",
"663 -9 CURVE SMOOTH"
);
}
);
width = 2088;
}
);
unicode = 1EC96;
script = "";
category = Letter;
},
{
glyphname = thirty_thousand_siyaq;
lastChange = "2019-09-12 13:59:03 +0000";
layers = (
{
layerId = UUID0;
paths = (
{
closed = 1;
nodes = (
"1257 -9 OFFCURVE",
"1449 19 OFFCURVE",
"1532 176 CURVE",
"1537 54 OFFCURVE",
"1595 23 OFFCURVE",
"1661 23 CURVE SMOOTH",
"1752 23 OFFCURVE",
"1824 118 OFFCURVE",
"1845 294 CURVE",
"1820 298 LINE",
"1792 190 OFFCURVE",
"1749 146 OFFCURVE",
"1673 146 CURVE SMOOTH",
"1640 146 OFFCURVE",
"1571 155 OFFCURVE",
"1571 259 CURVE SMOOTH",
"1571 262 OFFCURVE",
"1572 274 OFFCURVE",
"1574 287 CURVE",
"1550 291 LINE",
"1519 152 OFFCURVE",
"1393 131 OFFCURVE",
"943 131 CURVE SMOOTH",
"815 131 LINE SMOOTH",
"509 131 OFFCURVE",
"321 134 OFFCURVE",
"78 149 CURVE",
"67 141 LINE",
"62 123 OFFCURVE",
"60 101 OFFCURVE",
"60 87 CURVE SMOOTH",
"60 52 OFFCURVE",
"68 14 OFFCURVE",
"149 5 CURVE SMOOTH",
"225 -3 OFFCURVE",
"418 -9 OFFCURVE",
"663 -9 CURVE SMOOTH",
"831 -9 LINE SMOOTH"
);
}
);
width = 1905;
}
);
unicode = 1EC97;
script = "";
category = Letter;
},
{
glyphname = forty_thousand_siyaq;
lastChange = "2019-09-12 13:59:03 +0000";
layers = (
{
layerId = UUID0;
paths = (
{
closed = 1;
nodes = (
"885 -9 LINE SMOOTH",
"1248 -9 OFFCURVE",
"1391 23 OFFCURVE",
"1460 47 CURVE SMOOTH",
"1577 87 OFFCURVE",
"1640 171 OFFCURVE",
"1647 272 CURVE",
"1685 303 OFFCURVE",
"1724 345 OFFCURVE",
"1741 394 CURVE",
"1750 296 OFFCURVE",
"1790 243 OFFCURVE",
"1860 243 CURVE SMOOTH",
"1948 243 OFFCURVE",
"1999 360 OFFCURVE",
"2021 442 CURVE SMOOTH",
"2044 528 OFFCURVE",
"2055 632 OFFCURVE",
"2059 708 CURVE SMOOTH",
"2065 830 LINE SMOOTH",
"2067 876 OFFCURVE",
"2069 913 OFFCURVE",
"2075 937 CURVE",
"2052 942 LINE",
"2018 871 OFFCURVE",
"2011 842 OFFCURVE",
"2005 807 CURVE SMOOTH",
"2000 775 OFFCURVE",
"1997 743 OFFCURVE",
"1996 703 CURVE SMOOTH",
"1994 604 LINE SMOOTH",
"1993 534 OFFCURVE",
"1991 511 OFFCURVE",
"1986 490 CURVE SMOOTH",
"1972 426 OFFCURVE",
"1935 401 OFFCURVE",
"1897 401 CURVE SMOOTH",
"1815 401 OFFCURVE",
"1807 480 OFFCURVE",
"1807 584 CURVE SMOOTH",
"1807 768 OFFCURVE",
"1817 821 OFFCURVE",
"1826 867 CURVE",
"1803 871 LINE",
"1768 795 OFFCURVE",
"1761 744 OFFCURVE",
"1754 678 CURVE SMOOTH",
"1752 661 OFFCURVE",
"1748 618 OFFCURVE",
"1745 570 CURVE SMOOTH",
"1740 484 OFFCURVE",
"1709 390 OFFCURVE",
"1643 353 CURVE",
"1633 410 OFFCURVE",
"1604 463 OFFCURVE",
"1543 463 CURVE SMOOTH",
"1515 463 OFFCURVE",
"1495 448 OFFCURVE",
"1481 419 CURVE SMOOTH",
"1451 359 LINE SMOOTH",
"1437 332 OFFCURVE",
"1433 308 OFFCURVE",
"1433 291 CURVE SMOOTH",
"1433 245 OFFCURVE",
"1474 221 OFFCURVE",
"1513 221 CURVE SMOOTH",
"1538 221 OFFCURVE",
"1562 227 OFFCURVE",
"1588 239 CURVE",
"1590 234 OFFCURVE",
"1591 227 OFFCURVE",
"1591 222 CURVE SMOOTH",
"1591 195 OFFCURVE",
"1544 179 OFFCURVE",
"1496 168 CURVE SMOOTH",
"1415 149 OFFCURVE",
"1177 135 OFFCURVE",
"891 135 CURVE SMOOTH",
"585 135 OFFCURVE",
"315 135 OFFCURVE",
"78 149 CURVE",
"67 141 LINE",
"62 123 OFFCURVE",
"60 101 OFFCURVE",
"60 87 CURVE SMOOTH",
"60 52 OFFCURVE",
"68 14 OFFCURVE",
"149 5 CURVE SMOOTH",
"225 -3 OFFCURVE",
"418 -9 OFFCURVE",
"663 -9 CURVE"
);
}
);
width = 2135;
}
);
unicode = 1EC98;
script = "";
category = Letter;
},
{
glyphname = fifty_thousand_siyaq;
lastChange = "2019-09-12 13:59:03 +0000";
layers = (
{
layerId = UUID0;
paths = (
{
closed = 1;
nodes = (
"609 131 OFFCURVE",
"321 134 OFFCURVE",
"78 149 CURVE",
"67 141 LINE",
"62 123 OFFCURVE",
"60 101 OFFCURVE",
"60 87 CURVE SMOOTH",
"60 52 OFFCURVE",
"68 14 OFFCURVE",
"149 5 CURVE SMOOTH",
"225 -3 OFFCURVE",
"418 -9 OFFCURVE",
"663 -9 CURVE SMOOTH",
"883 -9 LINE SMOOTH",
"1115 -9 OFFCURVE",
"1307 -2 OFFCURVE",
"1459 16 CURVE SMOOTH",
"1652 39 OFFCURVE",
"1735 84 OFFCURVE",
"1820 195 CURVE SMOOTH",
"1858 245 OFFCURVE",
"1895 298 OFFCURVE",
"1927 348 CURVE",
"1924 361 LINE",
"1905 365 OFFCURVE",
"1873 375 OFFCURVE",
"1826 392 CURVE SMOOTH",
"1777 410 OFFCURVE",
"1739 419 OFFCURVE",
"1698 419 CURVE SMOOTH",
"1643 419 OFFCURVE",
"1605 392 OFFCURVE",
"1568 334 CURVE SMOOTH",
"1535 282 OFFCURVE",
"1504 207 OFFCURVE",
"1496 148 CURVE",
"1333 133 OFFCURVE",
"1047 131 OFFCURVE",
"915 131 CURVE SMOOTH"
);
},
{
closed = 1;
nodes = (
"1546 225 OFFCURVE",
"1573 269 OFFCURVE",
"1607 296 CURVE SMOOTH",
"1626 311 OFFCURVE",
"1655 317 OFFCURVE",
"1680 317 CURVE SMOOTH",
"1716 317 OFFCURVE",
"1751 307 OFFCURVE",
"1786 296 CURVE SMOOTH",
"1833 281 LINE",
"1779 206 OFFCURVE",
"1676 165 OFFCURVE",
"1529 152 CURVE"
);
}
);
width = 1987;
}
);
unicode = 1EC99;
script = "";
category = Letter;
},
{
glyphname = sixty_thousand_siyaq;
lastChange = "2019-09-12 13:59:03 +0000";
layers = (
{
layerId = UUID0;
paths = (
{
closed = 1;
nodes = (
"673 131 OFFCURVE",
"321 134 OFFCURVE",
"78 149 CURVE",
"67 141 LINE",
"62 123 OFFCURVE",
"60 101 OFFCURVE",
"60 87 CURVE SMOOTH",
"60 52 OFFCURVE",
"68 14 OFFCURVE",
"149 5 CURVE SMOOTH",
"225 -3 OFFCURVE",
"418 -9 OFFCURVE",
"663 -9 CURVE SMOOTH",
"883 -9 LINE SMOOTH",
"1315 -9 OFFCURVE",
"1488 6 OFFCURVE",
"1594 23 CURVE",
"1655 35 OFFCURVE",
"1838 125 OFFCURVE",
"1862 160 CURVE",
"1852 167 LINE",
"1659 147 OFFCURVE",
"1391 131 OFFCURVE",
"979 131 CURVE SMOOTH"
);
}
);
width = 1922;
}
);
unicode = 1EC9A;
script = "";
category = Letter;
},
{
glyphname = seventy_thousand_siyaq;
lastChange = "2019-09-12 13:59:03 +0000";
layers = (
{
layerId = UUID0;
paths = (
{
closed = 1;
nodes = (
"915 -9 LINE SMOOTH",
"1219 -9 OFFCURVE",
"1450 16 OFFCURVE",
"1520 37 CURVE SMOOTH",
"1637 73 OFFCURVE",
"1700 160 OFFCURVE",
"1707 264 CURVE",
"1726 280 OFFCURVE",
"1743 296 OFFCURVE",
"1763 316 CURVE SMOOTH",
"1799 352 LINE",
"1835 388 OFFCURVE",
"1848 396 OFFCURVE",
"1870 396 CURVE SMOOTH",
"1916 396 OFFCURVE",
"1922 333 OFFCURVE",
"1922 295 CURVE SMOOTH",
"1922 271 OFFCURVE",
"1919 235 OFFCURVE",
"1916 214 CURVE",
"1946 211 LINE",
"1971 278 OFFCURVE",
"1984 339 OFFCURVE",
"1984 391 CURVE SMOOTH",
"1984 450 OFFCURVE",
"1964 505 OFFCURVE",
"1898 505 CURVE SMOOTH",
"1874 505 OFFCURVE",
"1854 490 OFFCURVE",
"1826 457 CURVE SMOOTH",
"1790 415 OFFCURVE",
"1750 361 OFFCURVE",
"1705 332 CURVE",
"1697 412 OFFCURVE",
"1658 453 OFFCURVE",
"1603 453 CURVE SMOOTH",
"1575 453 OFFCURVE",
"1555 438 OFFCURVE",
"1541 409 CURVE SMOOTH",
"1511 349 LINE SMOOTH",
"1497 322 OFFCURVE",
"1493 298 OFFCURVE",
"1493 281 CURVE SMOOTH",
"1493 235 OFFCURVE",
"1534 211 OFFCURVE",
"1573 211 CURVE SMOOTH",
"1596 211 OFFCURVE",
"1621 216 OFFCURVE",
"1648 229 CURVE",
"1650 224 OFFCURVE",
"1651 217 OFFCURVE",
"1651 212 CURVE SMOOTH",
"1651 185 OFFCURVE",
"1619 168 OFFCURVE",
"1556 158 CURVE SMOOTH",
"1493 148 OFFCURVE",
"1197 131 OFFCURVE",
"911 131 CURVE SMOOTH",
"605 131 OFFCURVE",
"321 134 OFFCURVE",
"78 149 CURVE",
"67 141 LINE",
"62 123 OFFCURVE",
"60 101 OFFCURVE",
"60 87 CURVE SMOOTH",
"60 52 OFFCURVE",
"68 14 OFFCURVE",
"149 5 CURVE SMOOTH",
"225 -3 OFFCURVE",
"418 -9 OFFCURVE",
"663 -9 CURVE"
);
}
);
width = 2024;
}
);
unicode = 1EC9B;
script = "";
category = Letter;
},
{
glyphname = eighty_thousand_siyaq;
lastChange = "2019-09-12 13:59:03 +0000";
layers = (
{
layerId = UUID0;
paths = (
{
closed = 1;
nodes = (
"915 -9 LINE SMOOTH",
"1219 -9 OFFCURVE",
"1380 12 OFFCURVE",
"1450 33 CURVE SMOOTH",
"1539 60 OFFCURVE",
"1594 117 OFFCURVE",
"1622 188 CURVE SMOOTH",
"1655 272 OFFCURVE",
"1676 351 OFFCURVE",
"1684 520 CURVE SMOOTH",
"1694 728 LINE SMOOTH",
"1697 786 OFFCURVE",
"1700 833 OFFCURVE",
"1706 859 CURVE",
"1685 867 LINE",
"1647 778 OFFCURVE",
"1638 739 OFFCURVE",
"1629 699 CURVE SMOOTH",
"1620 659 OFFCURVE",
"1616 621 OFFCURVE",
"1614 571 CURVE SMOOTH",
"1608 380 OFFCURVE",
"1601 285 OFFCURVE",
"1598 263 CURVE SMOOTH",
"1593 230 OFFCURVE",
"1585 201 OFFCURVE",
"1571 185 CURVE SMOOTH",
"1557 170 OFFCURVE",
"1530 161 OFFCURVE",
"1486 154 CURVE SMOOTH",
"1423 144 OFFCURVE",
"1197 131 OFFCURVE",
"911 131 CURVE SMOOTH",
"605 131 OFFCURVE",
"321 134 OFFCURVE",
"78 149 CURVE",
"67 141 LINE",
"62 123 OFFCURVE",
"60 101 OFFCURVE",
"60 87 CURVE SMOOTH",
"60 52 OFFCURVE",
"68 14 OFFCURVE",
"149 5 CURVE SMOOTH",
"225 -3 OFFCURVE",
"418 -9 OFFCURVE",
"663 -9 CURVE"
);
}
);
width = 1766;
}
);
unicode = 1EC9C;
script = "";
category = Letter;
},
{
glyphname = ninety_thousand_siyaq;
lastChange = "2019-09-12 13:59:03 +0000";
layers = (
{
layerId = UUID0;
paths = (
{
closed = 1;
nodes = (
"1714 330 OFFCURVE",
"1751 395 OFFCURVE",
"1771 492 CURVE SMOOTH",
"1785 561 OFFCURVE",
"1793 658 OFFCURVE",
"1796 729 CURVE SMOOTH",
"1799 813 OFFCURVE",
"1801 843 OFFCURVE",
"1807 867 CURVE",
"1786 872 LINE",
"1760 821 OFFCURVE",
"1737 773 OFFCURVE",
"1728 713 CURVE SMOOTH",
"1723 678 OFFCURVE",
"1722 631 OFFCURVE",
"1722 594 CURVE SMOOTH",
"1722 551 OFFCURVE",
"1721 495 OFFCURVE",
"1719 477 CURVE SMOOTH",
"1714 427 OFFCURVE",
"1691 384 OFFCURVE",
"1643 353 CURVE",
"1633 410 OFFCURVE",
"1604 463 OFFCURVE",
"1543 463 CURVE SMOOTH",
"1515 463 OFFCURVE",
"1495 448 OFFCURVE",
"1481 419 CURVE SMOOTH",
"1451 359 LINE SMOOTH",
"1438 332 OFFCURVE",
"1433 308 OFFCURVE",
"1433 291 CURVE SMOOTH",
"1433 245 OFFCURVE",
"1474 221 OFFCURVE",
"1513 221 CURVE SMOOTH",
"1538 221 OFFCURVE",
"1562 227 OFFCURVE",
"1588 239 CURVE",
"1590 234 OFFCURVE",
"1591 227 OFFCURVE",
"1591 222 CURVE SMOOTH",
"1591 195 OFFCURVE",
"1544 179 OFFCURVE",
"1496 168 CURVE SMOOTH",
"1415 149 OFFCURVE",
"1177 135 OFFCURVE",
"891 135 CURVE SMOOTH",
"585 135 OFFCURVE",
"314 135 OFFCURVE",
"78 149 CURVE",
"67 141 LINE",
"62 123 OFFCURVE",
"60 101 OFFCURVE",
"60 87 CURVE SMOOTH",
"60 52 OFFCURVE",
"68 14 OFFCURVE",
"149 5 CURVE SMOOTH",
"225 -3 OFFCURVE",
"418 -9 OFFCURVE",
"663 -9 CURVE SMOOTH",
"885 -9 LINE SMOOTH",
"1248 -9 OFFCURVE",
"1391 23 OFFCURVE",
"1460 47 CURVE SMOOTH",
"1577 87 OFFCURVE",
"1640 171 OFFCURVE",
"1647 272 CURVE"
);
}
);
width = 1867;
}
);
unicode = 1EC9D;
script = "";
category = Letter;
},
{
glyphname = lakh_siyaq;
lastChange = "2019-09-12 13:59:03 +0000";
layers = (
{
layerId = UUID0;
paths = (
{
closed = 1;
nodes = (
"528 -23 LINE",
"496 -87 OFFCURVE",
"473 -158 OFFCURVE",
"473 -201 CURVE SMOOTH",
"473 -244 OFFCURVE",
"490 -275 OFFCURVE",
"527 -275 CURVE SMOOTH",
"555 -275 OFFCURVE",
"573 -259 OFFCURVE",
"585 -241 CURVE SMOOTH",
"594 -228 OFFCURVE",
"600 -212 OFFCURVE",
"600 -197 CURVE SMOOTH",
"600 -178 OFFCURVE",
"590 -161 OFFCURVE",
"570 -161 CURVE SMOOTH",
"566 -161 OFFCURVE",
"560 -162 OFFCURVE",
"558 -164 CURVE SMOOTH",
"536 -196 LINE",
"525 -193 OFFCURVE",
"525 -177 OFFCURVE",
"525 -162 CURVE SMOOTH",
"525 -122 OFFCURVE",
"545 -58 OFFCURVE",
"556 -31 CURVE"
);
},
{
closed = 1;
nodes = (
"757 142 OFFCURVE",
"784 65 OFFCURVE",
"878 65 CURVE SMOOTH",
"984 65 OFFCURVE",
"1037 175 OFFCURVE",
"1067 273 CURVE SMOOTH",
"1095 365 OFFCURVE",
"1105 454 OFFCURVE",
"1109 550 CURVE SMOOTH",
"1113 637 OFFCURVE",
"1112 695 OFFCURVE",
"1121 739 CURVE",
"1100 746 LINE",
"1068 678 OFFCURVE",
"1060 651 OFFCURVE",
"1051 620 CURVE SMOOTH",
"1043 591 OFFCURVE",
"1041 560 OFFCURVE",
"1040 523 CURVE SMOOTH",
"1038 424 LINE SMOOTH",
"1037 382 OFFCURVE",
"1035 342 OFFCURVE",
"1031 320 CURVE SMOOTH",
"1016 246 OFFCURVE",
"980 223 OFFCURVE",
"927 223 CURVE SMOOTH",
"844 223 OFFCURVE",
"826 301 OFFCURVE",
"826 405 CURVE SMOOTH",
"826 442 OFFCURVE",
"829 540 OFFCURVE",
"837 610 CURVE SMOOTH",
"840 635 OFFCURVE",
"844 653 OFFCURVE",
"849 666 CURVE SMOOTH",
"858 689 OFFCURVE",
"875 704 OFFCURVE",
"889 715 CURVE SMOOTH",
"906 728 OFFCURVE",
"932 742 OFFCURVE",
"1059 800 CURVE SMOOTH",
"1153 843 OFFCURVE",
"1243 886 OFFCURVE",
"1307 929 CURVE",
"1338 959 OFFCURVE",
"1370 1003 OFFCURVE",
"1376 1023 CURVE",
"1369 1030 LINE",
"1347 1019 OFFCURVE",
"1319 1004 OFFCURVE",
"1301 994 CURVE SMOOTH",
"1242 960 OFFCURVE",
"1172 927 OFFCURVE",
"1108 894 CURVE SMOOTH",
"1014 845 LINE SMOOTH",
"939 806 OFFCURVE",
"911 788 OFFCURVE",
"867 748 CURVE SMOOTH",
"843 727 OFFCURVE",
"826 710 OFFCURVE",
"800 647 CURVE SMOOTH",
"787 616 OFFCURVE",
"773 567 OFFCURVE",
"765 476 CURVE SMOOTH",
"755 363 LINE SMOOTH",
"751 320 OFFCURVE",
"739 295 OFFCURVE",
"708 255 CURVE SMOOTH",
"695 238 OFFCURVE",
"682 221 OFFCURVE",
"666 194 CURVE",
"664 249 OFFCURVE",
"643 282 OFFCURVE",
"595 282 CURVE SMOOTH",
"576 282 OFFCURVE",
"562 278 OFFCURVE",
"547 266 CURVE SMOOTH",
"527 250 OFFCURVE",
"510 230 OFFCURVE",
"484 202 CURVE SMOOTH",
"445 159 OFFCURVE",
"428 142 OFFCURVE",
"381 142 CURVE SMOOTH",
"366 142 OFFCURVE",
"331 149 OFFCURVE",
"317 152 CURVE SMOOTH",
"300 156 OFFCURVE",
"283 158 OFFCURVE",
"265 158 CURVE SMOOTH",
"187 158 OFFCURVE",
"112 98 OFFCURVE",
"50 -59 CURVE",
"70 -68 LINE",
"112 -10 OFFCURVE",
"141 7 OFFCURVE",
"185 7 CURVE SMOOTH",
"197 7 OFFCURVE",
"211 5 OFFCURVE",
"228 0 CURVE SMOOTH",
"241 -4 OFFCURVE",
"261 -9 OFFCURVE",
"276 -9 CURVE SMOOTH",
"340 -9 OFFCURVE",
"368 8 OFFCURVE",
"422 70 CURVE SMOOTH",
"504 164 OFFCURVE",
"517 177 OFFCURVE",
"549 177 CURVE SMOOTH",
"587 177 OFFCURVE",
"595 131 OFFCURVE",
"595 95 CURVE SMOOTH",
"595 61 OFFCURVE",
"590 41 OFFCURVE",
"580 4 CURVE",
"609 -1 LINE",
"628 56 OFFCURVE",
"655 103 OFFCURVE",
"676 136 CURVE SMOOTH",
"708 185 OFFCURVE",
"722 203 OFFCURVE",
"751 239 CURVE"
);
}
);
width = 1192;
}
);
unicode = 1EC9E;
script = "";
category = Letter;
},
{
glyphname = lakhan_siyaq;
lastChange = "2019-09-12 13:59:03 +0000";
layers = (
{
layerId = UUID0;
paths = (
{
closed = 1;
nodes = (
"994 -23 LINE",
"962 -87 OFFCURVE",
"939 -158 OFFCURVE",
"939 -201 CURVE SMOOTH",
"939 -244 OFFCURVE",
"956 -275 OFFCURVE",
"993 -275 CURVE SMOOTH",
"1021 -275 OFFCURVE",
"1039 -259 OFFCURVE",
"1051 -241 CURVE SMOOTH",
"1060 -228 OFFCURVE",
"1066 -212 OFFCURVE",
"1066 -197 CURVE SMOOTH",
"1066 -178 OFFCURVE",
"1056 -161 OFFCURVE",
"1036 -161 CURVE SMOOTH",
"1032 -161 OFFCURVE",
"1026 -162 OFFCURVE",
"1024 -164 CURVE SMOOTH",
"1002 -196 LINE",
"991 -193 OFFCURVE",
"991 -177 OFFCURVE",
"991 -162 CURVE SMOOTH",
"991 -122 OFFCURVE",
"1011 -58 OFFCURVE",
"1022 -31 CURVE"
);
},
{
closed = 1;
nodes = (
"253 201 LINE",
"268 188 OFFCURVE",
"297 162 OFFCURVE",
"310 149 CURVE",
"318 149 LINE",
"347 170 OFFCURVE",
"375 194 OFFCURVE",
"375 215 CURVE SMOOTH",
"375 234 OFFCURVE",
"356 251 OFFCURVE",
"320 273 CURVE",
"313 273 LINE",
"304 268 OFFCURVE",
"270 232 OFFCURVE",
"253 209 CURVE"
);
},
{
closed = 1;
nodes = (
"1450 65 OFFCURVE",
"1503 175 OFFCURVE",
"1533 273 CURVE SMOOTH",
"1561 365 OFFCURVE",
"1572 454 OFFCURVE",
"1575 550 CURVE SMOOTH",
"1578 637 OFFCURVE",
"1578 695 OFFCURVE",
"1587 739 CURVE",
"1566 746 LINE",
"1534 678 OFFCURVE",
"1526 651 OFFCURVE",
"1517 620 CURVE SMOOTH",
"1509 591 OFFCURVE",
"1507 560 OFFCURVE",
"1506 523 CURVE SMOOTH",
"1504 424 LINE SMOOTH",
"1503 382 OFFCURVE",
"1501 342 OFFCURVE",
"1497 320 CURVE SMOOTH",
"1482 246 OFFCURVE",
"1446 223 OFFCURVE",
"1393 223 CURVE SMOOTH",
"1310 223 OFFCURVE",
"1292 301 OFFCURVE",
"1292 405 CURVE SMOOTH",
"1292 442 OFFCURVE",
"1295 540 OFFCURVE",
"1303 610 CURVE SMOOTH",
"1306 635 OFFCURVE",
"1310 653 OFFCURVE",
"1315 666 CURVE SMOOTH",
"1324 689 OFFCURVE",
"1341 704 OFFCURVE",
"1355 715 CURVE SMOOTH",
"1372 728 OFFCURVE",
"1398 742 OFFCURVE",
"1525 800 CURVE SMOOTH",
"1619 843 OFFCURVE",
"1709 886 OFFCURVE",
"1773 929 CURVE",
"1804 959 OFFCURVE",
"1836 1003 OFFCURVE",
"1842 1023 CURVE",
"1835 1030 LINE",
"1807 1016 OFFCURVE",
"1783 1003 OFFCURVE",
"1765 993 CURVE SMOOTH",
"1703 959 OFFCURVE",
"1642 928 OFFCURVE",
"1577 895 CURVE SMOOTH",
"1480 845 LINE SMOOTH",
"1406 807 OFFCURVE",
"1377 788 OFFCURVE",
"1333 748 CURVE SMOOTH",
"1309 727 OFFCURVE",
"1292 710 OFFCURVE",
"1266 647 CURVE SMOOTH",
"1253 616 OFFCURVE",
"1239 567 OFFCURVE",
"1231 476 CURVE SMOOTH",
"1222 371 LINE SMOOTH",
"1218 328 OFFCURVE",
"1205 292 OFFCURVE",
"1174 255 CURVE SMOOTH",
"1160 238 OFFCURVE",
"1148 221 OFFCURVE",
"1132 194 CURVE",
"1130 249 OFFCURVE",
"1109 282 OFFCURVE",
"1061 282 CURVE SMOOTH",
"1023 282 OFFCURVE",
"1010 267 OFFCURVE",
"950 202 CURVE SMOOTH",
"900 148 OFFCURVE",
"860 137 OFFCURVE",
"820 137 CURVE SMOOTH",
"735 137 OFFCURVE",
"720 200 OFFCURVE",
"720 326 CURVE SMOOTH",
"720 501 OFFCURVE",
"745 702 OFFCURVE",
"756 750 CURVE",
"736 758 LINE",
"694 663 OFFCURVE",
"683 600 OFFCURVE",
"673 518 CURVE SMOOTH",
"653 348 OFFCURVE",
"649 210 OFFCURVE",
"649 182 CURVE SMOOTH",
"649 48 OFFCURVE",
"688 -21 OFFCURVE",
"771 -21 CURVE SMOOTH",
"836 -21 OFFCURVE",
"866 15 OFFCURVE",
"901 67 CURVE SMOOTH",
"928 107 LINE SMOOTH",
"970 169 OFFCURVE",
"988 177 OFFCURVE",
"1015 177 CURVE SMOOTH",
"1053 177 OFFCURVE",
"1061 131 OFFCURVE",
"1061 95 CURVE SMOOTH",
"1061 61 OFFCURVE",
"1056 41 OFFCURVE",
"1046 4 CURVE",
"1075 -1 LINE",
"1094 56 OFFCURVE",
"1121 103 OFFCURVE",
"1142 136 CURVE SMOOTH",
"1174 185 OFFCURVE",
"1188 203 OFFCURVE",
"1217 239 CURVE",
"1223 142 OFFCURVE",
"1250 65 OFFCURVE",
"1344 65 CURVE"
);
},
{
closed = 1;
nodes = (
"522 341 OFFCURVE",
"513 303 OFFCURVE",
"507 264 CURVE SMOOTH",
"504 247 OFFCURVE",
"504 214 OFFCURVE",
"504 206 CURVE SMOOTH",
"504 176 OFFCURVE",
"502 151 OFFCURVE",
"497 128 CURVE SMOOTH",
"485 69 OFFCURVE",
"428 -34 OFFCURVE",
"270 -34 CURVE SMOOTH",
"169 -34 OFFCURVE",
"116 12 OFFCURVE",
"116 105 CURVE SMOOTH",
"116 144 OFFCURVE",
"124 188 OFFCURVE",
"152 249 CURVE",
"123 257 LINE",
"83 181 OFFCURVE",
"60 101 OFFCURVE",
"60 4 CURVE SMOOTH",
"60 -121 OFFCURVE",
"122 -192 OFFCURVE",
"237 -192 CURVE SMOOTH",
"394 -192 OFFCURVE",
"483 -62 OFFCURVE",
"532 93 CURVE SMOOTH",
"552 156 OFFCURVE",
"562 220 OFFCURVE",
"563 269 CURVE SMOOTH",
"564 325 OFFCURVE",
"564 370 OFFCURVE",
"569 395 CURVE",
"546 400 LINE"
);
}
);
width = 1658;
}
);
unicode = 1EC9F;
script = "";
category = Letter;
},
{
glyphname = lakh_mark_siyaq;
lastChange = "2019-09-12 13:59:03 +0000";
layers = (
{
layerId = UUID0;
paths = (
{
closed = 1;
nodes = (
"1428 984 LINE",
"1407 975 OFFCURVE",
"1379 959 OFFCURVE",
"1360 948 CURVE SMOOTH",
"1298 914 OFFCURVE",
"1235 882 OFFCURVE",
"1170 849 CURVE SMOOTH",
"1073 799 LINE SMOOTH",
"1000 762 OFFCURVE",
"970 742 OFFCURVE",
"926 702 CURVE SMOOTH",
"902 681 OFFCURVE",
"885 664 OFFCURVE",
"859 601 CURVE SMOOTH",
"846 570 OFFCURVE",
"831 521 OFFCURVE",
"824 430 CURVE SMOOTH",
"814 300 LINE SMOOTH",
"813 283 OFFCURVE",
"808 267 OFFCURVE",
"799 245 CURVE SMOOTH",
"756 141 OFFCURVE",
"537 131 OFFCURVE",
"328 131 CURVE SMOOTH",
"272 131 OFFCURVE",
"220 132 OFFCURVE",
"78 144 CURVE",
"67 136 LINE",
"62 118 OFFCURVE",
"60 96 OFFCURVE",
"60 82 CURVE SMOOTH",
"60 47 OFFCURVE",
"68 11 OFFCURVE",
"149 0 CURVE SMOOTH",
"204 -7 OFFCURVE",
"232 -9 OFFCURVE",
"303 -9 CURVE SMOOTH",
"503 -9 OFFCURVE",
"741 1 OFFCURVE",
"810 178 CURVE",
"816 81 OFFCURVE",
"861 19 OFFCURVE",
"937 19 CURVE SMOOTH",
"1043 19 OFFCURVE",
"1096 129 OFFCURVE",
"1126 227 CURVE SMOOTH",
"1154 319 OFFCURVE",
"1164 408 OFFCURVE",
"1168 504 CURVE SMOOTH",
"1172 591 OFFCURVE",
"1171 649 OFFCURVE",
"1180 693 CURVE",
"1159 700 LINE",
"1127 632 OFFCURVE",
"1119 605 OFFCURVE",
"1110 574 CURVE SMOOTH",
"1102 545 OFFCURVE",
"1100 514 OFFCURVE",
"1099 477 CURVE SMOOTH",
"1097 378 LINE SMOOTH",
"1096 336 OFFCURVE",
"1094 296 OFFCURVE",
"1090 274 CURVE SMOOTH",
"1075 200 OFFCURVE",
"1039 177 OFFCURVE",
"986 177 CURVE SMOOTH",
"903 177 OFFCURVE",
"885 255 OFFCURVE",
"885 359 CURVE SMOOTH",
"885 396 OFFCURVE",
"888 494 OFFCURVE",
"896 564 CURVE SMOOTH",
"899 589 OFFCURVE",
"903 607 OFFCURVE",
"908 620 CURVE SMOOTH",
"917 643 OFFCURVE",
"934 658 OFFCURVE",
"948 669 CURVE SMOOTH",
"965 682 OFFCURVE",
"992 695 OFFCURVE",
"1118 754 CURVE SMOOTH",
"1212 798 OFFCURVE",
"1302 840 OFFCURVE",
"1366 883 CURVE",
"1397 913 OFFCURVE",
"1429 957 OFFCURVE",
"1435 977 CURVE"
);
}
);
width = 1253;
}
);
unicode = 1ECA0;
script = "";
category = Letter;
},
{
glyphname = karor_siyaq;
lastChange = "2019-09-12 13:59:03 +0000";
layers = (
{
layerId = UUID0;
paths = (
{
closed = 1;
nodes = (
"714 509 OFFCURVE",
"695 588 OFFCURVE",
"620 588 CURVE SMOOTH",
"585 588 OFFCURVE",
"560 565 OFFCURVE",
"547 534 CURVE SMOOTH",
"526 483 LINE SMOOTH",
"515 456 OFFCURVE",
"510 434 OFFCURVE",
"510 416 CURVE SMOOTH",
"510 365 OFFCURVE",
"545 340 OFFCURVE",
"592 340 CURVE SMOOTH",
"616 340 OFFCURVE",
"641 350 OFFCURVE",
"659 363 CURVE",
"661 361 OFFCURVE",
"662 357 OFFCURVE",
"662 355 CURVE SMOOTH",
"662 342 OFFCURVE",
"650 327 OFFCURVE",
"624 298 CURVE SMOOTH",
"573 243 OFFCURVE",
"464 164 OFFCURVE",
"393 122 CURVE",
"399 100 LINE",
"471 119 OFFCURVE",
"591 164 OFFCURVE",
"626 188 CURVE",
"686 258 OFFCURVE",
"714 344 OFFCURVE",
"714 436 CURVE SMOOTH"
);
},
{
closed = 1;
nodes = (
"432 572 LINE",
"411 512 OFFCURVE",
"389 455 OFFCURVE",
"361 401 CURVE SMOOTH",
"342 364 OFFCURVE",
"324 341 OFFCURVE",
"303 320 CURVE SMOOTH",
"233 249 OFFCURVE",
"113 145 OFFCURVE",
"50 110 CURVE",
"54 87 LINE",
"146 112 OFFCURVE",
"260 169 OFFCURVE",
"296 187 CURVE",
"376 250 OFFCURVE",
"429 431 OFFCURVE",
"462 567 CURVE"
);
},
{
closed = 1;
nodes = (
"1380 1024 OFFCURVE",
"1468 1066 OFFCURVE",
"1531 1109 CURVE",
"1560 1139 OFFCURVE",
"1591 1183 OFFCURVE",
"1596 1203 CURVE",
"1589 1210 LINE",
"1579 1207 OFFCURVE",
"1534 1181 OFFCURVE",
"1484 1153 CURVE SMOOTH",
"1441 1129 OFFCURVE",
"1399 1107 OFFCURVE",
"1372 1093 CURVE SMOOTH",
"1241 1025 LINE SMOOTH",
"1165 986 OFFCURVE",
"1140 972 OFFCURVE",
"1101 937 CURVE SMOOTH",
"1078 916 OFFCURVE",
"1054 881 OFFCURVE",
"1034 827 CURVE SMOOTH",
"1022 796 OFFCURVE",
"1010 747 OFFCURVE",
"1005 656 CURVE SMOOTH",
"1000 561 OFFCURVE",
"999 503 OFFCURVE",
"997 484 CURVE SMOOTH",
"995 459 OFFCURVE",
"993 451 OFFCURVE",
"987 441 CURVE SMOOTH",
"978 426 OFFCURVE",
"968 419 OFFCURVE",
"953 410 CURVE SMOOTH",
"938 401 OFFCURVE",
"933 398 OFFCURVE",
"903 383 CURVE SMOOTH",
"853 358 OFFCURVE",
"835 327 OFFCURVE",
"791 245 CURVE SMOOTH",
"764 195 LINE SMOOTH",
"744 158 OFFCURVE",
"731 145 OFFCURVE",
"708 127 CURVE SMOOTH",
"648 79 OFFCURVE",
"530 6 OFFCURVE",
"465 -27 CURVE",
"470 -48 LINE",
"545 -35 OFFCURVE",
"656 -5 OFFCURVE",
"692 7 CURVE",
"721 25 OFFCURVE",
"745 62 OFFCURVE",
"776 122 CURVE SMOOTH",
"812 191 LINE SMOOTH",
"826 218 OFFCURVE",
"842 238 OFFCURVE",
"882 263 CURVE SMOOTH",
"914 283 OFFCURVE",
"926 287 OFFCURVE",
"952 310 CURVE SMOOTH",
"1010 360 OFFCURVE",
"1036 441 OFFCURVE",
"1050 521 CURVE SMOOTH",
"1059 574 OFFCURVE",
"1064 652 OFFCURVE",
"1066 688 CURVE SMOOTH",
"1072 790 LINE SMOOTH",
"1073 815 OFFCURVE",
"1077 833 OFFCURVE",
"1082 846 CURVE SMOOTH",
"1091 869 OFFCURVE",
"1107 885 OFFCURVE",
"1120 895 CURVE SMOOTH",
"1137 908 OFFCURVE",
"1163 921 OFFCURVE",
"1287 980 CURVE SMOOTH"
);
}
);
width = 1150;
}
);
unicode = 1ECA1;
script = "";
category = Letter;
},
{
glyphname = karoran_siyaq;
lastChange = "2019-09-12 13:59:03 +0000";
layers = (
{
layerId = UUID0;
paths = (
{
closed = 1;
nodes = (
"1221 509 OFFCURVE",
"1202 588 OFFCURVE",
"1127 588 CURVE SMOOTH",
"1092 588 OFFCURVE",
"1067 565 OFFCURVE",
"1054 534 CURVE SMOOTH",
"1033 483 LINE SMOOTH",
"1022 456 OFFCURVE",
"1017 434 OFFCURVE",
"1017 416 CURVE SMOOTH",
"1017 365 OFFCURVE",
"1052 340 OFFCURVE",
"1099 340 CURVE SMOOTH",
"1123 340 OFFCURVE",
"1148 350 OFFCURVE",
"1166 363 CURVE",
"1168 361 OFFCURVE",
"1169 357 OFFCURVE",
"1169 355 CURVE SMOOTH",
"1169 342 OFFCURVE",
"1158 327 OFFCURVE",
"1131 298 CURVE SMOOTH",
"1079 242 OFFCURVE",
"971 164 OFFCURVE",
"900 122 CURVE",
"906 100 LINE",
"978 119 OFFCURVE",
"1098 164 OFFCURVE",
"1133 188 CURVE",
"1193 258 OFFCURVE",
"1221 344 OFFCURVE",
"1221 436 CURVE SMOOTH"
);
},
{
closed = 1;
nodes = (
"939 572 LINE",
"918 512 OFFCURVE",
"896 455 OFFCURVE",
"868 401 CURVE SMOOTH",
"849 364 OFFCURVE",
"831 341 OFFCURVE",
"810 320 CURVE SMOOTH",
"740 249 OFFCURVE",
"620 145 OFFCURVE",
"557 110 CURVE",
"561 87 LINE",
"653 112 OFFCURVE",
"767 169 OFFCURVE",
"803 187 CURVE",
"883 250 OFFCURVE",
"936 431 OFFCURVE",
"969 567 CURVE"
);
},
{
closed = 1;
nodes = (
"1887 1024 OFFCURVE",
"1975 1066 OFFCURVE",
"2038 1109 CURVE",
"2067 1139 OFFCURVE",
"2098 1183 OFFCURVE",
"2103 1203 CURVE",
"2096 1210 LINE",
"2075 1202 OFFCURVE",
"2047 1184 OFFCURVE",
"2029 1174 CURVE SMOOTH",
"1968 1140 OFFCURVE",
"1907 1108 OFFCURVE",
"1843 1075 CURVE SMOOTH",
"1747 1025 LINE SMOOTH",
"1671 985 OFFCURVE",
"1647 972 OFFCURVE",
"1608 937 CURVE SMOOTH",
"1585 916 OFFCURVE",
"1561 881 OFFCURVE",
"1541 827 CURVE SMOOTH",
"1529 796 OFFCURVE",
"1516 747 OFFCURVE",
"1512 656 CURVE SMOOTH",
"1510 619 LINE SMOOTH",
"1507 561 OFFCURVE",
"1506 507 OFFCURVE",
"1504 484 CURVE SMOOTH",
"1502 459 OFFCURVE",
"1500 451 OFFCURVE",
"1494 441 CURVE SMOOTH",
"1485 426 OFFCURVE",
"1476 419 OFFCURVE",
"1460 410 CURVE SMOOTH",
"1443 400 OFFCURVE",
"1439 398 OFFCURVE",
"1410 383 CURVE SMOOTH",
"1359 356 OFFCURVE",
"1342 327 OFFCURVE",
"1298 245 CURVE SMOOTH",
"1271 195 LINE SMOOTH",
"1250 157 OFFCURVE",
"1238 145 OFFCURVE",
"1215 127 CURVE SMOOTH",
"1155 79 OFFCURVE",
"1037 6 OFFCURVE",
"972 -27 CURVE",
"977 -48 LINE",
"1052 -35 OFFCURVE",
"1163 -5 OFFCURVE",
"1199 7 CURVE",
"1228 25 OFFCURVE",
"1252 62 OFFCURVE",
"1283 122 CURVE SMOOTH",
"1318 189 LINE SMOOTH",
"1331 215 OFFCURVE",
"1343 231 OFFCURVE",
"1376 254 CURVE SMOOTH",
"1395 267 OFFCURVE",
"1400 270 OFFCURVE",
"1414 278 CURVE SMOOTH",
"1430 287 OFFCURVE",
"1443 296 OFFCURVE",
"1459 310 CURVE SMOOTH",
"1515 357 OFFCURVE",
"1543 441 OFFCURVE",
"1557 521 CURVE SMOOTH",
"1566 574 OFFCURVE",
"1571 652 OFFCURVE",
"1573 688 CURVE SMOOTH",
"1579 790 LINE SMOOTH",
"1580 815 OFFCURVE",
"1584 833 OFFCURVE",
"1589 846 CURVE SMOOTH",
"1598 869 OFFCURVE",
"1613 885 OFFCURVE",
"1627 895 CURVE SMOOTH",
"1644 908 OFFCURVE",
"1670 921 OFFCURVE",
"1794 980 CURVE SMOOTH"
);
},
{
closed = 1;
nodes = (
"546 589 LINE",
"522 530 OFFCURVE",
"513 492 OFFCURVE",
"507 453 CURVE SMOOTH",
"504 436 OFFCURVE",
"504 403 OFFCURVE",
"504 395 CURVE SMOOTH",
"504 365 OFFCURVE",
"502 340 OFFCURVE",
"497 317 CURVE SMOOTH",
"485 258 OFFCURVE",
"428 155 OFFCURVE",
"270 155 CURVE SMOOTH",
"169 155 OFFCURVE",
"116 201 OFFCURVE",
"116 294 CURVE SMOOTH",
"116 333 OFFCURVE",
"124 377 OFFCURVE",
"152 438 CURVE",
"123 446 LINE",
"83 370 OFFCURVE",
"60 290 OFFCURVE",
"60 193 CURVE SMOOTH",
"60 68 OFFCURVE",
"122 -3 OFFCURVE",
"237 -3 CURVE SMOOTH",
"394 -3 OFFCURVE",
"483 127 OFFCURVE",
"532 282 CURVE SMOOTH",
"552 345 OFFCURVE",
"562 409 OFFCURVE",
"563 458 CURVE SMOOTH",
"564 514 OFFCURVE",
"564 559 OFFCURVE",
"569 584 CURVE"
);
},
{
closed = 1;
nodes = (
"671 289 LINE",
"710 378 OFFCURVE",
"736 480 OFFCURVE",
"741 565 CURVE SMOOTH",
"749 711 LINE SMOOTH",
"756 836 OFFCURVE",
"762 955 OFFCURVE",
"780 999 CURVE",
"756 1007 LINE",
"715 917 OFFCURVE",
"700 863 OFFCURVE",
"690 823 CURVE SMOOTH",
"680 784 OFFCURVE",
"677 731 OFFCURVE",
"675 682 CURVE SMOOTH",
"667 483 LINE SMOOTH",
"664 396 OFFCURVE",
"653 316 OFFCURVE",
"649 294 CURVE"
);
}
);
width = 1657;
}
);
unicode = 1ECA2;
script = "";
category = Letter;
},
{
glyphname = prefixed_one_siyaq;
lastChange = "2019-09-12 13:59:03 +0000";
layers = (
{
layerId = UUID0;
paths = (
{
closed = 1;
nodes = (
"128 96 OFFCURVE",
"138 217 OFFCURVE",
"141 269 CURVE SMOOTH",
"151 442 LINE SMOOTH",
"154 500 OFFCURVE",
"159 547 OFFCURVE",
"165 573 CURVE",
"141 578 LINE",
"104 494 OFFCURVE",
"94 453 OFFCURVE",
"86 413 CURVE SMOOTH",
"78 373 OFFCURVE",
"72 334 OFFCURVE",
"71 285 CURVE SMOOTH",
"70 188 LINE SMOOTH",
"69 101 OFFCURVE",
"67 33 OFFCURVE",
"62 11 CURVE SMOOTH",
"45 -67 OFFCURVE",
"-5 -87 OFFCURVE",
"-90 -87 CURVE SMOOTH",
"-148 -87 OFFCURVE",
"-159 -77 OFFCURVE",
"-235 -77 CURVE SMOOTH",
"-313 -77 OFFCURVE",
"-388 -137 OFFCURVE",
"-450 -294 CURVE",
"-430 -303 LINE",
"-388 -245 OFFCURVE",
"-359 -228 OFFCURVE",
"-315 -228 CURVE SMOOTH",
"-267 -228 OFFCURVE",
"-218 -244 OFFCURVE",
"-156 -244 CURVE SMOOTH",
"-122 -244 OFFCURVE",
"-77 -236 OFFCURVE",
"-44 -219 CURVE SMOOTH",
"43 -174 OFFCURVE",
"83 -92 OFFCURVE",
"105 1 CURVE SMOOTH"
);
}
);
width = 225;
}
);
unicode = 1ECA3;
script = "";
category = Letter;
},
{
glyphname = prefixed_two_siyaq;
lastChange = "2019-09-12 13:59:03 +0000";
layers = (
{
layerId = UUID0;
paths = (
{
closed = 1;
nodes = (
"-937 -118 LINE",
"-942 -136 OFFCURVE",
"-944 -152 OFFCURVE",
"-944 -166 CURVE SMOOTH",
"-944 -201 OFFCURVE",
"-934 -237 OFFCURVE",
"-853 -245 CURVE SMOOTH",
"-793 -251 OFFCURVE",
"-718 -252 OFFCURVE",
"-653 -252 CURVE SMOOTH",
"-421 -252 OFFCURVE",
"-201 -233 OFFCURVE",
"-17 -171 CURVE SMOOTH",
"144 -117 OFFCURVE",
"216 -50 OFFCURVE",
"282 58 CURVE",
"264 69 LINE",
"218 16 OFFCURVE",
"178 -11 OFFCURVE",
"114 -11 CURVE SMOOTH",
"76 -11 OFFCURVE",
"29 8 OFFCURVE",
"29 57 CURVE SMOOTH",
"29 77 OFFCURVE",
"39 99 OFFCURVE",
"57 114 CURVE SMOOTH",
"80 133 OFFCURVE",
"111 144 OFFCURVE",
"141 144 CURVE SMOOTH",
"164 144 OFFCURVE",
"188 137 OFFCURVE",
"206 121 CURVE",
"214 120 LINE",
"235 131 OFFCURVE",
"242 151 OFFCURVE",
"242 168 CURVE SMOOTH",
"242 208 OFFCURVE",
"207 226 OFFCURVE",
"174 226 CURVE SMOOTH",
"107 226 OFFCURVE",
"55 174 OFFCURVE",
"0 111 CURVE SMOOTH",
"-33 73 OFFCURVE",
"-73 16 OFFCURVE",
"-73 -32 CURVE SMOOTH",
"-73 -41 OFFCURVE",
"-71 -51 OFFCURVE",
"-67 -63 CURVE",
"-215 -98 OFFCURVE",
"-446 -116 OFFCURVE",
"-620 -116 CURVE SMOOTH",
"-731 -116 OFFCURVE",
"-803 -116 OFFCURVE",
"-926 -110 CURVE"
);
}
);
width = 342;
}
);
unicode = 1ECA4;
script = "";
category = Letter;
},
{
glyphname = prefixed_three_siyaq;
lastChange = "2019-09-12 13:59:03 +0000";
layers = (
{
layerId = UUID0;
paths = (
{
closed = 1;
nodes = (
"-29 -169 OFFCURVE",
"31 -208 OFFCURVE",
"97 -208 CURVE SMOOTH",
"188 -208 OFFCURVE",
"260 -113 OFFCURVE",
"281 63 CURVE",
"256 67 LINE",
"228 -41 OFFCURVE",
"185 -85 OFFCURVE",
"109 -85 CURVE SMOOTH",
"76 -85 OFFCURVE",
"7 -76 OFFCURVE",
"7 28 CURVE SMOOTH",
"7 31 OFFCURVE",
"8 43 OFFCURVE",
"10 56 CURVE",
"-14 60 LINE",
"-27 -14 OFFCURVE",
"-60 -34 OFFCURVE",
"-115 -57 CURVE SMOOTH",
"-217 -100 OFFCURVE",
"-421 -118 OFFCURVE",
"-727 -118 CURVE SMOOTH",
"-838 -118 OFFCURVE",
"-865 -118 OFFCURVE",
"-1000 -110 CURVE",
"-1011 -118 LINE",
"-1016 -136 OFFCURVE",
"-1018 -151 OFFCURVE",
"-1018 -165 CURVE SMOOTH",
"-1018 -201 OFFCURVE",
"-1010 -231 OFFCURVE",
"-932 -243 CURVE SMOOTH",
"-878 -251 OFFCURVE",
"-812 -252 OFFCURVE",
"-777 -252 CURVE SMOOTH",
"-612 -252 OFFCURVE",
"-346 -252 OFFCURVE",
"-176 -183 CURVE SMOOTH",
"-111 -157 OFFCURVE",
"-55 -102 OFFCURVE",
"-32 -55 CURVE"
);
}
);
width = 341;
}
);
unicode = 1ECA5;
script = "";
category = Letter;
},
{
glyphname = prefixed_four_siyaq;
lastChange = "2019-09-12 13:59:03 +0000";
layers = (
{
layerId = UUID0;
paths = (
{
closed = 1;
nodes = (
"-813 -118 LINE",
"-818 -136 OFFCURVE",
"-820 -151 OFFCURVE",
"-820 -165 CURVE SMOOTH",
"-820 -200 OFFCURVE",
"-812 -231 OFFCURVE",
"-734 -243 CURVE SMOOTH",
"-680 -251 OFFCURVE",
"-614 -252 OFFCURVE",
"-579 -252 CURVE SMOOTH",
"-351 -252 OFFCURVE",
"-138 -238 OFFCURVE",
"30 -185 CURVE SMOOTH",
"157 -145 OFFCURVE",
"210 -61 OFFCURVE",
"217 40 CURVE",
"255 71 OFFCURVE",
"294 113 OFFCURVE",
"311 162 CURVE",
"320 64 OFFCURVE",
"360 11 OFFCURVE",
"430 11 CURVE SMOOTH",
"518 11 OFFCURVE",
"569 127 OFFCURVE",
"591 210 CURVE SMOOTH",
"614 296 OFFCURVE",
"625 400 OFFCURVE",
"629 476 CURVE SMOOTH",
"635 598 LINE SMOOTH",
"637 644 OFFCURVE",
"639 681 OFFCURVE",
"645 705 CURVE",
"622 710 LINE",
"588 639 OFFCURVE",
"581 610 OFFCURVE",
"575 575 CURVE SMOOTH",
"570 543 OFFCURVE",
"567 511 OFFCURVE",
"566 471 CURVE SMOOTH",
"564 372 LINE SMOOTH",
"563 302 OFFCURVE",
"561 279 OFFCURVE",
"556 258 CURVE SMOOTH",
"542 194 OFFCURVE",
"505 169 OFFCURVE",
"467 169 CURVE SMOOTH",
"385 169 OFFCURVE",
"377 248 OFFCURVE",
"377 352 CURVE SMOOTH",
"377 536 OFFCURVE",
"387 589 OFFCURVE",
"396 635 CURVE",
"373 639 LINE",
"338 563 OFFCURVE",
"329 507 OFFCURVE",
"324 441 CURVE SMOOTH",
"315 333 LINE SMOOTH",
"308 247 OFFCURVE",
"279 158 OFFCURVE",
"213 121 CURVE",
"203 178 OFFCURVE",
"174 231 OFFCURVE",
"113 231 CURVE SMOOTH",
"85 231 OFFCURVE",
"65 216 OFFCURVE",
"51 187 CURVE SMOOTH",
"21 127 LINE SMOOTH",
"7 100 OFFCURVE",
"3 76 OFFCURVE",
"3 59 CURVE SMOOTH",
"3 13 OFFCURVE",
"44 -11 OFFCURVE",
"83 -11 CURVE SMOOTH",
"108 -11 OFFCURVE",
"132 -5 OFFCURVE",
"158 7 CURVE",
"160 2 OFFCURVE",
"161 -5 OFFCURVE",
"161 -10 CURVE SMOOTH",
"161 -37 OFFCURVE",
"133 -50 OFFCURVE",
"85 -63 CURVE SMOOTH",
"-56 -101 OFFCURVE",
"-340 -116 OFFCURVE",
"-516 -116 CURVE SMOOTH",
"-627 -116 OFFCURVE",
"-671 -116 OFFCURVE",
"-802 -110 CURVE"
);
}
);
width = 705;
}
);
unicode = 1ECA6;
script = "";
category = Letter;
},
{
glyphname = prefixed_five_siyaq;
lastChange = "2019-09-12 13:59:03 +0000";
layers = (
{
layerId = UUID0;
paths = (
{
closed = 1;
nodes = (
"-921 -118 LINE",
"-926 -136 OFFCURVE",
"-928 -152 OFFCURVE",
"-928 -166 CURVE SMOOTH",
"-928 -202 OFFCURVE",
"-919 -236 OFFCURVE",
"-839 -245 CURVE SMOOTH",
"-779 -252 OFFCURVE",
"-702 -252 OFFCURVE",
"-637 -252 CURVE SMOOTH",
"-269 -252 OFFCURVE",
"122 -198 OFFCURVE",
"276 6 CURVE SMOOTH",
"314 56 OFFCURVE",
"351 106 OFFCURVE",
"382 156 CURVE",
"379 169 LINE",
"355 174 OFFCURVE",
"330 187 OFFCURVE",
"281 204 CURVE SMOOTH",
"232 221 OFFCURVE",
"194 230 OFFCURVE",
"153 230 CURVE SMOOTH",
"98 230 OFFCURVE",
"51 200 OFFCURVE",
"16 141 CURVE SMOOTH",
"-14 90 OFFCURVE",
"-46 16 OFFCURVE",
"-61 -63 CURVE",
"-232 -98 OFFCURVE",
"-433 -116 OFFCURVE",
"-604 -116 CURVE SMOOTH",
"-715 -116 OFFCURVE",
"-747 -116 OFFCURVE",
"-910 -110 CURVE"
);
},
{
closed = 1;
nodes = (
"2 37 OFFCURVE",
"30 80 OFFCURVE",
"63 105 CURVE SMOOTH",
"83 120 OFFCURVE",
"111 127 OFFCURVE",
"136 127 CURVE SMOOTH",
"175 127 OFFCURVE",
"211 117 OFFCURVE",
"246 106 CURVE SMOOTH",
"289 93 LINE",
"260 52 OFFCURVE",
"220 23 OFFCURVE",
"156 -2 CURVE SMOOTH",
"106 -21 OFFCURVE",
"47 -39 OFFCURVE",
"-17 -53 CURVE"
);
}
);
width = 446;
}
);
unicode = 1ECA7;
script = "";
category = Letter;
},
{
glyphname = prefixed_six_siyaq;
lastChange = "2019-09-12 13:59:03 +0000";
layers = (
{
layerId = UUID0;
paths = (
{
closed = 1;
nodes = (
"-367 -252 OFFCURVE",
"-94 -197 OFFCURVE",
"-5 -169 CURVE SMOOTH",
"85 -141 OFFCURVE",
"234 -57 OFFCURVE",
"281 -2 CURVE",
"274 7 LINE",
"28 -58 OFFCURVE",
"-355 -116 OFFCURVE",
"-686 -116 CURVE SMOOTH",
"-797 -116 OFFCURVE",
"-832 -116 OFFCURVE",
"-982 -110 CURVE",
"-993 -118 LINE",
"-998 -136 OFFCURVE",
"-1000 -151 OFFCURVE",
"-1000 -165 CURVE SMOOTH",
"-1000 -200 OFFCURVE",
"-992 -231 OFFCURVE",
"-914 -243 CURVE SMOOTH",
"-860 -251 OFFCURVE",
"-794 -252 OFFCURVE",
"-759 -252 CURVE SMOOTH"
);
}
);
width = 361;
}
);
unicode = 1ECA8;
script = "";
category = Letter;
},
{
glyphname = prefixed_seven_siyaq;
lastChange = "2019-09-12 13:59:03 +0000";
layers = (
{
layerId = UUID0;
paths = (
{
closed = 1;
nodes = (
"160 2 OFFCURVE",
"161 -5 OFFCURVE",
"161 -10 CURVE SMOOTH",
"161 -37 OFFCURVE",
"133 -50 OFFCURVE",
"85 -63 CURVE SMOOTH",
"-56 -101 OFFCURVE",
"-340 -116 OFFCURVE",
"-516 -116 CURVE SMOOTH",
"-627 -116 OFFCURVE",
"-653 -116 OFFCURVE",
"-802 -110 CURVE",
"-813 -118 LINE",
"-818 -136 OFFCURVE",
"-820 -151 OFFCURVE",
"-820 -165 CURVE SMOOTH",
"-820 -200 OFFCURVE",
"-812 -231 OFFCURVE",
"-734 -243 CURVE SMOOTH",
"-680 -251 OFFCURVE",
"-614 -252 OFFCURVE",
"-579 -252 CURVE SMOOTH",
"-351 -252 OFFCURVE",
"-138 -238 OFFCURVE",
"30 -185 CURVE SMOOTH",
"157 -145 OFFCURVE",
"210 -61 OFFCURVE",
"217 40 CURVE",
"235 56 OFFCURVE",
"252 73 OFFCURVE",
"273 94 CURVE SMOOTH",
"309 130 LINE SMOOTH",
"345 166 OFFCURVE",
"358 174 OFFCURVE",
"380 174 CURVE SMOOTH",
"426 174 OFFCURVE",
"432 111 OFFCURVE",
"432 73 CURVE SMOOTH",
"432 49 OFFCURVE",
"429 13 OFFCURVE",
"426 -8 CURVE",
"456 -11 LINE",
"481 56 OFFCURVE",
"494 117 OFFCURVE",
"494 169 CURVE SMOOTH",
"494 228 OFFCURVE",
"474 283 OFFCURVE",
"408 283 CURVE SMOOTH",
"384 283 OFFCURVE",
"364 268 OFFCURVE",
"336 235 CURVE SMOOTH",
"301 193 OFFCURVE",
"260 139 OFFCURVE",
"215 110 CURVE",
"207 190 OFFCURVE",
"168 231 OFFCURVE",
"113 231 CURVE SMOOTH",
"85 231 OFFCURVE",
"65 216 OFFCURVE",
"51 187 CURVE SMOOTH",
"21 127 LINE SMOOTH",
"7 100 OFFCURVE",
"3 76 OFFCURVE",
"3 59 CURVE SMOOTH",
"3 13 OFFCURVE",
"44 -11 OFFCURVE",
"83 -11 CURVE SMOOTH",
"106 -11 OFFCURVE",
"131 -6 OFFCURVE",
"158 7 CURVE"
);
}
);
width = 554;
}
);
unicode = 1ECA9;
script = "";
category = Letter;
},
{
glyphname = prefixed_eight_siyaq;
lastChange = "2019-09-12 13:59:03 +0000";
layers = (
{
layerId = UUID0;
paths = (
{
closed = 1;
nodes = (
"-29 -166 OFFCURVE",
"19 -234 OFFCURVE",
"102 -234 CURVE SMOOTH",
"193 -234 OFFCURVE",
"244 -165 OFFCURVE",
"305 -81 CURVE SMOOTH",
"344 -28 OFFCURVE",
"361 -22 OFFCURVE",
"382 -22 CURVE SMOOTH",
"432 -22 OFFCURVE",
"450 -83 OFFCURVE",
"450 -146 CURVE SMOOTH",
"450 -159 OFFCURVE",
"449 -171 OFFCURVE",
"448 -183 CURVE",
"472 -184 LINE",
"483 -156 OFFCURVE",
"493 -106 OFFCURVE",
"493 -55 CURVE SMOOTH",
"493 14 OFFCURVE",
"474 82 OFFCURVE",
"409 82 CURVE SMOOTH",
"379 82 OFFCURVE",
"348 62 OFFCURVE",
"315 16 CURVE SMOOTH",
"298 -8 LINE SMOOTH",
"258 -65 OFFCURVE",
"211 -115 OFFCURVE",
"135 -115 CURVE SMOOTH",
"66 -115 OFFCURVE",
"13 -83 OFFCURVE",
"6 11 CURVE",
"8 22 OFFCURVE",
"10 34 OFFCURVE",
"10 53 CURVE",
"-14 57 LINE",
"-27 -17 OFFCURVE",
"-59 -39 OFFCURVE",
"-114 -62 CURVE SMOOTH",
"-216 -105 OFFCURVE",
"-421 -118 OFFCURVE",
"-727 -118 CURVE SMOOTH",
"-838 -118 OFFCURVE",
"-860 -117 OFFCURVE",
"-1000 -110 CURVE",
"-1011 -118 LINE",
"-1016 -136 OFFCURVE",
"-1018 -151 OFFCURVE",
"-1018 -165 CURVE SMOOTH",
"-1018 -200 OFFCURVE",
"-1010 -231 OFFCURVE",
"-932 -243 CURVE SMOOTH",
"-878 -251 OFFCURVE",
"-812 -252 OFFCURVE",
"-777 -252 CURVE SMOOTH",
"-612 -252 OFFCURVE",
"-346 -251 OFFCURVE",
"-176 -183 CURVE SMOOTH",
"-111 -157 OFFCURVE",
"-57 -117 OFFCURVE",
"-29 -60 CURVE"
);
}
);
width = 544;
}
);
unicode = 1ECAA;
script = "";
category = Letter;
},
{
glyphname = prefixed_nine_siyaq;
lastChange = "2019-09-12 13:59:03 +0000";
layers = (
{
layerId = UUID0;
paths = (
{
closed = 1;
nodes = (
"160 2 OFFCURVE",
"161 -5 OFFCURVE",
"161 -10 CURVE SMOOTH",
"161 -37 OFFCURVE",
"133 -50 OFFCURVE",
"85 -63 CURVE SMOOTH",
"-56 -101 OFFCURVE",
"-340 -116 OFFCURVE",
"-516 -116 CURVE SMOOTH",
"-627 -116 OFFCURVE",
"-655 -116 OFFCURVE",
"-802 -110 CURVE",
"-813 -118 LINE",
"-818 -136 OFFCURVE",
"-820 -151 OFFCURVE",
"-820 -165 CURVE SMOOTH",
"-820 -200 OFFCURVE",
"-812 -231 OFFCURVE",
"-734 -243 CURVE SMOOTH",
"-680 -251 OFFCURVE",
"-614 -252 OFFCURVE",
"-579 -252 CURVE SMOOTH",
"-351 -252 OFFCURVE",
"-138 -238 OFFCURVE",
"30 -185 CURVE SMOOTH",
"157 -145 OFFCURVE",
"210 -61 OFFCURVE",
"217 40 CURVE",
"284 98 OFFCURVE",
"321 163 OFFCURVE",
"341 260 CURVE SMOOTH",
"355 329 OFFCURVE",
"363 426 OFFCURVE",
"366 497 CURVE SMOOTH",
"367 521 LINE SMOOTH",
"369 576 OFFCURVE",
"371 611 OFFCURVE",
"377 635 CURVE",
"356 640 LINE",
"330 589 OFFCURVE",
"307 541 OFFCURVE",
"298 481 CURVE SMOOTH",
"293 446 OFFCURVE",
"292 399 OFFCURVE",
"292 362 CURVE SMOOTH",
"292 319 OFFCURVE",
"291 263 OFFCURVE",
"289 245 CURVE SMOOTH",
"284 195 OFFCURVE",
"261 152 OFFCURVE",
"213 121 CURVE",
"201 178 OFFCURVE",
"174 231 OFFCURVE",
"113 231 CURVE SMOOTH",
"85 231 OFFCURVE",
"65 216 OFFCURVE",
"51 187 CURVE SMOOTH",
"21 127 LINE SMOOTH",
"8 100 OFFCURVE",
"3 76 OFFCURVE",
"3 59 CURVE SMOOTH",
"3 13 OFFCURVE",
"44 -11 OFFCURVE",
"83 -11 CURVE SMOOTH",
"108 -11 OFFCURVE",
"132 -5 OFFCURVE",
"158 7 CURVE"
);
}
);
width = 437;
}
);
unicode = 1ECAB;
script = "";
category = Letter;
},
{
glyphname = placeholder_siyaq;
lastChange = "2019-09-12 13:59:03 +0000";
layers = (
{
layerId = UUID0;
paths = (
{
closed = 1;
nodes = (
"205 551 LINE",
"199 525 OFFCURVE",
"193 493 OFFCURVE",
"193 459 CURVE SMOOTH",
"193 395 OFFCURVE",
"214 348 OFFCURVE",
"276 348 CURVE SMOOTH",
"318 348 OFFCURVE",
"363 374 OFFCURVE",
"385 445 CURVE",
"402 409 OFFCURVE",
"431 399 OFFCURVE",
"458 399 CURVE SMOOTH",
"537 399 OFFCURVE",
"573 488 OFFCURVE",
"573 605 CURVE SMOOTH",
"573 614 OFFCURVE",
"573 615 OFFCURVE",
"572 636 CURVE",
"547 636 LINE",
"544 548 OFFCURVE",
"517 485 OFFCURVE",
"465 485 CURVE SMOOTH",
"427 485 OFFCURVE",
"407 515 OFFCURVE",
"407 590 CURVE",
"382 590 LINE",
"378 535 OFFCURVE",
"367 433 OFFCURVE",
"290 433 CURVE SMOOTH",
"258 433 OFFCURVE",
"228 447 OFFCURVE",
"228 517 CURVE SMOOTH",
"228 526 OFFCURVE",
"229 541 OFFCURVE",
"230 551 CURVE"
);
}
);
width = 662;
}
);
unicode = 1ECAC;
category = Letter;
},
{
glyphname = onequarter_siyaq;
lastChange = "2019-09-12 13:59:03 +0000";
layers = (
{
layerId = UUID0;
paths = (
{
closed = 1;
nodes = (
"388 272 LINE SMOOTH",
"403 272 OFFCURVE",
"406 279 OFFCURVE",
"417 320 CURVE",
"413 327 LINE",
"99 327 LINE SMOOTH",
"84 327 OFFCURVE",
"81 320 OFFCURVE",
"70 279 CURVE",
"74 272 LINE"
);
}
);
width = 487;
}
);
unicode = 1ECAD;
category = Letter;
},
{
glyphname = onehalf_siyaq;
lastChange = "2019-09-12 13:59:03 +0000";
layers = (
{
layerId = UUID0;
paths = (
{
closed = 1;
nodes = (
"66 299 LINE",
"81 286 OFFCURVE",
"110 258 OFFCURVE",
"123 245 CURVE",
"131 245 LINE",
"160 266 OFFCURVE",
"188 290 OFFCURVE",
"188 311 CURVE SMOOTH",
"188 330 OFFCURVE",
"169 347 OFFCURVE",
"133 369 CURVE",
"126 369 LINE",
"117 364 OFFCURVE",
"83 330 OFFCURVE",
"66 307 CURVE"
);
}
);
width = 254;
}
);
unicode = 1ECAE;
category = Letter;
},
{
glyphname = threequarters_siyaq;
lastChange = "2019-09-12 13:59:03 +0000";
layers = (
{
layerId = UUID0;
paths = (
{
closed = 1;
nodes = (
"187 454 LINE",
"202 441 OFFCURVE",
"231 413 OFFCURVE",
"244 400 CURVE",
"252 400 LINE",
"281 421 OFFCURVE",
"309 445 OFFCURVE",
"309 466 CURVE SMOOTH",
"309 485 OFFCURVE",
"290 502 OFFCURVE",
"254 524 CURVE",
"247 524 LINE",
"238 519 OFFCURVE",
"204 485 OFFCURVE",
"187 462 CURVE"
);
},
{
closed = 1;
nodes = (
"388 272 LINE SMOOTH",
"403 272 OFFCURVE",
"406 279 OFFCURVE",
"417 320 CURVE",
"413 327 LINE",
"99 327 LINE SMOOTH",
"84 327 OFFCURVE",
"81 320 OFFCURVE",
"70 279 CURVE",
"74 272 LINE"
);
}
);
width = 487;
}
);
unicode = 1ECAF;
category = Letter;
},
{
glyphname = rupee_siyaq;
lastChange = "2019-09-12 13:59:03 +0000";
layers = (
{
layerId = UUID0;
paths = (
{
closed = 1;
nodes = (
"-49 -126 LINE",
"235 234 LINE SMOOTH",
"249 252 OFFCURVE",
"263 274 OFFCURVE",
"268 287 CURVE",
"271 305 OFFCURVE",
"279 388 OFFCURVE",
"279 408 CURVE",
"271 411 LINE",
"-70 -112 LINE"
);
}
);
width = 359;
}
);
unicode = 1ECB0;
script = "";
category = Letter;
},
{
glyphname = one.alt_siyaq;
lastChange = "2019-09-12 13:59:03 +0000";
layers = (
{
layerId = UUID0;
paths = (
{
closed = 1;
nodes = (
"162 191 OFFCURVE",
"93 79 OFFCURVE",
"50 -11 CURVE",
"69 -22 LINE",
"111 29 OFFCURVE",
"139 46 OFFCURVE",
"178 46 CURVE SMOOTH",
"251 46 OFFCURVE",
"309 -7 OFFCURVE",
"426 -7 CURVE SMOOTH",
"630 -7 OFFCURVE",
"711 132 OFFCURVE",
"761 235 CURVE",
"741 247 LINE",
"702 195 OFFCURVE",
"661 174 OFFCURVE",
"619 171 CURVE",
"576 173 OFFCURVE",
"540 205 OFFCURVE",
"540 252 CURVE SMOOTH",
"540 302 OFFCURVE",
"599 331 OFFCURVE",
"650 331 CURVE SMOOTH",
"671 331 OFFCURVE",
"693 325 OFFCURVE",
"710 306 CURVE",
"718 305 LINE",
"742 315 OFFCURVE",
"748 343 OFFCURVE",
"748 359 CURVE SMOOTH",
"748 398 OFFCURVE",
"711 413 OFFCURVE",
"679 413 CURVE SMOOTH",
"619 413 OFFCURVE",
"567 367 OFFCURVE",
"514 312 CURVE SMOOTH",
"481 278 OFFCURVE",
"431 217 OFFCURVE",
"431 149 CURVE",
"364 153 OFFCURVE",
"337 191 OFFCURVE",
"273 191 CURVE SMOOTH"
);
}
);
width = 815;
}
);
unicode = 1ECB1;
script = "";
category = Letter;
},
{
glyphname = two.alt_siyaq;
lastChange = "2019-09-12 13:59:03 +0000";
layers = (
{
layerId = UUID0;
paths = (
{
closed = 1;
nodes = (
"152 163 OFFCURVE",
"131 228 OFFCURVE",
"131 346 CURVE SMOOTH",
"131 362 OFFCURVE",
"131 379 OFFCURVE",
"132 397 CURVE SMOOTH",
"139 642 OFFCURVE",
"150 767 OFFCURVE",
"163 819 CURVE",
"142 827 LINE",
"111 752 OFFCURVE",
"96 693 OFFCURVE",
"86 611 CURVE SMOOTH",
"66 441 OFFCURVE",
"60 320 OFFCURVE",
"60 215 CURVE SMOOTH",
"60 48 OFFCURVE",
"139 0 OFFCURVE",
"224 0 CURVE SMOOTH",
"349 0 OFFCURVE",
"477 84 OFFCURVE",
"537 251 CURVE",
"516 261 LINE",
"482 213 OFFCURVE",
"448 187 OFFCURVE",
"398 180 CURVE",
"357 180 OFFCURVE",
"315 211 OFFCURVE",
"315 258 CURVE SMOOTH",
"315 277 OFFCURVE",
"325 298 OFFCURVE",
"342 312 CURVE SMOOTH",
"364 330 OFFCURVE",
"393 341 OFFCURVE",
"422 341 CURVE SMOOTH",
"443 341 OFFCURVE",
"466 334 OFFCURVE",
"483 319 CURVE",
"491 318 LINE",
"512 328 OFFCURVE",
"519 354 OFFCURVE",
"519 370 CURVE SMOOTH",
"519 408 OFFCURVE",
"484 425 OFFCURVE",
"453 425 CURVE SMOOTH",
"389 425 OFFCURVE",
"340 376 OFFCURVE",
"287 316 CURVE SMOOTH",
"259 284 OFFCURVE",
"210 214 OFFCURVE",
"210 162 CURVE SMOOTH",
"210 155 LINE"
);
}
);
width = 593;
}
);
unicode = 1ECB2;
script = "";
category = Letter;
},
{
glyphname = ten.alt_siyaq;
lastChange = "2019-09-12 13:59:03 +0000";
layers = (
{
layerId = UUID0;
paths = (
{
closed = 1;
nodes = (
"1604 112 OFFCURVE",
"1578 129 OFFCURVE",
"1542 147 CURVE SMOOTH",
"1527 154 OFFCURVE",
"1522 163 OFFCURVE",
"1522 174 CURVE SMOOTH",
"1522 184 OFFCURVE",
"1525 193 OFFCURVE",
"1530 202 CURVE SMOOTH",
"1556 248 OFFCURVE",
"1609 282 OFFCURVE",
"1660 309 CURVE SMOOTH",
"1718 339 OFFCURVE",
"1766 364 OFFCURVE",
"1817 392 CURVE SMOOTH",
"1831 400 OFFCURVE",
"1848 412 OFFCURVE",
"1858 424 CURVE SMOOTH",
"1875 446 OFFCURVE",
"1886 470 OFFCURVE",
"1893 489 CURVE",
"1880 500 LINE",
"1843 476 OFFCURVE",
"1810 451 OFFCURVE",
"1768 430 CURVE SMOOTH",
"1758 425 OFFCURVE",
"1745 423 OFFCURVE",
"1730 423 CURVE SMOOTH",
"1714 423 OFFCURVE",
"1697 424 OFFCURVE",
"1681 429 CURVE SMOOTH",
"1649 439 OFFCURVE",
"1614 461 OFFCURVE",
"1614 498 CURVE SMOOTH",
"1614 518 OFFCURVE",
"1624 537 OFFCURVE",
"1642 550 CURVE SMOOTH",
"1662 564 OFFCURVE",
"1686 573 OFFCURVE",
"1711 573 CURVE SMOOTH",
"1735 573 OFFCURVE",
"1758 566 OFFCURVE",
"1777 548 CURVE",
"1784 547 LINE",
"1799 555 OFFCURVE",
"1813 574 OFFCURVE",
"1813 599 CURVE SMOOTH",
"1813 633 OFFCURVE",
"1779 651 OFFCURVE",
"1744 651 CURVE SMOOTH",
"1687 651 OFFCURVE",
"1631 605 OFFCURVE",
"1586 559 CURVE SMOOTH",
"1552 525 OFFCURVE",
"1514 475 OFFCURVE",
"1514 418 CURVE SMOOTH",
"1514 379 OFFCURVE",
"1539 340 OFFCURVE",
"1579 321 CURVE",
"1537 287 OFFCURVE",
"1461 225 OFFCURVE",
"1436 152 CURVE",
"1347 146 OFFCURVE",
"1034 131 OFFCURVE",
"702 131 CURVE SMOOTH",
"323 131 OFFCURVE",
"168 141 OFFCURVE",
"78 149 CURVE",
"67 141 LINE",
"62 123 OFFCURVE",
"60 101 OFFCURVE",
"60 87 CURVE SMOOTH",
"60 52 OFFCURVE",
"68 14 OFFCURVE",
"149 5 CURVE SMOOTH",
"225 -3 OFFCURVE",
"418 -9 OFFCURVE",
"663 -9 CURVE SMOOTH",
"967 -9 OFFCURVE",
"1385 13 OFFCURVE",
"1430 13 CURVE SMOOTH",
"1448 13 OFFCURVE",
"1462 8 OFFCURVE",
"1484 -4 CURVE SMOOTH",
"1500 -13 OFFCURVE",
"1510 -16 OFFCURVE",
"1520 -16 CURVE SMOOTH",
"1562 -16 OFFCURVE",
"1604 54 OFFCURVE",
"1604 88 CURVE SMOOTH"
);
}
);
width = 1953;
}
);
unicode = 1ECB3;
script = "";
category = Letter;
},
{
glyphname = lakh_mark.alt_siyaq;
lastChange = "2019-09-12 13:59:03 +0000";
layers = (
{
layerId = UUID0;
paths = (
{
closed = 1;
nodes = (
"893 780 LINE",
"880 749 OFFCURVE",
"844 658 OFFCURVE",
"836 552 CURVE SMOOTH",
"818 303 LINE SMOOTH",
"817 286 OFFCURVE",
"813 264 OFFCURVE",
"804 244 CURVE SMOOTH",
"769 167 OFFCURVE",
"637 142 OFFCURVE",
"485 134 CURVE",
"498 150 LINE SMOOTH",
"512 168 OFFCURVE",
"526 190 OFFCURVE",
"531 203 CURVE",
"534 221 OFFCURVE",
"542 304 OFFCURVE",
"542 324 CURVE",
"534 327 LINE",
"406 131 LINE",
"328 131 LINE SMOOTH",
"272 131 OFFCURVE",
"220 132 OFFCURVE",
"78 144 CURVE",
"67 136 LINE",
"62 118 OFFCURVE",
"60 96 OFFCURVE",
"60 82 CURVE SMOOTH",
"60 47 OFFCURVE",
"68 11 OFFCURVE",
"149 0 CURVE SMOOTH",
"209 -8 OFFCURVE",
"238 -9 OFFCURVE",
"293 -9 CURVE SMOOTH",
"328 -9 LINE",
"206 -196 LINE",
"227 -210 LINE",
"388 -8 LINE",
"566 -3 OFFCURVE",
"750 25 OFFCURVE",
"810 178 CURVE",
"816 81 OFFCURVE",
"861 19 OFFCURVE",
"937 19 CURVE SMOOTH",
"1043 19 OFFCURVE",
"1085 138 OFFCURVE",
"1115 236 CURVE SMOOTH",
"1143 328 OFFCURVE",
"1157 508 OFFCURVE",
"1161 604 CURVE SMOOTH",
"1165 691 OFFCURVE",
"1164 749 OFFCURVE",
"1173 793 CURVE",
"1152 800 LINE",
"1120 732 OFFCURVE",
"1112 705 OFFCURVE",
"1103 674 CURVE SMOOTH",
"1095 645 OFFCURVE",
"1093 614 OFFCURVE",
"1092 577 CURVE SMOOTH",
"1087 378 LINE SMOOTH",
"1086 336 OFFCURVE",
"1084 299 OFFCURVE",
"1080 277 CURVE SMOOTH",
"1065 203 OFFCURVE",
"1034 177 OFFCURVE",
"981 177 CURVE SMOOTH",
"898 177 OFFCURVE",
"885 255 OFFCURVE",
"885 359 CURVE SMOOTH",
"885 396 OFFCURVE",
"894 629 OFFCURVE",
"902 699 CURVE SMOOTH",
"905 724 OFFCURVE",
"910 759 OFFCURVE",
"914 772 CURVE"
);
}
);
width = 1233;
}
);
unicode = 1ECB4;
script = "";
category = Letter;
},
{
glyphname = placeholder_siyaq.alt;
lastChange = "2019-09-12 13:59:03 +0000";
layers = (
{
layerId = UUID0;
paths = (
{
closed = 1;
nodes = (
"201 531 LINE",
"195 505 OFFCURVE",
"189 473 OFFCURVE",
"189 439 CURVE SMOOTH",
"189 375 OFFCURVE",
"210 328 OFFCURVE",
"272 328 CURVE SMOOTH",
"314 328 OFFCURVE",
"359 354 OFFCURVE",
"381 425 CURVE",
"398 389 OFFCURVE",
"427 379 OFFCURVE",
"454 379 CURVE SMOOTH",
"533 379 OFFCURVE",
"569 469 OFFCURVE",
"569 585 CURVE SMOOTH",
"569 594 OFFCURVE",
"569 595 OFFCURVE",
"568 616 CURVE",
"543 616 LINE",
"540 528 OFFCURVE",
"513 465 OFFCURVE",
"461 465 CURVE SMOOTH",
"423 465 OFFCURVE",
"403 495 OFFCURVE",
"403 570 CURVE",
"378 570 LINE",
"374 515 OFFCURVE",
"363 413 OFFCURVE",
"286 413 CURVE SMOOTH",
"254 413 OFFCURVE",
"224 427 OFFCURVE",
"224 497 CURVE SMOOTH",
"224 506 OFFCURVE",
"225 521 OFFCURVE",
"226 531 CURVE"
);
},
{
closed = 1;
nodes = (
"214 594 LINE",
"231 606 OFFCURVE",
"253 614 OFFCURVE",
"289 624 CURVE SMOOTH",
"521 687 LINE SMOOTH",
"554 696 OFFCURVE",
"566 705 OFFCURVE",
"595 750 CURVE",
"584 760 LINE",
"571 754 OFFCURVE",
"536 743 OFFCURVE",
"511 736 CURVE SMOOTH",
"451 719 OFFCURVE",
"334 687 OFFCURVE",
"297 677 CURVE SMOOTH",
"256 666 OFFCURVE",
"227 649 OFFCURVE",
"202 603 CURVE"
);
}
);
width = 662;
}
);
category = Letter;
},
{
glyphname = ZeroArabic;
lastChange = "2019-09-12 13:59:03 +0000";
layers = (
{
layerId = UUID0;
paths = (
{
closed = 1;
nodes = (
"32 324 LINE",
"48 311 OFFCURVE",
"78 284 OFFCURVE",
"92 270 CURVE",
"100 270 LINE",
"131 292 OFFCURVE",
"160 317 OFFCURVE",
"160 339 CURVE SMOOTH",
"160 359 OFFCURVE",
"140 377 OFFCURVE",
"102 400 CURVE",
"95 400 LINE",
"85 395 OFFCURVE",
"50 357 OFFCURVE",
"32 333 CURVE"
);
}
);
width = 192;
}
);
unicode = 0660;
category = Letter;
},
{
glyphname = OneArabic;
lastChange = "2019-09-12 13:59:03 +0000";
layers = (
{
layerId = UUID0;
paths = (
{
closed = 1;
nodes = (
"108 142 LINE",
"137 208 OFFCURVE",
"140 252 OFFCURVE",
"140 356 CURVE SMOOTH",
"140 419 OFFCURVE",
"126 552 OFFCURVE",
"117 580 CURVE",
"103 581 LINE",
"92 555 OFFCURVE",
"78 518 OFFCURVE",
"69 492 CURVE",
"74 455 OFFCURVE",
"92 354 OFFCURVE",
"92 239 CURVE SMOOTH",
"92 190 OFFCURVE",
"89 158 OFFCURVE",
"87 145 CURVE"
);
}
);
width = 209;
}
);
unicode = 0661;
script = arabic;
category = Letter;
},
{
glyphname = TwoArabic;
lastChange = "2019-09-12 13:59:03 +0000";
layers = (
{
layerId = UUID0;
paths = (
{
closed = 1;
nodes = (
"113 142 LINE",
"143 207 OFFCURVE",
"144 265 OFFCURVE",
"144 346 CURVE SMOOTH",
"144 362 OFFCURVE",
"143 400 OFFCURVE",
"140 415 CURVE",
"151 411 OFFCURVE",
"160 410 OFFCURVE",
"175 410 CURVE SMOOTH",
"267 410 OFFCURVE",
"302 461 OFFCURVE",
"320 577 CURVE",
"299 581 LINE",
"277 511 OFFCURVE",
"237 499 OFFCURVE",
"193 499 CURVE SMOOTH",
"167 499 OFFCURVE",
"135 509 OFFCURVE",
"125 536 CURVE",
"122 553 OFFCURVE",
"117 572 OFFCURVE",
"114 580 CURVE",
"103 581 LINE",
"91 557 OFFCURVE",
"76 516 OFFCURVE",
"69 492 CURVE",
"85 405 OFFCURVE",
"98 342 OFFCURVE",
"98 226 CURVE SMOOTH",
"98 190 OFFCURVE",
"94 153 OFFCURVE",
"93 145 CURVE"
);
}
);
width = 340;
}
);
unicode = 0662;
script = arabic;
category = Letter;
},
{
glyphname = ThreeArabic;
lastChange = "2019-09-12 13:59:03 +0000";
layers = (
{
layerId = UUID0;
paths = (
{
closed = 1;
nodes = (
"114 142 LINE",
"142 207 OFFCURVE",
"145 262 OFFCURVE",
"145 356 CURVE SMOOTH",
"145 371 OFFCURVE",
"144 391 OFFCURVE",
"142 410 CURVE",
"152 410 LINE SMOOTH",
"180 410 OFFCURVE",
"200 418 OFFCURVE",
"217 433 CURVE",
"233 421 OFFCURVE",
"251 417 OFFCURVE",
"267 417 CURVE SMOOTH",
"328 417 OFFCURVE",
"377 470 OFFCURVE",
"387 579 CURVE",
"367 581 LINE",
"349 511 OFFCURVE",
"326 499 OFFCURVE",
"295 499 CURVE SMOOTH",
"283 499 OFFCURVE",
"265 502 OFFCURVE",
"257 514 CURVE",
"261 532 OFFCURVE",
"265 551 OFFCURVE",
"267 578 CURVE",
"246 580 LINE",
"229 511 OFFCURVE",
"206 499 OFFCURVE",
"170 499 CURVE SMOOTH",
"151 499 OFFCURVE",
"136 509 OFFCURVE",
"127 525 CURVE",
"122 549 OFFCURVE",
"118 570 OFFCURVE",
"115 580 CURVE",
"103 581 LINE",
"93 558 OFFCURVE",
"76 516 OFFCURVE",
"69 492 CURVE",
"90 370 OFFCURVE",
"98 320 OFFCURVE",
"98 233 CURVE SMOOTH",
"98 190 OFFCURVE",
"95 155 OFFCURVE",
"94 145 CURVE"
);
}
);
width = 406;
}
);
unicode = 0663;
script = arabic;
category = Letter;
},
{
glyphname = FourArabic;
lastChange = "2019-09-12 13:59:03 +0000";
layers = (
{
layerId = UUID0;
paths = (
{
closed = 1;
nodes = (
"286 214 LINE",
"255 214 OFFCURVE",
"197 217 OFFCURVE",
"149 226 CURVE SMOOTH",
"126 230 OFFCURVE",
"116 240 OFFCURVE",
"116 258 CURVE SMOOTH",
"116 267 OFFCURVE",
"123 281 OFFCURVE",
"139 299 CURVE SMOOTH",
"149 311 OFFCURVE",
"164 326 OFFCURVE",
"183 343 CURVE SMOOTH",
"203 361 OFFCURVE",
"210 376 OFFCURVE",
"210 388 CURVE SMOOTH",
"210 400 OFFCURVE",
"200 409 OFFCURVE",
"179 417 CURVE SMOOTH",
"129 436 LINE SMOOTH",
"103 446 OFFCURVE",
"99 451 OFFCURVE",
"99 458 CURVE SMOOTH",
"99 475 OFFCURVE",
"135 497 OFFCURVE",
"184 517 CURVE",
"201 534 OFFCURVE",
"225 574 OFFCURVE",
"231 591 CURVE",
"223 595 LINE",
"166 575 OFFCURVE",
"121 537 OFFCURVE",
"93 511 CURVE SMOOTH",
"66 486 OFFCURVE",
"37 456 OFFCURVE",
"37 418 CURVE SMOOTH",
"37 373 OFFCURVE",
"74 357 OFFCURVE",
"128 339 CURVE",
"52 273 OFFCURVE",
"44 232 OFFCURVE",
"44 206 CURVE SMOOTH",
"44 157 OFFCURVE",
"101 143 OFFCURVE",
"156 143 CURVE SMOOTH",
"202 143 OFFCURVE",
"253 173 OFFCURVE",
"292 206 CURVE"
);
}
);
width = 302;
}
);
unicode = 0664;
script = arabic;
category = Letter;
},
{
glyphname = FiveArabic;
lastChange = "2019-09-12 13:59:03 +0000";
layers = (
{
layerId = UUID0;
paths = (
{
closed = 1;
nodes = (
"161 532 OFFCURVE",
"127 499 OFFCURVE",
"95 433 CURVE SMOOTH",
"62 365 OFFCURVE",
"48 310 OFFCURVE",
"48 260 CURVE SMOOTH",
"48 198 OFFCURVE",
"89 158 OFFCURVE",
"156 158 CURVE SMOOTH",
"266 158 OFFCURVE",
"315 226 OFFCURVE",
"315 357 CURVE SMOOTH",
"315 460 OFFCURVE",
"252 532 OFFCURVE",
"197 532 CURVE SMOOTH"
);
},
{
closed = 1;
nodes = (
"274 261 OFFCURVE",
"220 249 OFFCURVE",
"175 249 CURVE SMOOTH",
"124 249 OFFCURVE",
"95 269 OFFCURVE",
"95 308 CURVE SMOOTH",
"95 337 OFFCURVE",
"126 441 OFFCURVE",
"178 441 CURVE SMOOTH",
"222 441 OFFCURVE",
"274 360 OFFCURVE",
"274 310 CURVE SMOOTH"
);
}
);
width = 363;
}
);
unicode = 0665;
script = arabic;
category = Letter;
},
{
glyphname = SixArabic;
lastChange = "2019-09-12 13:59:03 +0000";
layers = (
{
layerId = UUID0;
paths = (
{
closed = 1;
nodes = (
"247 573 LINE",
"222 546 OFFCURVE",
"180 537 OFFCURVE",
"153 537 CURVE SMOOTH",
"107 537 OFFCURVE",
"70 547 OFFCURVE",
"42 576 CURVE",
"32 574 LINE",
"22 549 OFFCURVE",
"20 519 OFFCURVE",
"20 511 CURVE SMOOTH",
"20 493 OFFCURVE",
"25 489 OFFCURVE",
"40 478 CURVE SMOOTH",
"64 460 OFFCURVE",
"106 453 OFFCURVE",
"139 453 CURVE SMOOTH",
"164 453 OFFCURVE",
"199 461 OFFCURVE",
"223 474 CURVE",
"219 430 OFFCURVE",
"217 386 OFFCURVE",
"217 327 CURVE SMOOTH",
"217 263 OFFCURVE",
"230 172 OFFCURVE",
"238 143 CURVE",
"252 143 LINE",
"261 166 OFFCURVE",
"276 206 OFFCURVE",
"283 229 CURVE",
"282 242 OFFCURVE",
"279 267 OFFCURVE",
"276 284 CURVE SMOOTH",
"266 346 OFFCURVE",
"263 400 OFFCURVE",
"263 492 CURVE SMOOTH",
"263 532 OFFCURVE",
"263 558 OFFCURVE",
"264 569 CURVE"
);
}
);
width = 336;
}
);
unicode = 0666;
script = arabic;
category = Letter;
},
{
glyphname = SevenArabic;
lastChange = "2019-09-12 13:59:03 +0000";
layers = (
{
layerId = UUID0;
paths = (
{
closed = 1;
nodes = (
"26 492 LINE",
"45 453 OFFCURVE",
"94 340 OFFCURVE",
"143 206 CURVE SMOOTH",
"155 172 OFFCURVE",
"164 148 OFFCURVE",
"166 143 CURVE",
"184 143 LINE",
"193 154 OFFCURVE",
"211 194 OFFCURVE",
"238 262 CURVE SMOOTH",
"273 349 OFFCURVE",
"321 455 OFFCURVE",
"351 517 CURVE",
"350 526 OFFCURVE",
"338 567 OFFCURVE",
"330 581 CURVE",
"318 581 LINE",
"286 501 OFFCURVE",
"267 457 OFFCURVE",
"250 410 CURVE SMOOTH",
"228 351 OFFCURVE",
"212 308 OFFCURVE",
"196 265 CURVE",
"193 265 LINE",
"173 342 OFFCURVE",
"104 525 OFFCURVE",
"78 581 CURVE",
"66 581 LINE",
"50 555 OFFCURVE",
"30 513 OFFCURVE",
"26 496 CURVE"
);
}
);
width = 378;
}
);
unicode = 0667;
script = arabic;
category = Letter;
},
{
glyphname = EightArabic;
lastChange = "2019-09-12 13:59:03 +0000";
layers = (
{
layerId = UUID0;
paths = (
{
closed = 1;
nodes = (
"351 232 LINE",
"332 271 OFFCURVE",
"284 387 OFFCURVE",
"234 518 CURVE SMOOTH",
"223 548 OFFCURVE",
"214 571 OFFCURVE",
"209 581 CURVE",
"192 581 LINE",
"184 570 OFFCURVE",
"164 522 OFFCURVE",
"140 463 CURVE SMOOTH",
"104 376 OFFCURVE",
"56 270 OFFCURVE",
"26 207 CURVE",
"26 197 OFFCURVE",
"41 158 OFFCURVE",
"48 143 CURVE",
"59 143 LINE",
"99 241 OFFCURVE",
"116 284 OFFCURVE",
"138 342 CURVE SMOOTH",
"181 456 LINE",
"183 456 LINE",
"202 383 OFFCURVE",
"270 200 OFFCURVE",
"298 143 CURVE",
"309 143 LINE",
"326 169 OFFCURVE",
"347 212 OFFCURVE",
"351 228 CURVE"
);
}
);
width = 378;
}
);
unicode = 0668;
script = arabic;
category = Letter;
},
{
glyphname = NineArabic;
lastChange = "2019-09-12 13:59:03 +0000";
layers = (
{
layerId = UUID0;
paths = (
{
closed = 1;
nodes = (
"220 143 LINE",
"229 166 OFFCURVE",
"244 206 OFFCURVE",
"251 229 CURVE",
"250 246 OFFCURVE",
"246 265 OFFCURVE",
"244 284 CURVE SMOOTH",
"239 322 OFFCURVE",
"235 367 OFFCURVE",
"234 388 CURVE SMOOTH",
"227 521 OFFCURVE",
"217 581 OFFCURVE",
"147 581 CURVE SMOOTH",
"70 581 OFFCURVE",
"32 476 OFFCURVE",
"32 411 CURVE SMOOTH",
"32 354 OFFCURVE",
"69 327 OFFCURVE",
"119 327 CURVE SMOOTH",
"143 327 OFFCURVE",
"169 336 OFFCURVE",
"188 356 CURVE",
"190 266 OFFCURVE",
"197 175 OFFCURVE",
"207 143 CURVE"
);
},
{
closed = 1;
nodes = (
"102 408 OFFCURVE",
"76 421 OFFCURVE",
"76 449 CURVE SMOOTH",
"76 471 OFFCURVE",
"99 503 OFFCURVE",
"129 503 CURVE SMOOTH",
"164 503 OFFCURVE",
"185 474 OFFCURVE",
"186 418 CURVE",
"178 413 OFFCURVE",
"159 408 OFFCURVE",
"136 408 CURVE SMOOTH"
);
}
);
width = 304;
}
);
unicode = 0669;
script = arabic;
category = Letter;
},
{
glyphname = FourUrdu;
lastChange = "2019-09-12 13:59:03 +0000";
layers = (
{
layerId = UUID0;
paths = (
{
closed = 1;
nodes = (
"91 583 OFFCURVE",
"58 497 OFFCURVE",
"58 436 CURVE SMOOTH",
"58 415 OFFCURVE",
"64 367 OFFCURVE",
"73 317 CURVE SMOOTH",
"84 257 OFFCURVE",
"90 210 OFFCURVE",
"90 161 CURVE SMOOTH",
"90 142 LINE",
"108 141 LINE",
"122 172 OFFCURVE",
"129 217 OFFCURVE",
"129 258 CURVE SMOOTH",
"129 323 OFFCURVE",
"121 378 OFFCURVE",
"114 417 CURVE SMOOTH",
"107 454 OFFCURVE",
"105 467 OFFCURVE",
"105 480 CURVE SMOOTH",
"105 498 OFFCURVE",
"116 509 OFFCURVE",
"136 509 CURVE SMOOTH",
"183 509 OFFCURVE",
"210 422 OFFCURVE",
"219 382 CURVE",
"232 382 LINE",
"259 434 OFFCURVE",
"292 471 OFFCURVE",
"317 499 CURVE",
"329 525 OFFCURVE",
"341 563 OFFCURVE",
"349 594 CURVE",
"339 600 LINE",
"314 574 OFFCURVE",
"287 537 OFFCURVE",
"257 491 CURVE",
"237 557 OFFCURVE",
"201 583 OFFCURVE",
"161 583 CURVE SMOOTH"
);
}
);
width = 358;
}
);
unicode = 06F4;
script = arabic;
category = Letter;
},
{
glyphname = FiveUrdu;
lastChange = "2019-09-12 13:59:03 +0000";
layers = (
{
layerId = UUID0;
paths = (
{
closed = 1;
nodes = (
"311 163 OFFCURVE",
"334 287 OFFCURVE",
"334 343 CURVE SMOOTH",
"334 434 OFFCURVE",
"269 511 OFFCURVE",
"208 576 CURVE",
"198 577 LINE",
"181 559 OFFCURVE",
"156 524 OFFCURVE",
"156 513 CURVE SMOOTH",
"156 509 LINE",
"112 448 OFFCURVE",
"47 350 OFFCURVE",
"47 244 CURVE SMOOTH",
"47 189 OFFCURVE",
"71 154 OFFCURVE",
"121 154 CURVE SMOOTH",
"150 154 OFFCURVE",
"171 167 OFFCURVE",
"184 183 CURVE",
"198 164 OFFCURVE",
"219 163 OFFCURVE",
"237 163 CURVE SMOOTH"
);
},
{
closed = 1;
nodes = (
"194 280 LINE",
"181 259 OFFCURVE",
"160 241 OFFCURVE",
"133 241 CURVE SMOOTH",
"100 241 OFFCURVE",
"92 266 OFFCURVE",
"92 293 CURVE SMOOTH",
"92 343 OFFCURVE",
"134 412 OFFCURVE",
"186 466 CURVE",
"222 428 OFFCURVE",
"289 357 OFFCURVE",
"289 297 CURVE SMOOTH",
"289 274 OFFCURVE",
"280 247 OFFCURVE",
"251 247 CURVE SMOOTH",
"232 247 OFFCURVE",
"214 257 OFFCURVE",
"206 280 CURVE"
);
}
);
width = 381;
}
);
unicode = 06F5;
script = arabic;
category = Letter;
},
{
glyphname = SevenUrdu;
lastChange = "2019-09-12 13:59:03 +0000";
layers = (
{
layerId = UUID0;
paths = (
{
closed = 1;
nodes = (
"313 229 LINE",
"285 233 OFFCURVE",
"133 250 OFFCURVE",
"81 261 CURVE",
"84 273 OFFCURVE",
"101 299 OFFCURVE",
"125 329 CURVE SMOOTH",
"167 380 OFFCURVE",
"225 446 OFFCURVE",
"256 483 CURVE",
"263 498 OFFCURVE",
"269 549 OFFCURVE",
"270 562 CURVE",
"258 563 LINE",
"185 481 OFFCURVE",
"81 361 OFFCURVE",
"35 250 CURVE SMOOTH",
"30 239 OFFCURVE",
"22 209 OFFCURVE",
"21 199 CURVE",
"25 189 LINE",
"57 180 OFFCURVE",
"235 151 OFFCURVE",
"277 151 CURVE",
"295 175 OFFCURVE",
"308 202 OFFCURVE",
"313 215 CURVE"
);
}
);
width = 326;
}
);
unicode = 06F7;
script = "";
category = Letter;
},
{
glyphname = Alef;
lastChange = "2019-09-12 13:59:03 +0000";
layers = (
{
layerId = UUID0;
paths = (
{
closed = 1;
nodes = (
"165 199 OFFCURVE",
"187 291 OFFCURVE",
"192 377 CURVE SMOOTH",
"208 659 LINE SMOOTH",
"214 767 OFFCURVE",
"222 834 OFFCURVE",
"233 861 CURVE",
"212 869 LINE",
"137 702 OFFCURVE",
"132 663 OFFCURVE",
"128 544 CURVE SMOOTH",
"119 295 LINE SMOOTH",
"116 199 OFFCURVE",
"107 136 OFFCURVE",
"101 106 CURVE",
"123 101 LINE"
);
}
